ModularB-Bold.ufo
<glyph name="exclam" format="1">
  <advance width="295"/>
  <unicode hex="0021"/>
  <outline>
    <contour>
      <point x="80" y="561" type="line"/>
      <point x="79" y="511" type="line"/>
      <point x="117" y="186" type="line"/>
      <point x="182" y="186" type="line"/>
      <point x="221" y="509" type="line"/>
      <point x="220" y="561" type="line"/>
    </contour>
    <contour>
      <point x="100" y="99"/>
      <point x="72" y="77"/>
      <point x="72" y="47" type="curve" smooth="yes"/>
      <point x="72" y="14"/>
      <point x="99" y="-5"/>
      <point x="147" y="-5" type="curve" smooth="yes"/>
      <point x="194" y="-5"/>
      <point x="220" y="16"/>
      <point x="220" y="47" type="curve" smooth="yes"/>
      <point x="220" y="82"/>
      <point x="186" y="99"/>
      <point x="147" y="99" type="curve" smooth="yes"/>
    </contour>
  </outline>
</glyph>
<glyph name="numbersign" format="1">
  <advance width="619"/>
  <unicode hex="0023"/>
  <outline>
    <contour>
      <point x="459" y="601" type="line"/>
      <point x="409" y="430" type="line"/>
      <point x="287" y="430" type="line"/>
      <point x="337" y="601" type="line"/>
      <point x="257" y="601" type="line"/>
      <point x="208" y="430" type="line"/>
      <point x="78" y="430" type="line"/>
      <point x="66" y="354" type="line"/>
      <point x="187" y="354" type="line"/>
      <point x="155" y="241" type="line"/>
      <point x="51" y="241" type="line"/>
      <point x="40" y="165" type="line"/>
      <point x="135" y="165" type="line"/>
      <point x="85" y="-6" type="line"/>
      <point x="164" y="-6" type="line"/>
      <point x="214" y="165" type="line"/>
      <point x="336" y="165" type="line"/>
      <point x="285" y="-6" type="line"/>
      <point x="365" y="-6" type="line"/>
      <point x="416" y="165" type="line"/>
      <point x="542" y="165" type="line"/>
      <point x="553" y="241" type="line"/>
      <point x="436" y="241" type="line"/>
      <point x="467" y="354" type="line"/>
      <point x="569" y="354" type="line"/>
      <point x="580" y="430" type="line"/>
      <point x="488" y="430" type="line"/>
      <point x="538" y="601" type="line"/>
    </contour>
    <contour>
      <point x="357" y="241" type="line"/>
      <point x="234" y="241" type="line"/>
      <point x="266" y="354" type="line"/>
      <point x="389" y="354" type="line"/>
    </contour>
  </outline>
</glyph>
<glyph name="dollar" format="1">
  <advance width="500"/>
  <unicode hex="0024"/>
  <outline>
    <contour>
      <point x="233" y="609" type="line"/>
      <point x="233" y="549" type="line"/>
      <point x="129" y="543"/>
      <point x="51" y="496"/>
      <point x="51" y="400" type="curve" smooth="yes"/>
      <point x="51" y="322"/>
      <point x="109" y="269"/>
      <point x="229" y="238" type="curve"/>
      <point x="229" y="50" type="line"/>
      <point x="159" y="56"/>
      <point x="126" y="86"/>
      <point x="125" y="155" type="curve"/>
      <point x="45" y="155" type="line"/>
      <point x="45" y="50" type="line"/>
      <point x="88" y="18"/>
      <point x="151" y="0"/>
      <point x="229" y="-3" type="curve"/>
      <point x="229" y="-80" type="line"/>
      <point x="277" y="-80" type="line"/>
      <point x="277" y="-4" type="line"/>
      <point x="385" y="1"/>
      <point x="467" y="58"/>
      <point x="467" y="152" type="curve" smooth="yes"/>
      <point x="467" y="248"/>
      <point x="395" y="290"/>
      <point x="280" y="321" type="curve"/>
      <point x="280" y="494" type="line"/>
      <point x="344" y="488"/>
      <point x="372" y="456"/>
      <point x="372" y="397" type="curve"/>
      <point x="450" y="397" type="line"/>
      <point x="450" y="502" type="line"/>
      <point x="402" y="530"/>
      <point x="345" y="545"/>
      <point x="280" y="550" type="curve"/>
      <point x="280" y="609" type="line"/>
    </contour>
    <contour>
      <point x="277" y="225" type="line"/>
      <point x="342" y="209"/>
      <point x="373" y="180"/>
      <point x="373" y="135" type="curve" smooth="yes"/>
      <point x="373" y="80"/>
      <point x="333" y="53"/>
      <point x="277" y="48" type="curve"/>
    </contour>
    <contour>
      <point x="233" y="334" type="line"/>
      <point x="167" y="352"/>
      <point x="138" y="376"/>
      <point x="138" y="418" type="curve" smooth="yes"/>
      <point x="138" y="465"/>
      <point x="173" y="492"/>
      <point x="233" y="496" type="curve"/>
    </contour>
  </outline>
</glyph>
<glyph name="percent" format="1">
  <advance width="757"/>
  <unicode hex="0025"/>
  <outline>
    <contour>
      <point x="532" y="557" type="line"/>
      <point x="157" y="-6" type="line"/>
      <point x="225" y="-6" type="line"/>
      <point x="599" y="557" type="line"/>
    </contour>
    <contour>
      <point x="167" y="562" type="curve" smooth="yes"/>
      <point x="77" y="562"/>
      <point x="27" y="502"/>
      <point x="27" y="409" type="curve" smooth="yes"/>
      <point x="27" y="317"/>
      <point x="76" y="256"/>
      <point x="166" y="256" type="curve" smooth="yes"/>
      <point x="256" y="256"/>
      <point x="306" y="316"/>
      <point x="306" y="409" type="curve" smooth="yes"/>
      <point x="306" y="501"/>
      <point x="258" y="562"/>
    </contour>
    <contour>
      <point x="167" y="514" type="curve" smooth="yes"/>
      <point x="207" y="514"/>
      <point x="223" y="483"/>
      <point x="223" y="409" type="curve" smooth="yes"/>
      <point x="223" y="352"/>
      <point x="213" y="305"/>
      <point x="167" y="305" type="curve" smooth="yes"/>
      <point x="128" y="305"/>
      <point x="111" y="337"/>
      <point x="111" y="408" type="curve" smooth="yes"/>
      <point x="111" y="479"/>
      <point x="127" y="514"/>
    </contour>
    <contour>
      <point x="591" y="296" type="curve" smooth="yes"/>
      <point x="501" y="296"/>
      <point x="450" y="235"/>
      <point x="450" y="143" type="curve" smooth="yes"/>
      <point x="450" y="50"/>
      <point x="500" y="-10"/>
      <point x="590" y="-10" type="curve" smooth="yes"/>
      <point x="678" y="-10"/>
      <point x="730" y="48"/>
      <point x="730" y="142" type="curve" smooth="yes"/>
      <point x="730" y="234"/>
      <point x="681" y="296"/>
    </contour>
    <contour>
      <point x="590" y="248" type="curve" smooth="yes"/>
      <point x="631" y="248"/>
      <point x="647" y="216"/>
      <point x="647" y="143" type="curve" smooth="yes"/>
      <point x="647" y="69"/>
      <point x="629" y="39"/>
      <point x="590" y="39" type="curve" smooth="yes"/>
      <point x="551" y="39"/>
      <point x="534" y="71"/>
      <point x="534" y="141" type="curve" smooth="yes"/>
      <point x="534" y="213"/>
      <point x="551" y="248"/>
    </contour>
  </outline>
</glyph>
<glyph name="ampersand" format="1">
  <advance width="715"/>
  <unicode hex="0026"/>
  <outline>
    <contour>
      <point x="308" y="572" type="curve" smooth="yes"/>
      <point x="205" y="572"/>
      <point x="125" y="525"/>
      <point x="125" y="428" type="curve" smooth="yes"/>
      <point x="125" y="401"/>
      <point x="135" y="370"/>
      <point x="163" y="341" type="curve"/>
      <point x="91" y="306"/>
      <point x="42" y="246"/>
      <point x="42" y="167" type="curve" smooth="yes"/>
      <point x="42" y="47"/>
      <point x="149" y="-11"/>
      <point x="286" y="-11" type="curve" smooth="yes"/>
      <point x="357" y="-11"/>
      <point x="416" y="5"/>
      <point x="474" y="36" type="curve"/>
      <point x="493" y="5"/>
      <point x="528" y="-11"/>
      <point x="579" y="-11" type="curve" smooth="yes"/>
      <point x="659" y="-11"/>
      <point x="692" y="19"/>
      <point x="695" y="116" type="curve"/>
      <point x="648" y="110" type="line"/>
      <point x="648" y="84"/>
      <point x="639" y="71"/>
      <point x="620" y="71" type="curve" smooth="yes"/>
      <point x="586" y="71"/>
      <point x="584" y="103"/>
      <point x="584" y="144" type="curve" smooth="yes"/>
      <point x="584" y="296" type="line"/>
      <point x="686" y="296" type="line"/>
      <point x="686" y="354" type="line"/>
      <point x="583" y="354" type="line"/>
      <point x="583" y="452" type="line"/>
      <point x="473" y="438" type="line"/>
      <point x="464" y="354" type="line"/>
      <point x="255" y="354" type="line"/>
      <point x="229" y="382"/>
      <point x="221" y="405"/>
      <point x="221" y="436" type="curve" smooth="yes"/>
      <point x="221" y="482"/>
      <point x="264" y="506"/>
      <point x="311" y="506" type="curve" smooth="yes"/>
      <point x="350" y="506"/>
      <point x="378" y="486"/>
      <point x="381" y="445" type="curve"/>
      <point x="451" y="452" type="line"/>
      <point x="448" y="544" type="line"/>
      <point x="417" y="561"/>
      <point x="360" y="572"/>
    </contour>
    <contour>
      <point x="455" y="123" type="line"/>
      <point x="455" y="116"/>
      <point x="455" y="110"/>
      <point x="456" y="107" type="curve"/>
      <point x="412" y="83"/>
      <point x="367" y="71"/>
      <point x="320" y="71" type="curve" smooth="yes"/>
      <point x="233" y="71"/>
      <point x="176" y="105"/>
      <point x="176" y="175" type="curve" smooth="yes"/>
      <point x="176" y="221"/>
      <point x="198" y="264"/>
      <point x="251" y="296" type="curve"/>
      <point x="455" y="296" type="line"/>
    </contour>
  </outline>
</glyph>
<glyph name="quotesingle" format="1">
  <advance width="183"/>
  <unicode hex="0027"/>
  <outline>
    <contour>
      <point x="94" y="607" type="curve" smooth="yes"/>
      <point x="60" y="607"/>
      <point x="37" y="582"/>
      <point x="37" y="544" type="curve" smooth="yes"/>
      <point x="37" y="510"/>
      <point x="60" y="399"/>
      <point x="65" y="374" type="curve"/>
      <point x="120" y="374" type="line"/>
      <point x="149" y="533"/>
      <point x="147" y="515"/>
      <point x="147" y="551" type="curve" smooth="yes"/>
      <point x="147" y="585"/>
      <point x="125" y="607"/>
    </contour>
  </outline>
</glyph>
<glyph name="parenleft" format="1">
  <advance width="342"/>
  <unicode hex="0028"/>
  <outline>
    <contour>
      <point x="129" y="526"/>
      <point x="55" y="390"/>
      <point x="55" y="239" type="curve" smooth="yes"/>
      <point x="55" y="91"/>
      <point x="125" y="-44"/>
      <point x="271" y="-118" type="curve"/>
      <point x="312" y="-75" type="line"/>
      <point x="220" y="7"/>
      <point x="190" y="114"/>
      <point x="190" y="242" type="curve" smooth="yes"/>
      <point x="190" y="376"/>
      <point x="226" y="479"/>
      <point x="312" y="554" type="curve"/>
      <point x="271" y="597" type="line"/>
    </contour>
  </outline>
</glyph>
<glyph name="parenright" format="1">
  <advance width="335"/>
  <unicode hex="0029"/>
  <outline>
    <contour>
      <point x="17" y="565" type="line"/>
      <point x="109" y="483"/>
      <point x="149" y="377"/>
      <point x="149" y="239" type="curve" smooth="yes"/>
      <point x="149" y="111"/>
      <point x="119" y="8"/>
      <point x="27" y="-74" type="curve"/>
      <point x="67" y="-116" type="line"/>
      <point x="212" y="-43"/>
      <point x="280" y="90"/>
      <point x="280" y="237" type="curve" smooth="yes"/>
      <point x="280" y="370"/>
      <point x="212" y="489"/>
      <point x="83" y="585" type="curve"/>
    </contour>
  </outline>
</glyph>
<glyph name="asterisk" format="1">
  <advance width="449"/>
  <unicode hex="002A"/>
  <outline>
    <contour>
      <point x="185" y="546" type="line"/>
      <point x="187" y="485" type="line"/>
      <point x="198" y="459"/>
      <point x="207" y="435"/>
      <point x="212" y="400" type="curve"/>
      <point x="187" y="418"/>
      <point x="166" y="441"/>
      <point x="149" y="465" type="curve"/>
      <point x="99" y="500" type="line"/>
      <point x="54" y="427" type="line"/>
      <point x="107" y="396" type="line"/>
      <point x="136" y="392"/>
      <point x="162" y="387"/>
      <point x="195" y="371" type="curve"/>
      <point x="163" y="355"/>
      <point x="136" y="346"/>
      <point x="106" y="342" type="curve"/>
      <point x="54" y="310" type="line"/>
      <point x="99" y="239" type="line"/>
      <point x="150" y="273" type="line"/>
      <point x="167" y="300"/>
      <point x="184" y="322"/>
      <point x="212" y="344" type="curve"/>
      <point x="209" y="306"/>
      <point x="199" y="281"/>
      <point x="187" y="254" type="curve"/>
      <point x="187" y="192" type="line"/>
      <point x="269" y="192" type="line"/>
      <point x="268" y="253" type="line"/>
      <point x="255" y="281"/>
      <point x="248" y="309"/>
      <point x="245" y="340" type="curve"/>
      <point x="273" y="317"/>
      <point x="289" y="297"/>
      <point x="304" y="273" type="curve"/>
      <point x="356" y="239" type="line"/>
      <point x="401" y="310" type="line"/>
      <point x="348" y="342" type="line"/>
      <point x="316" y="346"/>
      <point x="288" y="356"/>
      <point x="258" y="371" type="curve"/>
      <point x="289" y="386"/>
      <point x="315" y="392"/>
      <point x="348" y="396" type="curve"/>
      <point x="401" y="427" type="line"/>
      <point x="356" y="500" type="line"/>
      <point x="305" y="465" type="line"/>
      <point x="290" y="443"/>
      <point x="271" y="424"/>
      <point x="246" y="404" type="curve"/>
      <point x="250" y="432"/>
      <point x="256" y="459"/>
      <point x="268" y="486" type="curve"/>
      <point x="269" y="546" type="line"/>
    </contour>
  </outline>
</glyph>
<glyph name="plus" format="1">
  <advance width="647"/>
  <unicode hex="002B"/>
  <outline>
    <contour>
      <point x="282" y="512" type="line"/>
      <point x="282" y="310" type="line"/>
      <point x="79" y="310" type="line"/>
      <point x="79" y="227" type="line"/>
      <point x="282" y="227" type="line"/>
      <point x="282" y="24" type="line"/>
      <point x="365" y="24" type="line"/>
      <point x="365" y="227" type="line"/>
      <point x="568" y="227" type="line"/>
      <point x="568" y="310" type="line"/>
      <point x="365" y="310" type="line"/>
      <point x="365" y="512" type="line"/>
    </contour>
  </outline>
</glyph>
<glyph name="comma" format="1">
  <advance width="277"/>
  <unicode hex="002C"/>
  <outline>
    <contour>
      <point x="73" y="108" type="line"/>
      <point x="62" y="4" type="line"/>
      <point x="95" y="-6" type="line"/>
      <point x="92" y="-37"/>
      <point x="87" y="-67"/>
      <point x="54" y="-73" type="curve"/>
      <point x="85" y="-128" type="line"/>
      <point x="153" y="-120"/>
      <point x="191" y="-63"/>
      <point x="204" y="9" type="curve" smooth="yes"/>
      <point x="220" y="108" type="line"/>
    </contour>
  </outline>
</glyph>
<glyph name="hyphen" format="1">
  <advance width="349"/>
  <unicode hex="002D"/>
  <outline>
    <contour>
      <point x="35" y="249" type="line"/>
      <point x="35" y="138" type="line"/>
      <point x="313" y="138" type="line"/>
      <point x="313" y="249" type="line"/>
    </contour>
  </outline>
</glyph>
<glyph name="period" format="1">
  <advance width="277"/>
  <unicode hex="002E"/>
  <outline>
    <contour>
      <point x="90" y="99"/>
      <point x="62" y="77"/>
      <point x="62" y="47" type="curve" smooth="yes"/>
      <point x="62" y="14"/>
      <point x="90" y="-5"/>
      <point x="137" y="-5" type="curve" smooth="yes"/>
      <point x="185" y="-5"/>
      <point x="210" y="16"/>
      <point x="210" y="47" type="curve" smooth="yes"/>
      <point x="210" y="82"/>
      <point x="176" y="99"/>
      <point x="137" y="99" type="curve" smooth="yes"/>
    </contour>
  </outline>
</glyph>
<glyph name="slash" format="1">
  <advance width="216"/>
  <unicode hex="002F"/>
  <outline>
    <contour>
      <point x="149" y="568" type="line"/>
      <point x="-21" y="-41" type="line"/>
      <point x="56" y="-41" type="line"/>
      <point x="226" y="568" type="line"/>
    </contour>
  </outline>
</glyph>
<glyph name="zero" format="1">
  <advance width="541"/>
  <unicode hex="0030"/>
  <outline>
    <contour>
      <point x="114" y="572"/>
      <point x="41" y="453"/>
      <point x="41" y="282" type="curve" smooth="yes"/>
      <point x="41" y="111"/>
      <point x="115" y="-11"/>
      <point x="270" y="-11" type="curve" smooth="yes"/>
      <point x="423" y="-11"/>
      <point x="499" y="108"/>
      <point x="499" y="282" type="curve" smooth="yes"/>
      <point x="499" y="452"/>
      <point x="424" y="572"/>
      <point x="270" y="572" type="curve" smooth="yes"/>
    </contour>
    <contour>
      <point x="343" y="490"/>
      <point x="375" y="422"/>
      <point x="375" y="283" type="curve" smooth="yes"/>
      <point x="375" y="143"/>
      <point x="346" y="72"/>
      <point x="270" y="72" type="curve" smooth="yes"/>
      <point x="180" y="72"/>
      <point x="165" y="170"/>
      <point x="165" y="287" type="curve" smooth="yes"/>
      <point x="165" y="421"/>
      <point x="197" y="490"/>
      <point x="270" y="490" type="curve" smooth="yes"/>
    </contour>
  </outline>
</glyph>
<glyph name="one" format="1">
  <advance width="541"/>
  <unicode hex="0031"/>
  <outline>
    <contour>
      <point x="258" y="562" type="line"/>
      <point x="225" y="527"/>
      <point x="180" y="502"/>
      <point x="122" y="493" type="curve"/>
      <point x="122" y="406" type="line"/>
      <point x="148" y="410"/>
      <point x="195" y="429"/>
      <point x="222" y="444" type="curve"/>
      <point x="222" y="120" type="line" smooth="yes"/>
      <point x="222" y="77"/>
      <point x="224" y="73"/>
      <point x="134" y="73" type="curve"/>
      <point x="134" y="0" type="line"/>
      <point x="146" y="0"/>
      <point x="271" y="1"/>
      <point x="288" y="1" type="curve" smooth="yes"/>
      <point x="318" y="1"/>
      <point x="414" y="0"/>
      <point x="426" y="0" type="curve"/>
      <point x="426" y="73" type="line"/>
      <point x="353" y="73"/>
      <point x="341" y="68"/>
      <point x="341" y="119" type="curve" smooth="yes"/>
      <point x="341" y="562" type="line"/>
    </contour>
  </outline>
</glyph>
<glyph name="two" format="1">
  <advance width="541"/>
  <unicode hex="0032"/>
  <outline>
    <contour>
      <point x="190" y="573"/>
      <point x="123" y="557"/>
      <point x="71" y="517" type="curve"/>
      <point x="70" y="405" type="line"/>
      <point x="157" y="400" type="line"/>
      <point x="159" y="466"/>
      <point x="185" y="498"/>
      <point x="255" y="498" type="curve" smooth="yes"/>
      <point x="312" y="498"/>
      <point x="348" y="470"/>
      <point x="348" y="425" type="curve" smooth="yes"/>
      <point x="348" y="375"/>
      <point x="313" y="350"/>
      <point x="255" y="310" type="curve" smooth="yes"/>
      <point x="176" y="256"/>
      <point x="108" y="211"/>
      <point x="79" y="136" type="curve" smooth="yes"/>
      <point x="57" y="84"/>
      <point x="57" y="6"/>
      <point x="58" y="0" type="curve"/>
      <point x="467" y="0" type="line"/>
      <point x="467" y="172" type="line"/>
      <point x="395" y="172" type="line"/>
      <point x="393" y="108"/>
      <point x="398" y="83"/>
      <point x="346" y="83" type="curve" smooth="yes"/>
      <point x="170" y="83" type="line"/>
      <point x="170" y="143"/>
      <point x="245" y="192"/>
      <point x="313" y="234" type="curve" smooth="yes"/>
      <point x="397" y="284"/>
      <point x="471" y="325"/>
      <point x="471" y="415" type="curve" smooth="yes"/>
      <point x="471" y="522"/>
      <point x="388" y="573"/>
      <point x="271" y="573" type="curve" smooth="yes"/>
    </contour>
  </outline>
</glyph>
<glyph name="three" format="1">
  <advance width="541"/>
  <unicode hex="0033"/>
  <outline>
    <contour>
      <point x="175" y="572"/>
      <point x="109" y="557"/>
      <point x="62" y="524" type="curve"/>
      <point x="62" y="410" type="line"/>
      <point x="152" y="407" type="line"/>
      <point x="153" y="470"/>
      <point x="180" y="504"/>
      <point x="245" y="504" type="curve" smooth="yes"/>
      <point x="300" y="504"/>
      <point x="341" y="473"/>
      <point x="341" y="421" type="curve" smooth="yes"/>
      <point x="341" y="356"/>
      <point x="292" y="337"/>
      <point x="222" y="329" type="curve"/>
      <point x="222" y="263" type="line"/>
      <point x="299" y="262"/>
      <point x="356" y="237"/>
      <point x="356" y="162" type="curve" smooth="yes"/>
      <point x="356" y="103"/>
      <point x="308" y="72"/>
      <point x="250" y="72" type="curve" smooth="yes"/>
      <point x="177" y="72"/>
      <point x="141" y="105"/>
      <point x="139" y="180" type="curve"/>
      <point x="50" y="175" type="line"/>
      <point x="53" y="46"/>
      <point x="133" y="-11"/>
      <point x="247" y="-11" type="curve" smooth="yes"/>
      <point x="377" y="-11"/>
      <point x="477" y="41"/>
      <point x="477" y="159" type="curve" smooth="yes"/>
      <point x="477" y="238"/>
      <point x="434" y="284"/>
      <point x="358" y="301" type="curve"/>
      <point x="423" y="316"/>
      <point x="459" y="359"/>
      <point x="459" y="421" type="curve" smooth="yes"/>
      <point x="459" y="526"/>
      <point x="373" y="572"/>
      <point x="256" y="572" type="curve" smooth="yes"/>
    </contour>
  </outline>
</glyph>
<glyph name="four" format="1">
  <advance width="541"/>
  <unicode hex="0034"/>
  <outline>
    <contour>
      <point x="286" y="562" type="line"/>
      <point x="38" y="261" type="line"/>
      <point x="44" y="232"/>
      <point x="48" y="202"/>
      <point x="53" y="172" type="curve"/>
      <point x="304" y="172" type="line"/>
      <point x="304" y="100" type="line" smooth="yes"/>
      <point x="304" y="67"/>
      <point x="291" y="68"/>
      <point x="217" y="68" type="curve"/>
      <point x="217" y="0" type="line"/>
      <point x="227" y="0"/>
      <point x="325" y="1"/>
      <point x="340" y="1" type="curve" smooth="yes"/>
      <point x="352" y="1"/>
      <point x="478" y="0"/>
      <point x="486" y="0" type="curve"/>
      <point x="486" y="68" type="line"/>
      <point x="423" y="68"/>
      <point x="416" y="66"/>
      <point x="416" y="103" type="curve" smooth="yes"/>
      <point x="416" y="172" type="line"/>
      <point x="498" y="172" type="line"/>
      <point x="498" y="243" type="line"/>
      <point x="416" y="243" type="line"/>
      <point x="416" y="562" type="line"/>
    </contour>
    <contour>
      <point x="305" y="242" type="line"/>
      <point x="112" y="242" type="line"/>
      <point x="305" y="486" type="line"/>
    </contour>
  </outline>
</glyph>
<glyph name="five" format="1">
  <advance width="530"/>
  <unicode hex="0035"/>
  <outline>
    <contour>
      <point x="83" y="551" type="line"/>
      <point x="83" y="256" type="line"/>
      <point x="152" y="239" type="line"/>
      <point x="174" y="266"/>
      <point x="207" y="280"/>
      <point x="249" y="280" type="curve" smooth="yes"/>
      <point x="314" y="280"/>
      <point x="354" y="244"/>
      <point x="354" y="179" type="curve" smooth="yes"/>
      <point x="354" y="111"/>
      <point x="314" y="71"/>
      <point x="248" y="71" type="curve" smooth="yes"/>
      <point x="186" y="71"/>
      <point x="155" y="95"/>
      <point x="147" y="146" type="curve"/>
      <point x="60" y="144" type="line"/>
      <point x="60" y="41" type="line"/>
      <point x="116" y="7"/>
      <point x="183" y="-11"/>
      <point x="256" y="-11" type="curve" smooth="yes"/>
      <point x="387" y="-11"/>
      <point x="475" y="55"/>
      <point x="475" y="182" type="curve" smooth="yes"/>
      <point x="475" y="295"/>
      <point x="397" y="363"/>
      <point x="282" y="363" type="curve" smooth="yes"/>
      <point x="236" y="363"/>
      <point x="197" y="352"/>
      <point x="163" y="328" type="curve"/>
      <point x="169" y="476" type="line"/>
      <point x="367" y="476" type="line" smooth="yes"/>
      <point x="376" y="476"/>
      <point x="376" y="461"/>
      <point x="376" y="450" type="curve"/>
      <point x="449" y="450" type="line"/>
      <point x="449" y="551" type="line"/>
    </contour>
  </outline>
</glyph>
<glyph name="six" format="1">
  <advance width="541"/>
  <unicode hex="0036"/>
  <outline>
    <contour>
      <point x="130" y="573"/>
      <point x="54" y="448"/>
      <point x="54" y="272" type="curve" smooth="yes"/>
      <point x="54" y="102"/>
      <point x="131" y="-11"/>
      <point x="284" y="-11" type="curve" smooth="yes"/>
      <point x="408" y="-11"/>
      <point x="500" y="65"/>
      <point x="500" y="186" type="curve" smooth="yes"/>
      <point x="500" y="296"/>
      <point x="425" y="371"/>
      <point x="315" y="371" type="curve" smooth="yes"/>
      <point x="260" y="371"/>
      <point x="211" y="352"/>
      <point x="174" y="315" type="curve"/>
      <point x="176" y="422"/>
      <point x="201" y="506"/>
      <point x="296" y="506" type="curve" smooth="yes"/>
      <point x="361" y="506"/>
      <point x="393" y="482"/>
      <point x="398" y="426" type="curve"/>
      <point x="481" y="431" type="line"/>
      <point x="477" y="528" type="line"/>
      <point x="432" y="556"/>
      <point x="377" y="573"/>
      <point x="301" y="573" type="curve" smooth="yes"/>
    </contour>
    <contour>
      <point x="350" y="296"/>
      <point x="381" y="248"/>
      <point x="381" y="177" type="curve" smooth="yes"/>
      <point x="381" y="109"/>
      <point x="344" y="72"/>
      <point x="282" y="72" type="curve" smooth="yes"/>
      <point x="216" y="72"/>
      <point x="176" y="114"/>
      <point x="176" y="191" type="curve" smooth="yes"/>
      <point x="176" y="214"/>
      <point x="181" y="237"/>
      <point x="189" y="255" type="curve"/>
      <point x="214" y="282"/>
      <point x="248" y="296"/>
      <point x="283" y="296" type="curve" smooth="yes"/>
    </contour>
  </outline>
</glyph>
<glyph name="seven" format="1">
  <advance width="530"/>
  <unicode hex="0037"/>
  <outline>
    <contour>
      <point x="78" y="551" type="line"/>
      <point x="78" y="386" type="line"/>
      <point x="148" y="386" type="line"/>
      <point x="148" y="432" type="line" smooth="yes"/>
      <point x="148" y="474"/>
      <point x="168" y="475"/>
      <point x="219" y="475" type="curve" smooth="yes"/>
      <point x="376" y="475" type="line"/>
      <point x="270" y="341"/>
      <point x="178" y="165"/>
      <point x="153" y="0" type="curve"/>
      <point x="285" y="0" type="line"/>
      <point x="303" y="140"/>
      <point x="376" y="319"/>
      <point x="472" y="467" type="curve"/>
      <point x="472" y="551" type="line"/>
    </contour>
  </outline>
</glyph>
<glyph name="eight" format="1">
  <advance width="541"/>
  <unicode hex="0038"/>
  <outline>
    <contour>
      <point x="153" y="573"/>
      <point x="61" y="527"/>
      <point x="61" y="422" type="curve" smooth="yes"/>
      <point x="61" y="360"/>
      <point x="98" y="315"/>
      <point x="167" y="296" type="curve"/>
      <point x="82" y="267"/>
      <point x="42" y="222"/>
      <point x="42" y="152" type="curve" smooth="yes"/>
      <point x="42" y="39"/>
      <point x="139" y="-11"/>
      <point x="268" y="-11" type="curve" smooth="yes"/>
      <point x="403" y="-11"/>
      <point x="498" y="40"/>
      <point x="498" y="153" type="curve" smooth="yes"/>
      <point x="498" y="225"/>
      <point x="459" y="272"/>
      <point x="371" y="297" type="curve"/>
      <point x="445" y="319"/>
      <point x="481" y="360"/>
      <point x="481" y="425" type="curve" smooth="yes"/>
      <point x="481" y="529"/>
      <point x="385" y="573"/>
      <point x="268" y="573" type="curve" smooth="yes"/>
    </contour>
    <contour>
      <point x="351" y="249"/>
      <point x="391" y="208"/>
      <point x="391" y="157" type="curve" smooth="yes"/>
      <point x="391" y="97"/>
      <point x="332" y="72"/>
      <point x="270" y="72" type="curve" smooth="yes"/>
      <point x="207" y="72"/>
      <point x="154" y="97"/>
      <point x="154" y="157" type="curve" smooth="yes"/>
      <point x="154" y="214"/>
      <point x="193" y="251"/>
      <point x="269" y="269" type="curve"/>
    </contour>
    <contour>
      <point x="322" y="494"/>
      <point x="366" y="476"/>
      <point x="366" y="426" type="curve" smooth="yes"/>
      <point x="366" y="380"/>
      <point x="335" y="349"/>
      <point x="272" y="332" type="curve"/>
      <point x="207" y="351"/>
      <point x="173" y="384"/>
      <point x="173" y="429" type="curve" smooth="yes"/>
      <point x="173" y="475"/>
      <point x="221" y="494"/>
      <point x="272" y="494" type="curve" smooth="yes"/>
    </contour>
  </outline>
</glyph>
<glyph name="nine" format="1">
  <advance width="530"/>
  <unicode hex="0039"/>
  <outline>
    <contour>
      <point x="255" y="561" type="curve" smooth="yes"/>
      <point x="133" y="561"/>
      <point x="44" y="490"/>
      <point x="44" y="371" type="curve" smooth="yes"/>
      <point x="44" y="263"/>
      <point x="117" y="188"/>
      <point x="226" y="188" type="curve" smooth="yes"/>
      <point x="282" y="188"/>
      <point x="329" y="207"/>
      <point x="364" y="245" type="curve"/>
      <point x="363" y="136"/>
      <point x="340" y="56"/>
      <point x="243" y="56" type="curve" smooth="yes"/>
      <point x="187" y="56"/>
      <point x="160" y="77"/>
      <point x="155" y="133" type="curve"/>
      <point x="69" y="128" type="line"/>
      <point x="70" y="43" type="line"/>
      <point x="117" y="7"/>
      <point x="178" y="-11"/>
      <point x="251" y="-11" type="curve" smooth="yes"/>
      <point x="413" y="-11"/>
      <point x="480" y="114"/>
      <point x="480" y="282" type="curve" smooth="yes"/>
      <point x="480" y="453"/>
      <point x="408" y="561"/>
    </contour>
    <contour>
      <point x="257" y="480" type="curve" smooth="yes"/>
      <point x="328" y="480"/>
      <point x="361" y="431"/>
      <point x="361" y="358" type="curve"/>
      <point x="360" y="336"/>
      <point x="358" y="316"/>
      <point x="355" y="299" type="curve"/>
      <point x="327" y="274"/>
      <point x="294" y="262"/>
      <point x="256" y="262" type="curve" smooth="yes"/>
      <point x="192" y="262"/>
      <point x="160" y="310"/>
      <point x="160" y="376" type="curve" smooth="yes"/>
      <point x="160" y="441"/>
      <point x="195" y="480"/>
    </contour>
  </outline>
</glyph>
<glyph name="colon" format="1">
  <advance width="279"/>
  <unicode hex="003A"/>
  <outline>
    <contour>
      <point x="139" y="97" type="curve" smooth="yes"/>
      <point x="100" y="97"/>
      <point x="67" y="80"/>
      <point x="67" y="47" type="curve" smooth="yes"/>
      <point x="67" y="14"/>
      <point x="93" y="-5"/>
      <point x="139" y="-5" type="curve" smooth="yes"/>
      <point x="186" y="-5"/>
      <point x="212" y="17"/>
      <point x="212" y="47" type="curve" smooth="yes"/>
      <point x="212" y="81"/>
      <point x="178" y="97"/>
    </contour>
    <contour>
      <point x="139" y="380" type="curve" smooth="yes"/>
      <point x="93" y="380"/>
      <point x="67" y="358"/>
      <point x="67" y="329" type="curve" smooth="yes"/>
      <point x="67" y="297"/>
      <point x="93" y="278"/>
      <point x="139" y="278" type="curve" smooth="yes"/>
      <point x="186" y="278"/>
      <point x="212" y="299"/>
      <point x="212" y="329" type="curve" smooth="yes"/>
      <point x="212" y="360"/>
      <point x="183" y="380"/>
    </contour>
  </outline>
</glyph>
<glyph name="semicolon" format="1">
  <advance width="279"/>
  <unicode hex="003B"/>
  <outline>
    <contour>
      <point x="143" y="380" type="curve" smooth="yes"/>
      <point x="98" y="380"/>
      <point x="70" y="358"/>
      <point x="70" y="329" type="curve" smooth="yes"/>
      <point x="70" y="297"/>
      <point x="97" y="278"/>
      <point x="143" y="278" type="curve" smooth="yes"/>
      <point x="190" y="278"/>
      <point x="216" y="299"/>
      <point x="216" y="329" type="curve" smooth="yes"/>
      <point x="216" y="363"/>
      <point x="182" y="380"/>
    </contour>
    <contour>
      <point x="72" y="106" type="line"/>
      <point x="61" y="4" type="line"/>
      <point x="93" y="-6" type="line"/>
      <point x="90" y="-36"/>
      <point x="85" y="-66"/>
      <point x="53" y="-72" type="curve"/>
      <point x="83" y="-125" type="line"/>
      <point x="150" y="-118"/>
      <point x="187" y="-62"/>
      <point x="200" y="9" type="curve" smooth="yes"/>
      <point x="216" y="106" type="line"/>
    </contour>
  </outline>
</glyph>
<glyph name="less" format="1">
  <advance width="647"/>
  <unicode hex="003C"/>
  <outline>
    <contour>
      <point x="81" y="306" type="line"/>
      <point x="81" y="231" type="line"/>
      <point x="565" y="32" type="line"/>
      <point x="565" y="122" type="line"/>
      <point x="198" y="269" type="line"/>
      <point x="565" y="415" type="line"/>
      <point x="565" y="505" type="line"/>
    </contour>
  </outline>
</glyph>
<glyph name="equal" format="1">
  <advance width="660"/>
  <unicode hex="003D"/>
  <outline>
    <contour>
      <point x="81" y="410" type="line"/>
      <point x="81" y="326" type="line"/>
      <point x="579" y="326" type="line"/>
      <point x="579" y="410" type="line"/>
    </contour>
    <contour>
      <point x="81" y="222" type="line"/>
      <point x="81" y="139" type="line"/>
      <point x="579" y="139" type="line"/>
      <point x="579" y="222" type="line"/>
    </contour>
  </outline>
</glyph>
<glyph name="greater" format="1">
  <advance width="647"/>
  <unicode hex="003E"/>
  <outline>
    <contour>
      <point x="81" y="415" type="line"/>
      <point x="448" y="269" type="line"/>
      <point x="81" y="122" type="line"/>
      <point x="81" y="32" type="line"/>
      <point x="565" y="231" type="line"/>
      <point x="565" y="306" type="line"/>
      <point x="81" y="505" type="line"/>
    </contour>
  </outline>
</glyph>
<glyph name="question" format="1">
  <advance width="465"/>
  <unicode hex="003F"/>
  <outline>
    <contour>
      <point x="152" y="573"/>
      <point x="92" y="557"/>
      <point x="42" y="528" type="curve"/>
      <point x="33" y="410" type="line"/>
      <point x="122" y="410" type="line"/>
      <point x="122" y="478"/>
      <point x="160" y="510"/>
      <point x="217" y="510" type="curve" smooth="yes"/>
      <point x="273" y="510"/>
      <point x="315" y="476"/>
      <point x="315" y="420" type="curve" smooth="yes"/>
      <point x="315" y="369"/>
      <point x="289" y="343"/>
      <point x="239" y="320" type="curve" smooth="yes"/>
      <point x="202" y="304"/>
      <point x="161" y="283"/>
      <point x="161" y="228" type="curve" smooth="yes"/>
      <point x="161" y="217"/>
      <point x="165" y="191"/>
      <point x="169" y="179" type="curve"/>
      <point x="256" y="179" type="line"/>
      <point x="256" y="205"/>
      <point x="286" y="232"/>
      <point x="324" y="259" type="curve" smooth="yes"/>
      <point x="377" y="295"/>
      <point x="442" y="344"/>
      <point x="442" y="425" type="curve" smooth="yes"/>
      <point x="442" y="529"/>
      <point x="350" y="573"/>
      <point x="222" y="573" type="curve" smooth="yes"/>
    </contour>
    <contour>
      <point x="166" y="99"/>
      <point x="139" y="77"/>
      <point x="139" y="47" type="curve" smooth="yes"/>
      <point x="139" y="14"/>
      <point x="166" y="-5"/>
      <point x="212" y="-5" type="curve" smooth="yes"/>
      <point x="261" y="-5"/>
      <point x="287" y="16"/>
      <point x="287" y="47" type="curve" smooth="yes"/>
      <point x="287" y="79"/>
      <point x="257" y="99"/>
      <point x="212" y="99" type="curve" smooth="yes"/>
    </contour>
  </outline>
</glyph>
<glyph name="at" format="1">
  <advance width="738"/>
  <unicode hex="0040"/>
  <outline>
    <contour>
      <point x="204" y="600"/>
      <point x="21" y="455"/>
      <point x="21" y="222" type="curve" smooth="yes"/>
      <point x="21" y="15"/>
      <point x="176" y="-132"/>
      <point x="390" y="-132" type="curve" smooth="yes"/>
      <point x="494" y="-132"/>
      <point x="606" y="-85"/>
      <point x="682" y="-11" type="curve"/>
      <point x="636" y="-3" type="line"/>
      <point x="559" y="-63"/>
      <point x="479" y="-93"/>
      <point x="389" y="-93" type="curve" smooth="yes"/>
      <point x="207" y="-93"/>
      <point x="78" y="32"/>
      <point x="78" y="215" type="curve" smooth="yes"/>
      <point x="78" y="410"/>
      <point x="208" y="560"/>
      <point x="405" y="560" type="curve" smooth="yes"/>
      <point x="565" y="560"/>
      <point x="674" y="460"/>
      <point x="674" y="303" type="curve" smooth="yes"/>
      <point x="674" y="205"/>
      <point x="614" y="64"/>
      <point x="518" y="64" type="curve" smooth="yes"/>
      <point x="500" y="64"/>
      <point x="491" y="74"/>
      <point x="491" y="96" type="curve" smooth="yes"/>
      <point x="491" y="108"/>
      <point x="496" y="132"/>
      <point x="500" y="149" type="curve" smooth="yes"/>
      <point x="560" y="426" type="line"/>
      <point x="495" y="426" type="line"/>
      <point x="478" y="361" type="line"/>
      <point x="458" y="411"/>
      <point x="428" y="438"/>
      <point x="380" y="438" type="curve" smooth="yes"/>
      <point x="271" y="438"/>
      <point x="179" y="315"/>
      <point x="179" y="188" type="curve" smooth="yes"/>
      <point x="179" y="140"/>
      <point x="192" y="99"/>
      <point x="214" y="70" type="curve" smooth="yes"/>
      <point x="238" y="43"/>
      <point x="270" y="27"/>
      <point x="308" y="27" type="curve" smooth="yes"/>
      <point x="357" y="27"/>
      <point x="392" y="49"/>
      <point x="432" y="101" type="curve"/>
      <point x="434" y="49"/>
      <point x="456" y="24"/>
      <point x="506" y="24" type="curve" smooth="yes"/>
      <point x="611" y="24"/>
      <point x="715" y="154"/>
      <point x="715" y="299" type="curve" smooth="yes"/>
      <point x="715" y="478"/>
      <point x="593" y="600"/>
      <point x="401" y="600" type="curve" smooth="yes"/>
    </contour>
    <contour>
      <point x="430" y="398"/>
      <point x="454" y="359"/>
      <point x="454" y="312" type="curve" smooth="yes"/>
      <point x="454" y="239"/>
      <point x="413" y="65"/>
      <point x="320" y="65" type="curve" smooth="yes"/>
      <point x="277" y="65"/>
      <point x="252" y="103"/>
      <point x="252" y="160" type="curve" smooth="yes"/>
      <point x="252" y="231"/>
      <point x="295" y="398"/>
      <point x="386" y="398" type="curve" smooth="yes"/>
    </contour>
  </outline>
</glyph>
<glyph name="A" format="1">
  <advance width="627"/>
  <unicode hex="0041"/>
  <outline>
    <contour>
      <point x="230" y="562" type="line"/>
      <point x="209" y="486" type="line"/>
      <point x="64" y="115" type="line" smooth="yes"/>
      <point x="53" y="88"/>
      <point x="38" y="77"/>
      <point x="16" y="77" type="curve" smooth="yes"/>
      <point x="2" y="77" type="line"/>
      <point x="2" y="0" type="line"/>
      <point x="53" y="0"/>
      <point x="64" y="1"/>
      <point x="108" y="1" type="curve" smooth="yes"/>
      <point x="129" y="1"/>
      <point x="201" y="0"/>
      <point x="218" y="0" type="curve"/>
      <point x="218" y="70" type="line"/>
      <point x="188" y="70" type="line" smooth="yes"/>
      <point x="169" y="70"/>
      <point x="162" y="74"/>
      <point x="162" y="87" type="curve" smooth="yes"/>
      <point x="162" y="93"/>
      <point x="165" y="103"/>
      <point x="171" y="122" type="curve"/>
      <point x="198" y="199" type="line"/>
      <point x="396" y="199" type="line"/>
      <point x="423" y="117" type="line" smooth="yes"/>
      <point x="427" y="104"/>
      <point x="430" y="95"/>
      <point x="430" y="88" type="curve" smooth="yes"/>
      <point x="430" y="73"/>
      <point x="415" y="70"/>
      <point x="395" y="70" type="curve" smooth="yes"/>
      <point x="372" y="70" type="line"/>
      <point x="372" y="0" type="line"/>
      <point x="427" y="0"/>
      <point x="472" y="1"/>
      <point x="521" y="1" type="curve" smooth="yes"/>
      <point x="543" y="1"/>
      <point x="609" y="0"/>
      <point x="625" y="0" type="curve"/>
      <point x="625" y="77" type="line"/>
      <point x="606" y="77" type="line" smooth="yes"/>
      <point x="580" y="77"/>
      <point x="568" y="95"/>
      <point x="560" y="117" type="curve" smooth="yes"/>
      <point x="396" y="562" type="line"/>
    </contour>
    <contour>
      <point x="375" y="255" type="line"/>
      <point x="217" y="255" type="line"/>
      <point x="298" y="481" type="line"/>
    </contour>
  </outline>
</glyph>
<glyph name="B" format="1">
  <advance width="610"/>
  <unicode hex="0042"/>
  <outline>
    <contour>
      <point x="32" y="562" type="line"/>
      <point x="32" y="486" type="line"/>
      <point x="56" y="486" type="line"/>
      <point x="90" y="486"/>
      <point x="95" y="463"/>
      <point x="95" y="435" type="curve" smooth="yes"/>
      <point x="95" y="117" type="line" smooth="yes"/>
      <point x="95" y="86"/>
      <point x="90" y="77"/>
      <point x="54" y="77" type="curve" smooth="yes"/>
      <point x="32" y="77" type="line"/>
      <point x="32" y="0" type="line"/>
      <point x="336" y="0" type="line" smooth="yes"/>
      <point x="480" y="0"/>
      <point x="574" y="40"/>
      <point x="574" y="155" type="curve" smooth="yes"/>
      <point x="574" y="230"/>
      <point x="527" y="279"/>
      <point x="447" y="296" type="curve"/>
      <point x="511" y="309"/>
      <point x="552" y="357"/>
      <point x="552" y="418" type="curve" smooth="yes"/>
      <point x="552" y="533"/>
      <point x="456" y="562"/>
      <point x="305" y="562" type="curve" smooth="yes"/>
    </contour>
    <contour>
      <point x="370" y="255"/>
      <point x="426" y="240"/>
      <point x="426" y="164" type="curve" smooth="yes"/>
      <point x="426" y="106"/>
      <point x="385" y="79"/>
      <point x="305" y="79" type="curve" smooth="yes"/>
      <point x="235" y="79" type="line"/>
      <point x="235" y="255" type="line"/>
      <point x="282" y="255" type="line" smooth="yes"/>
    </contour>
    <contour>
      <point x="367" y="483"/>
      <point x="410" y="462"/>
      <point x="410" y="403" type="curve" smooth="yes"/>
      <point x="410" y="348"/>
      <point x="374" y="320"/>
      <point x="303" y="320" type="curve" smooth="yes"/>
      <point x="235" y="320" type="line"/>
      <point x="235" y="483" type="line"/>
      <point x="299" y="483" type="line" smooth="yes"/>
    </contour>
  </outline>
</glyph>
<glyph name="C" format="1">
  <advance width="621"/>
  <unicode hex="0043"/>
  <outline>
    <contour>
      <point x="155" y="572"/>
      <point x="47" y="454"/>
      <point x="47" y="281" type="curve" smooth="yes"/>
      <point x="47" y="102"/>
      <point x="151" y="-11"/>
      <point x="344" y="-11" type="curve" smooth="yes"/>
      <point x="432" y="-11"/>
      <point x="508" y="8"/>
      <point x="575" y="53" type="curve"/>
      <point x="581" y="184" type="line"/>
      <point x="495" y="203" type="line"/>
      <point x="490" y="110"/>
      <point x="449" y="72"/>
      <point x="359" y="72" type="curve" smooth="yes"/>
      <point x="252" y="72"/>
      <point x="202" y="162"/>
      <point x="202" y="283" type="curve" smooth="yes"/>
      <point x="202" y="403"/>
      <point x="249" y="490"/>
      <point x="357" y="490" type="curve" smooth="yes"/>
      <point x="438" y="490"/>
      <point x="479" y="450"/>
      <point x="485" y="385" type="curve"/>
      <point x="572" y="385" type="line"/>
      <point x="572" y="560" type="line"/>
      <point x="477" y="560" type="line"/>
      <point x="475" y="523" type="line"/>
      <point x="443" y="555"/>
      <point x="378" y="572"/>
      <point x="329" y="572" type="curve" smooth="yes"/>
    </contour>
  </outline>
</glyph>
<glyph name="D" format="1">
  <advance width="680"/>
  <unicode hex="0044"/>
  <outline>
    <contour>
      <point x="28" y="562" type="line"/>
      <point x="28" y="486" type="line"/>
      <point x="49" y="486" type="line" smooth="yes"/>
      <point x="79" y="486"/>
      <point x="87" y="472"/>
      <point x="87" y="445" type="curve"/>
      <point x="88" y="123" type="line"/>
      <point x="88" y="94"/>
      <point x="82" y="77"/>
      <point x="49" y="77" type="curve" smooth="yes"/>
      <point x="28" y="77" type="line"/>
      <point x="28" y="0" type="line"/>
      <point x="277" y="0" type="line" smooth="yes"/>
      <point x="492" y="0"/>
      <point x="630" y="69"/>
      <point x="630" y="284" type="curve" smooth="yes"/>
      <point x="630" y="469"/>
      <point x="512" y="562"/>
      <point x="268" y="562" type="curve" smooth="yes"/>
    </contour>
    <contour>
      <point x="417" y="478"/>
      <point x="478" y="419"/>
      <point x="478" y="286" type="curve" smooth="yes"/>
      <point x="478" y="150"/>
      <point x="421" y="84"/>
      <point x="290" y="84" type="curve" smooth="yes"/>
      <point x="228" y="84" type="line"/>
      <point x="228" y="478" type="line"/>
      <point x="290" y="478" type="line" smooth="yes"/>
    </contour>
  </outline>
</glyph>
<glyph name="E" format="1">
  <advance width="565"/>
  <unicode hex="0045"/>
  <outline>
    <contour>
      <point x="31" y="562" type="line"/>
      <point x="31" y="487" type="line"/>
      <point x="61" y="487" type="line" smooth="yes"/>
      <point x="91" y="487"/>
      <point x="93" y="465"/>
      <point x="93" y="435" type="curve" smooth="yes"/>
      <point x="93" y="125" type="line" smooth="yes"/>
      <point x="93" y="97"/>
      <point x="90" y="77"/>
      <point x="61" y="77" type="curve" smooth="yes"/>
      <point x="30" y="77" type="line"/>
      <point x="30" y="0" type="line"/>
      <point x="522" y="0" type="line"/>
      <point x="522" y="166" type="line"/>
      <point x="439" y="166" type="line"/>
      <point x="439" y="152" type="line" smooth="yes"/>
      <point x="439" y="98"/>
      <point x="431" y="84"/>
      <point x="383" y="84" type="curve" smooth="yes"/>
      <point x="233" y="84" type="line"/>
      <point x="233" y="250" type="line"/>
      <point x="317" y="250" type="line" smooth="yes"/>
      <point x="347" y="250"/>
      <point x="351" y="243"/>
      <point x="357" y="210" type="curve"/>
      <point x="394" y="210" type="line"/>
      <point x="394" y="362" type="line"/>
      <point x="358" y="362" type="line"/>
      <point x="353" y="328"/>
      <point x="347" y="321"/>
      <point x="317" y="321" type="curve" smooth="yes"/>
      <point x="233" y="321" type="line"/>
      <point x="233" y="477" type="line"/>
      <point x="376" y="477" type="line" smooth="yes"/>
      <point x="419" y="477"/>
      <point x="437" y="474"/>
      <point x="437" y="423" type="curve" smooth="yes"/>
      <point x="437" y="405" type="line"/>
      <point x="520" y="405" type="line"/>
      <point x="520" y="562" type="line"/>
    </contour>
  </outline>
</glyph>
<glyph name="F" format="1">
  <advance width="511"/>
  <unicode hex="0046"/>
  <outline>
    <contour>
      <point x="23" y="551" type="line"/>
      <point x="23" y="476" type="line"/>
      <point x="51" y="476" type="line" smooth="yes"/>
      <point x="88" y="476"/>
      <point x="89" y="466"/>
      <point x="89" y="428" type="curve" smooth="yes"/>
      <point x="89" y="124" type="line" smooth="yes"/>
      <point x="89" y="84"/>
      <point x="87" y="75"/>
      <point x="51" y="75" type="curve" smooth="yes"/>
      <point x="22" y="75" type="line"/>
      <point x="22" y="0" type="line"/>
      <point x="32" y="0"/>
      <point x="131" y="1"/>
      <point x="145" y="1" type="curve" smooth="yes"/>
      <point x="176" y="1"/>
      <point x="283" y="0"/>
      <point x="296" y="0" type="curve"/>
      <point x="296" y="75" type="line"/>
      <point x="270" y="75" type="line" smooth="yes"/>
      <point x="238" y="75"/>
      <point x="227" y="79"/>
      <point x="227" y="110" type="curve" smooth="yes"/>
      <point x="227" y="245" type="line"/>
      <point x="302" y="245" type="line" smooth="yes"/>
      <point x="331" y="245"/>
      <point x="340" y="240"/>
      <point x="344" y="210" type="curve"/>
      <point x="375" y="210" type="line"/>
      <point x="375" y="350" type="line"/>
      <point x="344" y="350" type="line"/>
      <point x="341" y="318"/>
      <point x="331" y="315"/>
      <point x="301" y="315" type="curve" smooth="yes"/>
      <point x="227" y="315" type="line"/>
      <point x="227" y="468" type="line"/>
      <point x="370" y="468" type="line" smooth="yes"/>
      <point x="408" y="468"/>
      <point x="422" y="459"/>
      <point x="422" y="413" type="curve" smooth="yes"/>
      <point x="422" y="393" type="line"/>
      <point x="504" y="393" type="line"/>
      <point x="504" y="551" type="line"/>
    </contour>
  </outline>
</glyph>
<glyph name="G" format="1">
  <advance width="654"/>
  <unicode hex="0047"/>
  <outline>
    <contour>
      <point x="325" y="561" type="curve" smooth="yes"/>
      <point x="160" y="561"/>
      <point x="42" y="445"/>
      <point x="42" y="276" type="curve" smooth="yes"/>
      <point x="42" y="82"/>
      <point x="175" y="-11"/>
      <point x="358" y="-11" type="curve" smooth="yes"/>
      <point x="425" y="-11"/>
      <point x="498" y="3"/>
      <point x="561" y="44" type="curve"/>
      <point x="568" y="185" type="line"/>
      <point x="568" y="209"/>
      <point x="587" y="211"/>
      <point x="623" y="216" type="curve"/>
      <point x="623" y="277" type="line"/>
      <point x="594" y="276"/>
      <point x="540" y="276"/>
      <point x="515" y="276" type="curve" smooth="yes"/>
      <point x="490" y="276"/>
      <point x="402" y="277"/>
      <point x="378" y="277" type="curve"/>
      <point x="378" y="212" type="line"/>
      <point x="405" y="212" type="line" smooth="yes"/>
      <point x="445" y="212"/>
      <point x="462" y="218"/>
      <point x="462" y="184" type="curve" smooth="yes"/>
      <point x="462" y="116" type="line" smooth="yes"/>
      <point x="462" y="82"/>
      <point x="412" y="71"/>
      <point x="369" y="71" type="curve" smooth="yes"/>
      <point x="255" y="71"/>
      <point x="195" y="143"/>
      <point x="195" y="274" type="curve" smooth="yes"/>
      <point x="195" y="393"/>
      <point x="244" y="480"/>
      <point x="357" y="480" type="curve" smooth="yes"/>
      <point x="429" y="480"/>
      <point x="475" y="446"/>
      <point x="490" y="381" type="curve"/>
      <point x="576" y="381" type="line"/>
      <point x="576" y="549" type="line"/>
      <point x="482" y="549" type="line"/>
      <point x="480" y="510" type="line"/>
      <point x="441" y="546"/>
      <point x="381" y="561"/>
    </contour>
  </outline>
</glyph>
<glyph name="H" format="1">
  <advance width="679"/>
  <unicode hex="0048"/>
  <outline>
    <contour>
      <point x="647" y="551" type="line"/>
      <point x="626" y="551"/>
      <point x="540" y="550"/>
      <point x="534" y="550" type="curve" smooth="yes"/>
      <point x="500" y="550"/>
      <point x="432" y="550"/>
      <point x="392" y="551" type="curve"/>
      <point x="392" y="476" type="line"/>
      <point x="407" y="476" type="line" smooth="yes"/>
      <point x="439" y="476"/>
      <point x="450" y="472"/>
      <point x="450" y="443" type="curve" smooth="yes"/>
      <point x="450" y="318" type="line"/>
      <point x="228" y="318" type="line"/>
      <point x="228" y="435" type="line" smooth="yes"/>
      <point x="228" y="466"/>
      <point x="232" y="476"/>
      <point x="271" y="476" type="curve" smooth="yes"/>
      <point x="286" y="476" type="line"/>
      <point x="286" y="551" type="line"/>
      <point x="263" y="551"/>
      <point x="170" y="550"/>
      <point x="163" y="550" type="curve" smooth="yes"/>
      <point x="154" y="550"/>
      <point x="36" y="551"/>
      <point x="32" y="551" type="curve"/>
      <point x="32" y="476" type="line"/>
      <point x="45" y="476" type="line" smooth="yes"/>
      <point x="81" y="476"/>
      <point x="90" y="471"/>
      <point x="90" y="442" type="curve" smooth="yes"/>
      <point x="90" y="122" type="line" smooth="yes"/>
      <point x="90" y="87"/>
      <point x="85" y="75"/>
      <point x="45" y="75" type="curve" smooth="yes"/>
      <point x="32" y="75" type="line"/>
      <point x="32" y="0" type="line"/>
      <point x="41" y="0"/>
      <point x="142" y="1"/>
      <point x="155" y="1" type="curve" smooth="yes"/>
      <point x="169" y="1"/>
      <point x="275" y="0"/>
      <point x="286" y="0" type="curve"/>
      <point x="286" y="75" type="line"/>
      <point x="271" y="75" type="line" smooth="yes"/>
      <point x="237" y="75"/>
      <point x="228" y="75"/>
      <point x="228" y="109" type="curve" smooth="yes"/>
      <point x="228" y="245" type="line"/>
      <point x="450" y="245" type="line"/>
      <point x="450" y="117" type="line" smooth="yes"/>
      <point x="450" y="80"/>
      <point x="445" y="75"/>
      <point x="407" y="75" type="curve" smooth="yes"/>
      <point x="392" y="75" type="line"/>
      <point x="392" y="0" type="line"/>
      <point x="411" y="0"/>
      <point x="496" y="1"/>
      <point x="521" y="1" type="curve" smooth="yes"/>
      <point x="533" y="1"/>
      <point x="635" y="0"/>
      <point x="647" y="0" type="curve"/>
      <point x="647" y="75" type="line"/>
      <point x="634" y="75" type="line" smooth="yes"/>
      <point x="593" y="75"/>
      <point x="588" y="81"/>
      <point x="588" y="121" type="curve" smooth="yes"/>
      <point x="588" y="439" type="line" smooth="yes"/>
      <point x="588" y="469"/>
      <point x="597" y="476"/>
      <point x="634" y="476" type="curve" smooth="yes"/>
      <point x="647" y="476" type="line"/>
    </contour>
  </outline>
</glyph>
<glyph name="I" format="1">
  <advance width="326"/>
  <unicode hex="0049"/>
  <outline>
    <contour>
      <point x="255" y="561"/>
      <point x="207" y="561"/>
      <point x="169" y="561" type="curve" smooth="yes"/>
      <point x="161" y="561"/>
      <point x="58" y="561"/>
      <point x="33" y="562" type="curve"/>
      <point x="33" y="486" type="line"/>
      <point x="49" y="486" type="line" smooth="yes"/>
      <point x="90" y="486"/>
      <point x="94" y="473"/>
      <point x="94" y="436" type="curve" smooth="yes"/>
      <point x="94" y="124" type="line" smooth="yes"/>
      <point x="94" y="88"/>
      <point x="90" y="77"/>
      <point x="49" y="77" type="curve" smooth="yes"/>
      <point x="33" y="77" type="line"/>
      <point x="33" y="0" type="line"/>
      <point x="52" y="0"/>
      <point x="137" y="1"/>
      <point x="163" y="1" type="curve" smooth="yes"/>
      <point x="176" y="1"/>
      <point x="285" y="0"/>
      <point x="297" y="0" type="curve"/>
      <point x="297" y="77" type="line"/>
      <point x="278" y="77" type="line" smooth="yes"/>
      <point x="242" y="77"/>
      <point x="235" y="79"/>
      <point x="235" y="115" type="curve" smooth="yes"/>
      <point x="235" y="445" type="line" smooth="yes"/>
      <point x="235" y="476"/>
      <point x="242" y="486"/>
      <point x="278" y="486" type="curve" smooth="yes"/>
      <point x="297" y="486" type="line"/>
      <point x="297" y="562" type="line"/>
    </contour>
  </outline>
</glyph>
<glyph name="J" format="1">
  <advance width="364"/>
  <unicode hex="004A"/>
  <outline>
    <contour>
      <point x="342" y="551" type="line"/>
      <point x="311" y="550"/>
      <point x="246" y="550"/>
      <point x="226" y="550" type="curve" smooth="yes"/>
      <point x="214" y="550"/>
      <point x="116" y="551"/>
      <point x="76" y="551" type="curve"/>
      <point x="76" y="476" type="line"/>
      <point x="107" y="476" type="line" smooth="yes"/>
      <point x="139" y="476"/>
      <point x="142" y="460"/>
      <point x="142" y="431" type="curve" smooth="yes"/>
      <point x="142" y="136" type="line" smooth="yes"/>
      <point x="142" y="72"/>
      <point x="141" y="-3"/>
      <point x="83" y="-7" type="curve"/>
      <point x="64" y="-7"/>
      <point x="55" y="4"/>
      <point x="47" y="37" type="curve"/>
      <point x="8" y="40" type="line"/>
      <point x="8" y="-88" type="line"/>
      <point x="37" y="-95"/>
      <point x="64" y="-99"/>
      <point x="97" y="-99" type="curve" smooth="yes"/>
      <point x="244" y="-99"/>
      <point x="280" y="-40"/>
      <point x="280" y="113" type="curve" smooth="yes"/>
      <point x="280" y="425" type="line" smooth="yes"/>
      <point x="280" y="460"/>
      <point x="283" y="476"/>
      <point x="322" y="476" type="curve" smooth="yes"/>
      <point x="342" y="476" type="line"/>
    </contour>
  </outline>
</glyph>
<glyph name="K" format="1">
  <advance width="649"/>
  <unicode hex="004B"/>
  <outline>
    <contour>
      <point x="497" y="562" type="line" smooth="yes"/>
      <point x="495" y="562"/>
      <point x="367" y="563"/>
      <point x="364" y="563" type="curve"/>
      <point x="364" y="487" type="line"/>
      <point x="409" y="487" type="line" smooth="yes"/>
      <point x="418" y="487"/>
      <point x="430" y="489"/>
      <point x="430" y="482" type="curve" smooth="yes"/>
      <point x="430" y="479"/>
      <point x="426" y="475"/>
      <point x="420" y="470" type="curve" smooth="yes"/>
      <point x="227" y="293" type="line"/>
      <point x="227" y="438" type="line" smooth="yes"/>
      <point x="227" y="469"/>
      <point x="234" y="486"/>
      <point x="269" y="486" type="curve" smooth="yes"/>
      <point x="294" y="486" type="line"/>
      <point x="294" y="562" type="line"/>
      <point x="259" y="562"/>
      <point x="152" y="560"/>
      <point x="144" y="560" type="curve" smooth="yes"/>
      <point x="134" y="560"/>
      <point x="38" y="562"/>
      <point x="26" y="562" type="curve"/>
      <point x="26" y="486" type="line"/>
      <point x="45" y="486" type="line" smooth="yes"/>
      <point x="80" y="486"/>
      <point x="87" y="472"/>
      <point x="87" y="439" type="curve" smooth="yes"/>
      <point x="87" y="120" type="line" smooth="yes"/>
      <point x="87" y="89"/>
      <point x="82" y="77"/>
      <point x="45" y="77" type="curve" smooth="yes"/>
      <point x="26" y="77" type="line"/>
      <point x="26" y="0" type="line"/>
      <point x="28" y="0"/>
      <point x="154" y="0"/>
      <point x="157" y="0" type="curve" smooth="yes"/>
      <point x="158" y="0"/>
      <point x="274" y="-1"/>
      <point x="289" y="0" type="curve"/>
      <point x="289" y="77" type="line"/>
      <point x="269" y="77" type="line" smooth="yes"/>
      <point x="233" y="77"/>
      <point x="227" y="88"/>
      <point x="227" y="120" type="curve" smooth="yes"/>
      <point x="227" y="231" type="line"/>
      <point x="253" y="252" type="line"/>
      <point x="398" y="95" type="line" smooth="yes"/>
      <point x="404" y="87"/>
      <point x="407" y="83"/>
      <point x="407" y="81" type="curve" smooth="yes"/>
      <point x="407" y="78"/>
      <point x="402" y="77"/>
      <point x="392" y="77" type="curve" smooth="yes"/>
      <point x="357" y="77" type="line"/>
      <point x="357" y="0" type="line"/>
      <point x="359" y="0"/>
      <point x="492" y="0"/>
      <point x="495" y="0" type="curve" smooth="yes"/>
      <point x="499" y="0"/>
      <point x="630" y="0"/>
      <point x="633" y="0" type="curve"/>
      <point x="633" y="77" type="line"/>
      <point x="591" y="77"/>
      <point x="569" y="79"/>
      <point x="537" y="112" type="curve" smooth="yes"/>
      <point x="344" y="312" type="line"/>
      <point x="491" y="443" type="line" smooth="yes"/>
      <point x="528" y="476"/>
      <point x="549" y="486"/>
      <point x="597" y="487" type="curve" smooth="yes"/>
      <point x="606" y="487"/>
      <point x="614" y="487"/>
      <point x="622" y="487" type="curve"/>
      <point x="622" y="563" type="line"/>
    </contour>
  </outline>
</glyph>
<glyph name="L" format="1">
  <advance width="511"/>
  <unicode hex="004C"/>
  <outline>
    <contour>
      <point x="283" y="561"/>
      <point x="183" y="560"/>
      <point x="168" y="560" type="curve" smooth="yes"/>
      <point x="126" y="560"/>
      <point x="62" y="562"/>
      <point x="29" y="562" type="curve"/>
      <point x="29" y="486" type="line"/>
      <point x="49" y="486" type="line" smooth="yes"/>
      <point x="83" y="486"/>
      <point x="92" y="470"/>
      <point x="92" y="442" type="curve" smooth="yes"/>
      <point x="92" y="125" type="line" smooth="yes"/>
      <point x="92" y="92"/>
      <point x="87" y="77"/>
      <point x="49" y="77" type="curve" smooth="yes"/>
      <point x="29" y="77" type="line"/>
      <point x="29" y="0" type="line"/>
      <point x="496" y="0" type="line"/>
      <point x="496" y="191" type="line"/>
      <point x="417" y="191" type="line"/>
      <point x="417" y="156"/>
      <point x="416" y="131"/>
      <point x="410" y="112" type="curve" smooth="yes"/>
      <point x="404" y="94"/>
      <point x="393" y="85"/>
      <point x="370" y="85" type="curve" smooth="yes"/>
      <point x="232" y="85" type="line"/>
      <point x="232" y="437" type="line"/>
      <point x="232" y="467"/>
      <point x="238" y="486"/>
      <point x="272" y="486" type="curve" smooth="yes"/>
      <point x="300" y="486" type="line"/>
      <point x="300" y="562" type="line"/>
    </contour>
  </outline>
</glyph>
<glyph name="M" format="1">
  <advance width="817"/>
  <unicode hex="004D"/>
  <outline>
    <contour>
      <point x="786" y="551" type="line"/>
      <point x="783" y="551"/>
      <point x="684" y="550"/>
      <point x="677" y="550" type="curve" smooth="yes"/>
      <point x="669" y="550"/>
      <point x="548" y="551"/>
      <point x="538" y="551" type="curve"/>
      <point x="409" y="165" type="line"/>
      <point x="281" y="551" type="line"/>
      <point x="260" y="551"/>
      <point x="162" y="550"/>
      <point x="155" y="550" type="curve" smooth="yes"/>
      <point x="145" y="550"/>
      <point x="36" y="551"/>
      <point x="32" y="551" type="curve"/>
      <point x="32" y="476" type="line"/>
      <point x="52" y="476" type="line" smooth="yes"/>
      <point x="84" y="476"/>
      <point x="91" y="467"/>
      <point x="91" y="437" type="curve" smooth="yes"/>
      <point x="90" y="121" type="line" smooth="yes"/>
      <point x="89" y="87"/>
      <point x="88" y="75"/>
      <point x="51" y="75" type="curve" smooth="yes"/>
      <point x="30" y="75" type="line"/>
      <point x="30" y="0" type="line"/>
      <point x="38" y="0"/>
      <point x="126" y="1"/>
      <point x="138" y="1" type="curve" smooth="yes"/>
      <point x="148" y="1"/>
      <point x="232" y="0"/>
      <point x="241" y="0" type="curve"/>
      <point x="241" y="75" type="line"/>
      <point x="221" y="75" type="line" smooth="yes"/>
      <point x="189" y="75"/>
      <point x="183" y="80"/>
      <point x="183" y="112" type="curve" smooth="yes"/>
      <point x="183" y="482" type="line"/>
      <point x="354" y="0" type="line"/>
      <point x="431" y="0" type="line"/>
      <point x="604" y="484" type="line"/>
      <point x="604" y="129" type="line" smooth="yes"/>
      <point x="604" y="93"/>
      <point x="599" y="75"/>
      <point x="562" y="75" type="curve" smooth="yes"/>
      <point x="545" y="75" type="line"/>
      <point x="545" y="0" type="line"/>
      <point x="553" y="0"/>
      <point x="639" y="1"/>
      <point x="652" y="1" type="curve" smooth="yes"/>
      <point x="666" y="1"/>
      <point x="776" y="0"/>
      <point x="787" y="0" type="curve"/>
      <point x="787" y="75" type="line"/>
      <point x="766" y="75" type="line" smooth="yes"/>
      <point x="733" y="75"/>
      <point x="728" y="83"/>
      <point x="728" y="114" type="curve"/>
      <point x="727" y="447" type="line"/>
      <point x="727" y="470"/>
      <point x="733" y="476"/>
      <point x="764" y="476" type="curve" smooth="yes"/>
      <point x="786" y="476" type="line"/>
    </contour>
  </outline>
</glyph>
<glyph name="N" format="1">
  <advance width="663"/>
  <unicode hex="004E"/>
  <outline>
    <contour>
      <point x="606" y="561"/>
      <point x="571" y="561"/>
      <point x="537" y="561" type="curve"/>
      <point x="498" y="561"/>
      <point x="460" y="561"/>
      <point x="422" y="562" type="curve"/>
      <point x="422" y="486" type="line"/>
      <point x="442" y="486" type="line" smooth="yes"/>
      <point x="476" y="486"/>
      <point x="485" y="482"/>
      <point x="485" y="449" type="curve"/>
      <point x="486" y="148" type="line"/>
      <point x="485" y="148" type="line"/>
      <point x="239" y="562" type="line"/>
      <point x="23" y="562" type="line"/>
      <point x="23" y="486" type="line"/>
      <point x="46" y="486" type="line" smooth="yes"/>
      <point x="82" y="486"/>
      <point x="86" y="479"/>
      <point x="86" y="442" type="curve" smooth="yes"/>
      <point x="86" y="125" type="line" smooth="yes"/>
      <point x="86" y="88"/>
      <point x="85" y="77"/>
      <point x="45" y="77" type="curve" smooth="yes"/>
      <point x="22" y="77" type="line"/>
      <point x="22" y="0" type="line"/>
      <point x="57" y="0"/>
      <point x="125" y="1"/>
      <point x="138" y="1" type="curve" smooth="yes"/>
      <point x="159" y="1"/>
      <point x="228" y="0"/>
      <point x="245" y="0" type="curve"/>
      <point x="245" y="77" type="line"/>
      <point x="224" y="77" type="line" smooth="yes"/>
      <point x="188" y="77"/>
      <point x="180" y="79"/>
      <point x="180" y="114" type="curve" smooth="yes"/>
      <point x="180" y="424" type="line"/>
      <point x="181" y="424" type="line"/>
      <point x="439" y="-6" type="line"/>
      <point x="579" y="-6" type="line"/>
      <point x="579" y="441" type="line"/>
      <point x="579" y="472"/>
      <point x="582" y="486"/>
      <point x="618" y="486" type="curve" smooth="yes"/>
      <point x="641" y="486" type="line"/>
      <point x="641" y="562" type="line"/>
    </contour>
  </outline>
</glyph>
<glyph name="O" format="1">
  <advance width="676"/>
  <unicode hex="004F"/>
  <outline>
    <contour>
      <point x="156" y="572"/>
      <point x="43" y="455"/>
      <point x="43" y="282" type="curve" smooth="yes"/>
      <point x="43" y="107"/>
      <point x="158" y="-11"/>
      <point x="340" y="-11" type="curve" smooth="yes"/>
      <point x="519" y="-11"/>
      <point x="633" y="109"/>
      <point x="633" y="282" type="curve" smooth="yes"/>
      <point x="633" y="455"/>
      <point x="519" y="572"/>
      <point x="339" y="572" type="curve" smooth="yes"/>
    </contour>
    <contour>
      <point x="432" y="490"/>
      <point x="477" y="416"/>
      <point x="477" y="282" type="curve" smooth="yes"/>
      <point x="477" y="166"/>
      <point x="443" y="72"/>
      <point x="338" y="72" type="curve" smooth="yes"/>
      <point x="234" y="72"/>
      <point x="199" y="165"/>
      <point x="199" y="283" type="curve" smooth="yes"/>
      <point x="199" y="398"/>
      <point x="232" y="490"/>
      <point x="338" y="490" type="curve" smooth="yes"/>
    </contour>
  </outline>
</glyph>
<glyph name="P" format="1">
  <advance width="581"/>
  <unicode hex="0050"/>
  <outline>
    <contour>
      <point x="30" y="562" type="line"/>
      <point x="30" y="486" type="line"/>
      <point x="53" y="486" type="line" smooth="yes"/>
      <point x="89" y="486"/>
      <point x="96" y="472"/>
      <point x="96" y="439" type="curve" smooth="yes"/>
      <point x="96" y="125" type="line" smooth="yes"/>
      <point x="96" y="83"/>
      <point x="95" y="77"/>
      <point x="51" y="77" type="curve" smooth="yes"/>
      <point x="30" y="77" type="line"/>
      <point x="30" y="0" type="line"/>
      <point x="41" y="0"/>
      <point x="161" y="1"/>
      <point x="175" y="1" type="curve" smooth="yes"/>
      <point x="188" y="1"/>
      <point x="291" y="0"/>
      <point x="303" y="0" type="curve"/>
      <point x="303" y="77" type="line"/>
      <point x="282" y="77" type="line" smooth="yes"/>
      <point x="245" y="77"/>
      <point x="237" y="81"/>
      <point x="237" y="117" type="curve" smooth="yes"/>
      <point x="237" y="232" type="line"/>
      <point x="322" y="232" type="line" smooth="yes"/>
      <point x="469" y="232"/>
      <point x="557" y="274"/>
      <point x="557" y="395" type="curve" smooth="yes"/>
      <point x="557" y="514"/>
      <point x="465" y="562"/>
      <point x="323" y="562" type="curve" smooth="yes"/>
    </contour>
    <contour>
      <point x="372" y="483"/>
      <point x="414" y="462"/>
      <point x="414" y="396" type="curve" smooth="yes"/>
      <point x="414" y="336"/>
      <point x="378" y="307"/>
      <point x="307" y="307" type="curve" smooth="yes"/>
      <point x="237" y="307" type="line"/>
      <point x="237" y="483" type="line"/>
      <point x="299" y="483" type="line" smooth="yes"/>
    </contour>
  </outline>
</glyph>
<glyph name="Q" format="1">
  <advance width="663"/>
  <unicode hex="0051"/>
  <outline>
    <contour>
      <point x="332" y="561" type="curve" smooth="yes"/>
      <point x="155" y="561"/>
      <point x="42" y="446"/>
      <point x="42" y="276" type="curve" smooth="yes"/>
      <point x="42" y="129"/>
      <point x="128" y="15"/>
      <point x="272" y="-5" type="curve"/>
      <point x="245" y="-8"/>
      <point x="227" y="-14"/>
      <point x="211" y="-34" type="curve"/>
      <point x="241" y="-87" type="line"/>
      <point x="251" y="-76"/>
      <point x="268" y="-71"/>
      <point x="285" y="-71" type="curve" smooth="yes"/>
      <point x="401" y="-71"/>
      <point x="420" y="-147"/>
      <point x="536" y="-147" type="curve" smooth="yes"/>
      <point x="539" y="-147"/>
      <point x="550" y="-147"/>
      <point x="553" y="-147" type="curve"/>
      <point x="581" y="-53" type="line"/>
      <point x="452" y="-53"/>
      <point x="488" y="-36"/>
      <point x="366" y="-8" type="curve"/>
      <point x="366" y="-8" type="line"/>
      <point x="524" y="5"/>
      <point x="621" y="125"/>
      <point x="621" y="276" type="curve" smooth="yes"/>
      <point x="621" y="444"/>
      <point x="509" y="561"/>
    </contour>
    <contour>
      <point x="331" y="480" type="curve" smooth="yes"/>
      <point x="434" y="480"/>
      <point x="468" y="390"/>
      <point x="468" y="277" type="curve" smooth="yes"/>
      <point x="468" y="163"/>
      <point x="434" y="71"/>
      <point x="331" y="71" type="curve" smooth="yes"/>
      <point x="229" y="71"/>
      <point x="195" y="163"/>
      <point x="195" y="277" type="curve" smooth="yes"/>
      <point x="195" y="389"/>
      <point x="228" y="480"/>
    </contour>
  </outline>
</glyph>
<glyph name="R" format="1">
  <advance width="621"/>
  <unicode hex="0052"/>
  <outline>
    <contour>
      <point x="29" y="551" type="line"/>
      <point x="29" y="476" type="line"/>
      <point x="41" y="476" type="line" smooth="yes"/>
      <point x="84" y="476"/>
      <point x="91" y="471"/>
      <point x="91" y="432" type="curve" smooth="yes"/>
      <point x="91" y="118" type="line" smooth="yes"/>
      <point x="91" y="83"/>
      <point x="86" y="75"/>
      <point x="43" y="75" type="curve" smooth="yes"/>
      <point x="29" y="75" type="line"/>
      <point x="29" y="0" type="line"/>
      <point x="39" y="0"/>
      <point x="141" y="1"/>
      <point x="154" y="1" type="curve" smooth="yes"/>
      <point x="181" y="1"/>
      <point x="278" y="0"/>
      <point x="289" y="0" type="curve"/>
      <point x="289" y="75" type="line"/>
      <point x="270" y="75" type="line" smooth="yes"/>
      <point x="240" y="75"/>
      <point x="229" y="77"/>
      <point x="229" y="105" type="curve" smooth="yes"/>
      <point x="229" y="247" type="line"/>
      <point x="266" y="247" type="line" smooth="yes"/>
      <point x="340" y="247"/>
      <point x="351" y="222"/>
      <point x="367" y="139" type="curve" smooth="yes"/>
      <point x="385" y="43"/>
      <point x="420" y="-11"/>
      <point x="512" y="-11" type="curve" smooth="yes"/>
      <point x="634" y="-11"/>
      <point x="629" y="89"/>
      <point x="629" y="114" type="curve"/>
      <point x="580" y="108" type="line"/>
      <point x="580" y="81"/>
      <point x="570" y="71"/>
      <point x="550" y="71" type="curve" smooth="yes"/>
      <point x="520" y="71"/>
      <point x="514" y="109"/>
      <point x="506" y="152" type="curve"/>
      <point x="497" y="214"/>
      <point x="476" y="252"/>
      <point x="432" y="273" type="curve"/>
      <point x="499" y="288"/>
      <point x="544" y="334"/>
      <point x="544" y="399" type="curve" smooth="yes"/>
      <point x="544" y="535"/>
      <point x="411" y="551"/>
      <point x="298" y="551" type="curve" smooth="yes"/>
    </contour>
    <contour>
      <point x="281" y="474" type="line" smooth="yes"/>
      <point x="356" y="474"/>
      <point x="404" y="461"/>
      <point x="404" y="390" type="curve" smooth="yes"/>
      <point x="404" y="324"/>
      <point x="364" y="308"/>
      <point x="294" y="308" type="curve" smooth="yes"/>
      <point x="229" y="308" type="line"/>
      <point x="229" y="474" type="line"/>
    </contour>
  </outline>
</glyph>
<glyph name="S" format="1">
  <advance width="515"/>
  <unicode hex="0053"/>
  <outline>
    <contour>
      <point x="121" y="572"/>
      <point x="42" y="512"/>
      <point x="42" y="413" type="curve" smooth="yes"/>
      <point x="42" y="302"/>
      <point x="149" y="262"/>
      <point x="238" y="233" type="curve" smooth="yes"/>
      <point x="281" y="217"/>
      <point x="346" y="193"/>
      <point x="346" y="139" type="curve" smooth="yes"/>
      <point x="346" y="89"/>
      <point x="305" y="62"/>
      <point x="249" y="62" type="curve" smooth="yes"/>
      <point x="148" y="62"/>
      <point x="138" y="117"/>
      <point x="124" y="174" type="curve"/>
      <point x="42" y="174" type="line"/>
      <point x="42" y="0" type="line"/>
      <point x="136" y="0" type="line"/>
      <point x="136" y="42" type="line"/>
      <point x="172" y="7"/>
      <point x="233" y="-11"/>
      <point x="286" y="-11" type="curve" smooth="yes"/>
      <point x="395" y="-11"/>
      <point x="478" y="56"/>
      <point x="478" y="156" type="curve" smooth="yes"/>
      <point x="478" y="260"/>
      <point x="406" y="299"/>
      <point x="285" y="341" type="curve" smooth="yes"/>
      <point x="239" y="356"/>
      <point x="168" y="380"/>
      <point x="168" y="435" type="curve" smooth="yes"/>
      <point x="168" y="480"/>
      <point x="209" y="505"/>
      <point x="260" y="505" type="curve" smooth="yes"/>
      <point x="367" y="505"/>
      <point x="363" y="438"/>
      <point x="374" y="405" type="curve"/>
      <point x="457" y="405" type="line"/>
      <point x="457" y="562" type="line"/>
      <point x="376" y="562" type="line"/>
      <point x="377" y="527" type="line"/>
      <point x="333" y="562"/>
      <point x="282" y="572"/>
      <point x="231" y="572" type="curve" smooth="yes"/>
    </contour>
  </outline>
</glyph>
<glyph name="T" format="1">
  <advance width="568"/>
  <unicode hex="0054"/>
  <outline>
    <contour>
      <point x="532" y="562"/>
      <point x="520" y="562"/>
      <point x="24" y="562" type="curve"/>
      <point x="24" y="372" type="line"/>
      <point x="92" y="372" type="line"/>
      <point x="92" y="444" type="line"/>
      <point x="92" y="474"/>
      <point x="105" y="477"/>
      <point x="146" y="477" type="curve" smooth="yes"/>
      <point x="214" y="477" type="line"/>
      <point x="214" y="125" type="line" smooth="yes"/>
      <point x="214" y="94"/>
      <point x="210" y="77"/>
      <point x="173" y="77" type="curve" smooth="yes"/>
      <point x="150" y="77" type="line"/>
      <point x="150" y="0" type="line"/>
      <point x="160" y="0"/>
      <point x="276" y="1"/>
      <point x="287" y="1" type="curve" smooth="yes"/>
      <point x="316" y="1"/>
      <point x="409" y="0"/>
      <point x="420" y="0" type="curve"/>
      <point x="420" y="77" type="line"/>
      <point x="397" y="77" type="line" smooth="yes"/>
      <point x="367" y="77"/>
      <point x="355" y="87"/>
      <point x="355" y="109" type="curve" smooth="yes"/>
      <point x="355" y="477" type="line"/>
      <point x="409" y="477" type="line" smooth="yes"/>
      <point x="463" y="477"/>
      <point x="476" y="477"/>
      <point x="476" y="429" type="curve" smooth="yes"/>
      <point x="476" y="372" type="line"/>
      <point x="544" y="372" type="line"/>
      <point x="544" y="562" type="line"/>
    </contour>
  </outline>
</glyph>
<glyph name="U" format="1">
  <advance width="606"/>
  <unicode hex="0055"/>
  <outline>
    <contour>
      <point x="554" y="561"/>
      <point x="520" y="561"/>
      <point x="488" y="561" type="curve" smooth="yes"/>
      <point x="449" y="561"/>
      <point x="410" y="561"/>
      <point x="372" y="562" type="curve"/>
      <point x="372" y="486" type="line"/>
      <point x="388" y="486" type="line" smooth="yes"/>
      <point x="424" y="486"/>
      <point x="431" y="470"/>
      <point x="431" y="441" type="curve" smooth="yes"/>
      <point x="431" y="208" type="line" smooth="yes"/>
      <point x="431" y="122"/>
      <point x="411" y="72"/>
      <point x="328" y="72" type="curve" smooth="yes"/>
      <point x="242" y="72"/>
      <point x="215" y="122"/>
      <point x="215" y="213" type="curve" smooth="yes"/>
      <point x="215" y="438" type="line" smooth="yes"/>
      <point x="215" y="468"/>
      <point x="221" y="486"/>
      <point x="258" y="486" type="curve" smooth="yes"/>
      <point x="271" y="486" type="line"/>
      <point x="271" y="562" type="line"/>
      <point x="225" y="561"/>
      <point x="179" y="561"/>
      <point x="133" y="560" type="curve" smooth="yes"/>
      <point x="95" y="561"/>
      <point x="57" y="561"/>
      <point x="20" y="562" type="curve"/>
      <point x="20" y="486" type="line"/>
      <point x="39" y="486" type="line" smooth="yes"/>
      <point x="67" y="486"/>
      <point x="77" y="474"/>
      <point x="77" y="452" type="curve" smooth="yes"/>
      <point x="77" y="212" type="line" smooth="yes"/>
      <point x="77" y="58"/>
      <point x="147" y="-11"/>
      <point x="306" y="-11" type="curve" smooth="yes"/>
      <point x="463" y="-11"/>
      <point x="530" y="62"/>
      <point x="530" y="214" type="curve" smooth="yes"/>
      <point x="530" y="438" type="line" smooth="yes"/>
      <point x="530" y="462"/>
      <point x="528" y="486"/>
      <point x="567" y="486" type="curve" smooth="yes"/>
      <point x="588" y="486" type="line"/>
      <point x="588" y="562" type="line"/>
    </contour>
  </outline>
</glyph>
<glyph name="V" format="1">
  <advance width="591"/>
  <unicode hex="0056"/>
  <outline>
    <contour>
      <point x="590" y="551" type="line"/>
      <point x="555" y="550"/>
      <point x="521" y="550"/>
      <point x="487" y="550" type="curve" smooth="yes"/>
      <point x="451" y="550"/>
      <point x="416" y="550"/>
      <point x="380" y="551" type="curve"/>
      <point x="380" y="476" type="line"/>
      <point x="397" y="476" type="line" smooth="yes"/>
      <point x="419" y="476"/>
      <point x="438" y="474"/>
      <point x="438" y="458" type="curve" smooth="yes"/>
      <point x="438" y="453"/>
      <point x="436" y="447"/>
      <point x="433" y="438" type="curve" smooth="yes"/>
      <point x="315" y="109" type="line"/>
      <point x="191" y="439" type="line"/>
      <point x="188" y="446"/>
      <point x="187" y="451"/>
      <point x="187" y="455" type="curve" smooth="yes"/>
      <point x="187" y="472"/>
      <point x="210" y="477"/>
      <point x="230" y="476" type="curve" smooth="yes"/>
      <point x="245" y="476" type="line"/>
      <point x="245" y="551" type="line"/>
      <point x="197" y="550"/>
      <point x="149" y="550"/>
      <point x="101" y="549" type="curve" smooth="yes"/>
      <point x="8" y="551"/>
      <point x="3" y="551"/>
      <point x="1" y="551" type="curve"/>
      <point x="1" y="476" type="line"/>
      <point x="44" y="476"/>
      <point x="50" y="458"/>
      <point x="67" y="417" type="curve" smooth="yes"/>
      <point x="237" y="-6" type="line"/>
      <point x="364" y="-6" type="line"/>
      <point x="506" y="371" type="line" smooth="yes"/>
      <point x="521" y="410"/>
      <point x="530" y="437"/>
      <point x="541" y="453" type="curve" smooth="yes"/>
      <point x="553" y="469"/>
      <point x="566" y="476"/>
      <point x="590" y="476" type="curve"/>
    </contour>
  </outline>
</glyph>
<glyph name="W" format="1">
  <advance width="851"/>
  <unicode hex="0057"/>
  <outline>
    <contour>
      <point x="849" y="551" type="line"/>
      <point x="845" y="551"/>
      <point x="751" y="550"/>
      <point x="745" y="550" type="curve" smooth="yes"/>
      <point x="717" y="550"/>
      <point x="685" y="550"/>
      <point x="641" y="551" type="curve"/>
      <point x="641" y="476" type="line"/>
      <point x="657" y="476" type="line"/>
      <point x="683" y="475"/>
      <point x="696" y="472"/>
      <point x="696" y="458" type="curve"/>
      <point x="696" y="448"/>
      <point x="693" y="440"/>
      <point x="691" y="433" type="curve" smooth="yes"/>
      <point x="608" y="100" type="line"/>
      <point x="496" y="518" type="line"/>
      <point x="384" y="518" type="line"/>
      <point x="273" y="100" type="line"/>
      <point x="191" y="426" type="line"/>
      <point x="188" y="436"/>
      <point x="187" y="445"/>
      <point x="187" y="452" type="curve" smooth="yes"/>
      <point x="187" y="478"/>
      <point x="206" y="475"/>
      <point x="242" y="476" type="curve"/>
      <point x="242" y="551" type="line"/>
      <point x="193" y="550"/>
      <point x="158" y="550"/>
      <point x="126" y="550" type="curve" smooth="yes"/>
      <point x="123" y="550"/>
      <point x="21" y="550"/>
      <point x="3" y="551" type="curve"/>
      <point x="3" y="476" type="line"/>
      <point x="16" y="476"/>
      <point x="25" y="475"/>
      <point x="32" y="474" type="curve" smooth="yes"/>
      <point x="45" y="472"/>
      <point x="52" y="463"/>
      <point x="57" y="443" type="curve"/>
      <point x="191" y="-6" type="line"/>
      <point x="325" y="-6" type="line"/>
      <point x="426" y="394" type="line"/>
      <point x="528" y="-6" type="line"/>
      <point x="657" y="-6" type="line"/>
      <point x="779" y="409" type="line" smooth="yes"/>
      <point x="794" y="460"/>
      <point x="802" y="475"/>
      <point x="849" y="476" type="curve"/>
    </contour>
  </outline>
</glyph>
<glyph name="X" format="1">
  <advance width="711"/>
  <unicode hex="0058"/>
  <outline>
    <contour>
      <point x="642" y="561"/>
      <point x="578" y="561"/>
      <point x="544" y="561" type="curve" smooth="yes"/>
      <point x="495" y="560"/>
      <point x="421" y="562"/>
      <point x="410" y="562" type="curve"/>
      <point x="410" y="486" type="line"/>
      <point x="428" y="485"/>
      <point x="443" y="483"/>
      <point x="452" y="483" type="curve" smooth="yes"/>
      <point x="462" y="481"/>
      <point x="466" y="478"/>
      <point x="466" y="474" type="curve" smooth="yes"/>
      <point x="466" y="473"/>
      <point x="464" y="470"/>
      <point x="460" y="466" type="curve"/>
      <point x="364" y="351" type="line"/>
      <point x="281" y="443" type="line"/>
      <point x="272" y="451"/>
      <point x="256" y="469"/>
      <point x="256" y="474" type="curve" smooth="yes"/>
      <point x="256" y="486"/>
      <point x="273" y="486"/>
      <point x="293" y="486" type="curve" smooth="yes"/>
      <point x="311" y="486" type="line"/>
      <point x="311" y="562" type="line"/>
      <point x="261" y="562"/>
      <point x="212" y="561"/>
      <point x="162" y="561" type="curve" smooth="yes"/>
      <point x="114" y="561"/>
      <point x="66" y="562"/>
      <point x="18" y="562" type="curve"/>
      <point x="18" y="486" type="line"/>
      <point x="43" y="485"/>
      <point x="57" y="485"/>
      <point x="70" y="478" type="curve" smooth="yes"/>
      <point x="85" y="471"/>
      <point x="98" y="458"/>
      <point x="122" y="432" type="curve" smooth="yes"/>
      <point x="265" y="277" type="line"/>
      <point x="119" y="125" type="line" smooth="yes"/>
      <point x="96" y="103"/>
      <point x="82" y="90"/>
      <point x="66" y="84" type="curve" smooth="yes"/>
      <point x="51" y="78"/>
      <point x="37" y="77"/>
      <point x="14" y="77" type="curve"/>
      <point x="14" y="0" type="line"/>
      <point x="92" y="0"/>
      <point x="97" y="1"/>
      <point x="167" y="1" type="curve" smooth="yes"/>
      <point x="211" y="1"/>
      <point x="261" y="0"/>
      <point x="294" y="0" type="curve"/>
      <point x="294" y="77" type="line"/>
      <point x="275" y="77"/>
      <point x="260" y="77"/>
      <point x="250" y="78" type="curve" smooth="yes"/>
      <point x="239" y="80"/>
      <point x="233" y="83"/>
      <point x="233" y="90" type="curve" smooth="yes"/>
      <point x="233" y="93"/>
      <point x="235" y="98"/>
      <point x="239" y="104" type="curve"/>
      <point x="340" y="222" type="line"/>
      <point x="435" y="110" type="line" smooth="yes"/>
      <point x="442" y="102"/>
      <point x="446" y="94"/>
      <point x="446" y="91" type="curve" smooth="yes"/>
      <point x="446" y="85"/>
      <point x="441" y="81"/>
      <point x="429" y="79" type="curve" smooth="yes"/>
      <point x="418" y="77"/>
      <point x="404" y="77"/>
      <point x="387" y="77" type="curve"/>
      <point x="387" y="0" type="line"/>
      <point x="413" y="0"/>
      <point x="520" y="1"/>
      <point x="550" y="1" type="curve" smooth="yes"/>
      <point x="576" y="1"/>
      <point x="671" y="0"/>
      <point x="695" y="0" type="curve"/>
      <point x="695" y="77" type="line"/>
      <point x="665" y="77"/>
      <point x="647" y="81"/>
      <point x="630" y="90" type="curve" smooth="yes"/>
      <point x="614" y="100"/>
      <point x="601" y="114"/>
      <point x="583" y="135" type="curve" smooth="yes"/>
      <point x="434" y="295" type="line"/>
      <point x="590" y="466" type="line" smooth="yes"/>
      <point x="598" y="478"/>
      <point x="609" y="485"/>
      <point x="623" y="488" type="curve" smooth="yes"/>
      <point x="638" y="492"/>
      <point x="656" y="492"/>
      <point x="679" y="492" type="curve"/>
      <point x="680" y="562" type="line"/>
    </contour>
  </outline>
</glyph>
<glyph name="Y" format="1">
  <advance width="567"/>
  <unicode hex="0059"/>
  <outline>
    <contour>
      <point x="528" y="561"/>
      <point x="496" y="561"/>
      <point x="467" y="561" type="curve" smooth="yes"/>
      <point x="462" y="561"/>
      <point x="369" y="561"/>
      <point x="351" y="562" type="curve"/>
      <point x="351" y="486" type="line"/>
      <point x="364" y="485" type="line"/>
      <point x="380" y="485"/>
      <point x="401" y="483"/>
      <point x="401" y="472" type="curve" smooth="yes"/>
      <point x="401" y="464"/>
      <point x="394" y="453"/>
      <point x="385" y="439" type="curve" smooth="yes"/>
      <point x="300" y="299" type="line"/>
      <point x="209" y="458" type="line" smooth="yes"/>
      <point x="208" y="461"/>
      <point x="205" y="466"/>
      <point x="205" y="470" type="curve" smooth="yes"/>
      <point x="205" y="486"/>
      <point x="222" y="486"/>
      <point x="244" y="486" type="curve" smooth="yes"/>
      <point x="257" y="486" type="line"/>
      <point x="257" y="562" type="line"/>
      <point x="172" y="562"/>
      <point x="203" y="561"/>
      <point x="123" y="561" type="curve"/>
      <point x="93" y="561"/>
      <point x="37" y="562"/>
      <point x="7" y="562" type="curve"/>
      <point x="7" y="486" type="line"/>
      <point x="42" y="485"/>
      <point x="51" y="475"/>
      <point x="61" y="463" type="curve"/>
      <point x="214" y="230" type="line"/>
      <point x="214" y="115" type="line" smooth="yes"/>
      <point x="214" y="87"/>
      <point x="207" y="77"/>
      <point x="171" y="77" type="curve" smooth="yes"/>
      <point x="151" y="77" type="line"/>
      <point x="151" y="0" type="line"/>
      <point x="157" y="0"/>
      <point x="267" y="1"/>
      <point x="278" y="1" type="curve" smooth="yes"/>
      <point x="307" y="1"/>
      <point x="405" y="0"/>
      <point x="415" y="0" type="curve"/>
      <point x="415" y="77" type="line"/>
      <point x="394" y="77" type="line" smooth="yes"/>
      <point x="358" y="77"/>
      <point x="352" y="85"/>
      <point x="352" y="116" type="curve" smooth="yes"/>
      <point x="352" y="228" type="line"/>
      <point x="495" y="446" type="line"/>
      <point x="516" y="478"/>
      <point x="521" y="486"/>
      <point x="560" y="486" type="curve"/>
      <point x="560" y="562" type="line"/>
    </contour>
  </outline>
</glyph>
<glyph name="bracketleft" format="1">
  <advance width="340"/>
  <unicode hex="005B"/>
  <outline>
    <contour>
      <point x="68" y="551" type="line"/>
      <point x="68" y="-125" type="line"/>
      <point x="309" y="-125" type="line"/>
      <point x="309" y="-35" type="line"/>
      <point x="194" y="-35" type="line"/>
      <point x="194" y="460" type="line"/>
      <point x="310" y="460" type="line"/>
      <point x="310" y="551" type="line"/>
    </contour>
  </outline>
</glyph>
<glyph name="backslash" format="1">
  <advance width="216"/>
  <unicode hex="005C"/>
  <outline>
    <contour>
      <point x="-11" y="568" type="line"/>
      <point x="159" y="-41" type="line"/>
      <point x="237" y="-41" type="line"/>
      <point x="66" y="568" type="line"/>
    </contour>
  </outline>
</glyph>
<glyph name="bracketright" format="1">
  <advance width="340"/>
  <unicode hex="005D"/>
  <outline>
    <contour>
      <point x="30" y="551" type="line"/>
      <point x="30" y="460" type="line"/>
      <point x="146" y="460" type="line"/>
      <point x="146" y="-35" type="line"/>
      <point x="29" y="-35" type="line"/>
      <point x="29" y="-125" type="line"/>
      <point x="272" y="-125" type="line"/>
      <point x="272" y="551" type="line"/>
    </contour>
  </outline>
</glyph>
<glyph name="asciicircum" format="1">
  <advance width="740"/>
  <unicode hex="005E"/>
  <outline>
    <contour>
      <point x="327" y="613" type="line"/>
      <point x="125" y="343" type="line"/>
      <point x="201" y="338" type="line"/>
      <point x="369" y="527" type="line"/>
      <point x="537" y="338" type="line"/>
      <point x="613" y="343" type="line"/>
      <point x="414" y="613" type="line"/>
    </contour>
  </outline>
</glyph>
<glyph name="underscore" format="1">
  <advance width="440"/>
  <unicode hex="005F"/>
  <outline>
    <contour>
      <point x="-3" y="-103" type="line"/>
      <point x="-3" y="-157" type="line"/>
      <point x="443" y="-157" type="line"/>
      <point x="443" y="-103" type="line"/>
    </contour>
  </outline>
</glyph>
<glyph name="grave" format="1">
  <advance width="366"/>
  <unicode hex="0060"/>
  <outline>
    <contour>
      <point x="88" y="605"/>
      <point x="42" y="588"/>
      <point x="42" y="580" type="curve"/>
      <point x="42" y="578"/>
      <point x="46" y="573"/>
      <point x="53" y="567" type="curve" smooth="yes"/>
      <point x="81" y="543"/>
      <point x="191" y="461"/>
      <point x="203" y="450" type="curve"/>
      <point x="262" y="450" type="line"/>
      <point x="161" y="587" type="line" smooth="yes"/>
      <point x="151" y="600"/>
      <point x="133" y="605"/>
      <point x="113" y="605" type="curve" smooth="yes"/>
    </contour>
  </outline>
</glyph>
<glyph name="a" format="1">
  <advance width="506"/>
  <unicode hex="0061"/>
  <outline>
    <contour>
      <point x="235" y="394" type="curve" smooth="yes"/>
      <point x="171" y="394"/>
      <point x="105" y="385"/>
      <point x="64" y="367" type="curve"/>
      <point x="62" y="282" type="line"/>
      <point x="131" y="276" type="line"/>
      <point x="141" y="317"/>
      <point x="172" y="337"/>
      <point x="223" y="337" type="curve" smooth="yes"/>
      <point x="285" y="337"/>
      <point x="313" y="310"/>
      <point x="313" y="267" type="curve" smooth="yes"/>
      <point x="313" y="219" type="line"/>
      <point x="281" y="227"/>
      <point x="243" y="232"/>
      <point x="207" y="232" type="curve" smooth="yes"/>
      <point x="109" y="232"/>
      <point x="27" y="195"/>
      <point x="27" y="109" type="curve" smooth="yes"/>
      <point x="27" y="34"/>
      <point x="88" y="-10"/>
      <point x="173" y="-10" type="curve" smooth="yes"/>
      <point x="239" y="-10"/>
      <point x="290" y="7"/>
      <point x="319" y="53" type="curve"/>
      <point x="332" y="-1" type="line"/>
      <point x="340" y="-1"/>
      <point x="397" y="0"/>
      <point x="412" y="0" type="curve" smooth="yes"/>
      <point x="416" y="0"/>
      <point x="493" y="0"/>
      <point x="495" y="0" type="curve"/>
      <point x="495" y="67" type="line"/>
      <point x="475" y="67" type="line" smooth="yes"/>
      <point x="442" y="67"/>
      <point x="442" y="76"/>
      <point x="442" y="115" type="curve" smooth="yes"/>
      <point x="442" y="253" type="line" smooth="yes"/>
      <point x="442" y="367"/>
      <point x="363" y="394"/>
    </contour>
    <contour>
      <point x="243" y="188" type="curve" smooth="yes"/>
      <point x="267" y="188"/>
      <point x="290" y="185"/>
      <point x="313" y="179" type="curve"/>
      <point x="313" y="135" type="line" smooth="yes"/>
      <point x="313" y="86"/>
      <point x="274" y="58"/>
      <point x="222" y="58" type="curve" smooth="yes"/>
      <point x="184" y="58"/>
      <point x="150" y="81"/>
      <point x="150" y="119" type="curve" smooth="yes"/>
      <point x="150" y="163"/>
      <point x="184" y="188"/>
    </contour>
  </outline>
</glyph>
<glyph name="b" format="1">
  <advance width="565"/>
  <unicode hex="0062"/>
  <outline>
    <contour>
      <point x="202" y="553" type="line"/>
      <point x="188" y="553"/>
      <point x="35" y="550"/>
      <point x="18" y="551" type="curve"/>
      <point x="18" y="483" type="line"/>
      <point x="52" y="483"/>
      <point x="73" y="482"/>
      <point x="73" y="450" type="curve" smooth="yes"/>
      <point x="73" y="103" type="line" smooth="yes"/>
      <point x="73" y="83"/>
      <point x="66" y="68"/>
      <point x="43" y="67" type="curve" smooth="yes"/>
      <point x="19" y="67" type="line"/>
      <point x="19" y="0" type="line"/>
      <point x="85" y="0"/>
      <point x="109" y="0"/>
      <point x="113" y="0" type="curve" smooth="yes"/>
      <point x="130" y="0"/>
      <point x="177" y="-1"/>
      <point x="197" y="-1" type="curve"/>
      <point x="197" y="54" type="line"/>
      <point x="229" y="12"/>
      <point x="273" y="-10"/>
      <point x="337" y="-10" type="curve" smooth="yes"/>
      <point x="454" y="-10"/>
      <point x="529" y="75"/>
      <point x="529" y="191" type="curve" smooth="yes"/>
      <point x="529" y="314"/>
      <point x="453" y="392"/>
      <point x="333" y="392" type="curve" smooth="yes"/>
      <point x="279" y="392"/>
      <point x="234" y="374"/>
      <point x="202" y="340" type="curve"/>
    </contour>
    <contour>
      <point x="298" y="321" type="curve" smooth="yes"/>
      <point x="365" y="321"/>
      <point x="398" y="266"/>
      <point x="398" y="192" type="curve" smooth="yes"/>
      <point x="398" y="110"/>
      <point x="362" y="64"/>
      <point x="299" y="64" type="curve" smooth="yes"/>
      <point x="234" y="64"/>
      <point x="198" y="112"/>
      <point x="198" y="191" type="curve" smooth="yes"/>
      <point x="198" y="265"/>
      <point x="229" y="321"/>
    </contour>
  </outline>
</glyph>
<glyph name="c" format="1">
  <advance width="485"/>
  <unicode hex="0063"/>
  <outline>
    <contour>
      <point x="182" y="398"/>
      <point x="131" y="376"/>
      <point x="95" y="341" type="curve" smooth="yes"/>
      <point x="58" y="304"/>
      <point x="35" y="253"/>
      <point x="35" y="193" type="curve" smooth="yes"/>
      <point x="35" y="131"/>
      <point x="57" y="79"/>
      <point x="96" y="45" type="curve" smooth="yes"/>
      <point x="135" y="11"/>
      <point x="191" y="-10"/>
      <point x="258" y="-10" type="curve" smooth="yes"/>
      <point x="311" y="-10"/>
      <point x="356" y="3"/>
      <point x="390" y="24" type="curve" smooth="yes"/>
      <point x="423" y="46"/>
      <point x="445" y="81"/>
      <point x="453" y="123" type="curve"/>
      <point x="361" y="136" type="line"/>
      <point x="353" y="90"/>
      <point x="323" y="59"/>
      <point x="274" y="59" type="curve" smooth="yes"/>
      <point x="242" y="59"/>
      <point x="215" y="72"/>
      <point x="198" y="96" type="curve" smooth="yes"/>
      <point x="180" y="120"/>
      <point x="169" y="150"/>
      <point x="169" y="193" type="curve" smooth="yes"/>
      <point x="169" y="235"/>
      <point x="179" y="270"/>
      <point x="196" y="295" type="curve" smooth="yes"/>
      <point x="213" y="319"/>
      <point x="239" y="334"/>
      <point x="271" y="334" type="curve" smooth="yes"/>
      <point x="323" y="334"/>
      <point x="356" y="304"/>
      <point x="364" y="241" type="curve"/>
      <point x="439" y="241" type="line"/>
      <point x="439" y="387" type="line"/>
      <point x="426" y="388"/>
      <point x="413" y="389"/>
      <point x="399" y="389" type="curve" smooth="yes"/>
      <point x="385" y="390"/>
      <point x="370" y="391"/>
      <point x="360" y="391" type="curve"/>
      <point x="355" y="359" type="line"/>
      <point x="322" y="388"/>
      <point x="279" y="398"/>
      <point x="237" y="398" type="curve" smooth="yes"/>
    </contour>
  </outline>
</glyph>
<glyph name="d" format="1">
  <advance width="567"/>
  <unicode hex="0064"/>
  <outline>
    <contour>
      <point x="490" y="553" type="line"/>
      <point x="474" y="553"/>
      <point x="411" y="551"/>
      <point x="394" y="550" type="curve" smooth="yes"/>
      <point x="374" y="550"/>
      <point x="317" y="550"/>
      <point x="300" y="551" type="curve"/>
      <point x="300" y="483" type="line"/>
      <point x="319" y="483" type="line"/>
      <point x="346" y="483"/>
      <point x="361" y="483"/>
      <point x="361" y="457" type="curve" smooth="yes"/>
      <point x="361" y="340" type="line"/>
      <point x="328" y="374"/>
      <point x="286" y="392"/>
      <point x="232" y="392" type="curve" smooth="yes"/>
      <point x="110" y="392"/>
      <point x="35" y="314"/>
      <point x="35" y="190" type="curve" smooth="yes"/>
      <point x="35" y="73"/>
      <point x="109" y="-10"/>
      <point x="226" y="-10" type="curve" smooth="yes"/>
      <point x="291" y="-10"/>
      <point x="339" y="15"/>
      <point x="366" y="53" type="curve"/>
      <point x="366" y="-1" type="line"/>
      <point x="384" y="-1"/>
      <point x="451" y="0"/>
      <point x="469" y="0" type="curve" smooth="yes"/>
      <point x="487" y="0"/>
      <point x="532" y="0"/>
      <point x="544" y="0" type="curve"/>
      <point x="545" y="67" type="line"/>
      <point x="525" y="67" type="line" smooth="yes"/>
      <point x="498" y="67"/>
      <point x="490" y="78"/>
      <point x="490" y="94" type="curve" smooth="yes"/>
    </contour>
    <contour>
      <point x="265" y="321" type="curve" smooth="yes"/>
      <point x="333" y="321"/>
      <point x="365" y="264"/>
      <point x="365" y="192" type="curve" smooth="yes"/>
      <point x="365" y="118"/>
      <point x="335" y="64"/>
      <point x="265" y="64" type="curve" smooth="yes"/>
      <point x="197" y="64"/>
      <point x="166" y="118"/>
      <point x="166" y="192" type="curve" smooth="yes"/>
      <point x="166" y="265"/>
      <point x="197" y="321"/>
    </contour>
  </outline>
</glyph>
<glyph name="e" format="1">
  <advance width="514"/>
  <unicode hex="0065"/>
  <outline>
    <contour>
      <point x="125" y="402"/>
      <point x="34" y="325"/>
      <point x="34" y="194" type="curve" smooth="yes"/>
      <point x="34" y="63"/>
      <point x="123" y="-10"/>
      <point x="268" y="-10" type="curve" smooth="yes"/>
      <point x="376" y="-10"/>
      <point x="451" y="30"/>
      <point x="473" y="108" type="curve"/>
      <point x="375" y="116" type="line"/>
      <point x="361" y="85"/>
      <point x="326" y="59"/>
      <point x="277" y="59" type="curve" smooth="yes"/>
      <point x="209" y="59"/>
      <point x="167" y="96"/>
      <point x="166" y="179" type="curve"/>
      <point x="481" y="179" type="line"/>
      <point x="481" y="319"/>
      <point x="400" y="402"/>
      <point x="260" y="402" type="curve" smooth="yes"/>
    </contour>
    <contour>
      <point x="344" y="339"/>
      <point x="359" y="268"/>
      <point x="359" y="234" type="curve"/>
      <point x="168" y="235" type="line"/>
      <point x="172" y="299"/>
      <point x="207" y="339"/>
      <point x="266" y="339" type="curve" smooth="yes"/>
    </contour>
  </outline>
</glyph>
<glyph name="f" format="1">
  <advance width="320"/>
  <unicode hex="0066"/>
  <outline>
    <contour>
      <point x="141" y="574"/>
      <point x="84" y="523"/>
      <point x="84" y="417" type="curve" smooth="yes"/>
      <point x="84" y="390" type="line"/>
      <point x="22" y="390" type="line"/>
      <point x="22" y="321" type="line"/>
      <point x="84" y="321" type="line"/>
      <point x="84" y="104" type="line" smooth="yes"/>
      <point x="84" y="70"/>
      <point x="68" y="69"/>
      <point x="28" y="69" type="curve"/>
      <point x="28" y="0" type="line"/>
      <point x="49" y="0"/>
      <point x="112" y="1"/>
      <point x="135" y="1" type="curve" smooth="yes"/>
      <point x="150" y="1"/>
      <point x="268" y="0"/>
      <point x="285" y="0" type="curve"/>
      <point x="285" y="69" type="line"/>
      <point x="248" y="69"/>
      <point x="215" y="67"/>
      <point x="215" y="103" type="curve" smooth="yes"/>
      <point x="215" y="321" type="line"/>
      <point x="307" y="321" type="line"/>
      <point x="307" y="390" type="line"/>
      <point x="215" y="390" type="line"/>
      <point x="215" y="413" type="line" smooth="yes"/>
      <point x="215" y="465"/>
      <point x="219" y="505"/>
      <point x="270" y="505" type="curve" smooth="yes"/>
      <point x="299" y="505"/>
      <point x="315" y="486"/>
      <point x="318" y="458" type="curve"/>
      <point x="365" y="458" type="line"/>
      <point x="372" y="562" type="line"/>
      <point x="332" y="570"/>
      <point x="293" y="574"/>
      <point x="250" y="574" type="curve" smooth="yes"/>
    </contour>
  </outline>
</glyph>
<glyph name="g" format="1">
  <advance width="559"/>
  <unicode hex="0067"/>
  <outline>
    <contour>
      <point x="229" y="392" type="curve" smooth="yes"/>
      <point x="111" y="392"/>
      <point x="33" y="312"/>
      <point x="33" y="193" type="curve" smooth="yes"/>
      <point x="33" y="77"/>
      <point x="109" y="5"/>
      <point x="227" y="5" type="curve" smooth="yes"/>
      <point x="282" y="5"/>
      <point x="329" y="20"/>
      <point x="364" y="54" type="curve"/>
      <point x="364" y="12" type="line" smooth="yes"/>
      <point x="363" y="-70"/>
      <point x="328" y="-112"/>
      <point x="254" y="-112" type="curve" smooth="yes"/>
      <point x="200" y="-112"/>
      <point x="166" y="-99"/>
      <point x="160" y="-48" type="curve"/>
      <point x="82" y="-42" type="line"/>
      <point x="66" y="-145" type="line"/>
      <point x="120" y="-168"/>
      <point x="193" y="-181"/>
      <point x="255" y="-181" type="curve" smooth="yes"/>
      <point x="413" y="-181"/>
      <point x="492" y="-130"/>
      <point x="492" y="29" type="curve" smooth="yes"/>
      <point x="492" y="270" type="line" smooth="yes"/>
      <point x="492" y="303"/>
      <point x="497" y="314"/>
      <point x="528" y="314" type="curve"/>
      <point x="532" y="314"/>
      <point x="537" y="315"/>
      <point x="547" y="314" type="curve"/>
      <point x="547" y="382" type="line"/>
      <point x="525" y="382"/>
      <point x="506" y="381"/>
      <point x="476" y="381" type="curve" smooth="yes"/>
      <point x="440" y="381"/>
      <point x="406" y="382"/>
      <point x="372" y="384" type="curve"/>
      <point x="372" y="328" type="line"/>
      <point x="341" y="366"/>
      <point x="295" y="392"/>
    </contour>
    <contour>
      <point x="265" y="318" type="curve" smooth="yes"/>
      <point x="333" y="318"/>
      <point x="368" y="266"/>
      <point x="368" y="195" type="curve" smooth="yes"/>
      <point x="368" y="121"/>
      <point x="334" y="68"/>
      <point x="266" y="68" type="curve" smooth="yes"/>
      <point x="200" y="68"/>
      <point x="165" y="118"/>
      <point x="165" y="191" type="curve" smooth="yes"/>
      <point x="165" y="263"/>
      <point x="198" y="318"/>
    </contour>
  </outline>
</glyph>
<glyph name="h" format="1">
  <advance width="562"/>
  <unicode hex="0068"/>
  <outline>
    <contour>
      <point x="201" y="553" type="line"/>
      <point x="155" y="551"/>
      <point x="34" y="550"/>
      <point x="18" y="551" type="curve"/>
      <point x="18" y="484" type="line"/>
      <point x="33" y="484" type="line" smooth="yes"/>
      <point x="56" y="484"/>
      <point x="73" y="482"/>
      <point x="73" y="460" type="curve" smooth="yes"/>
      <point x="73" y="101" type="line" smooth="yes"/>
      <point x="73" y="64"/>
      <point x="53" y="68"/>
      <point x="16" y="68" type="curve"/>
      <point x="16" y="0" type="line"/>
      <point x="26" y="0"/>
      <point x="112" y="1"/>
      <point x="123" y="1" type="curve" smooth="yes"/>
      <point x="154" y="1"/>
      <point x="246" y="0"/>
      <point x="260" y="0" type="curve"/>
      <point x="260" y="68" type="line"/>
      <point x="226" y="68"/>
      <point x="202" y="65"/>
      <point x="202" y="93" type="curve" smooth="yes"/>
      <point x="202" y="234" type="line"/>
      <point x="210" y="286"/>
      <point x="241" y="319"/>
      <point x="298" y="319" type="curve" smooth="yes"/>
      <point x="354" y="319"/>
      <point x="364" y="274"/>
      <point x="364" y="217" type="curve" smooth="yes"/>
      <point x="364" y="107" type="line" smooth="yes"/>
      <point x="364" y="77"/>
      <point x="351" y="68"/>
      <point x="314" y="68" type="curve"/>
      <point x="314" y="0" type="line"/>
      <point x="323" y="0"/>
      <point x="420" y="0"/>
      <point x="430" y="1" type="curve"/>
      <point x="441" y="1"/>
      <point x="536" y="0"/>
      <point x="545" y="0" type="curve"/>
      <point x="545" y="68" type="line"/>
      <point x="530" y="68" type="line" smooth="yes"/>
      <point x="500" y="68"/>
      <point x="493" y="74"/>
      <point x="493" y="105" type="curve" smooth="yes"/>
      <point x="493" y="201" type="line" smooth="yes"/>
      <point x="493" y="322"/>
      <point x="464" y="391"/>
      <point x="353" y="391" type="curve" smooth="yes"/>
      <point x="291" y="391"/>
      <point x="240" y="372"/>
      <point x="201" y="328" type="curve"/>
    </contour>
  </outline>
</glyph>
<glyph name="j" format="1">
  <advance width="272"/>
  <unicode hex="006A"/>
  <outline>
    <contour>
      <point x="209" y="384" type="line"/>
      <point x="178" y="382"/>
      <point x="148" y="382"/>
      <point x="119" y="382" type="curve" smooth="yes"/>
      <point x="105" y="382"/>
      <point x="47" y="382"/>
      <point x="30" y="382" type="curve"/>
      <point x="30" y="315" type="line"/>
      <point x="67" y="315"/>
      <point x="80" y="313"/>
      <point x="80" y="281" type="curve" smooth="yes"/>
      <point x="80" y="29" type="line" smooth="yes"/>
      <point x="80" y="-45"/>
      <point x="84" y="-104"/>
      <point x="29" y="-104" type="curve" smooth="yes"/>
      <point x="12" y="-104"/>
      <point x="3" y="-95"/>
      <point x="-1" y="-68" type="curve"/>
      <point x="-35" y="-68" type="line"/>
      <point x="-35" y="-164" type="line"/>
      <point x="-8" y="-171"/>
      <point x="29" y="-174"/>
      <point x="64" y="-174" type="curve" smooth="yes"/>
      <point x="191" y="-171"/>
      <point x="209" y="-96"/>
      <point x="209" y="37" type="curve" smooth="yes"/>
    </contour>
    <contour>
      <point x="134" y="562" type="curve" smooth="yes"/>
      <point x="97" y="562"/>
      <point x="62" y="546"/>
      <point x="62" y="511" type="curve" smooth="yes"/>
      <point x="62" y="476"/>
      <point x="89" y="458"/>
      <point x="134" y="458" type="curve" smooth="yes"/>
      <point x="178" y="458"/>
      <point x="207" y="477"/>
      <point x="207" y="511" type="curve" smooth="yes"/>
      <point x="207" y="543"/>
      <point x="178" y="562"/>
    </contour>
  </outline>
</glyph>
<glyph name="k" format="1">
  <advance width="545"/>
  <unicode hex="006B"/>
  <outline>
    <contour>
      <point x="18" y="562" type="line"/>
      <point x="18" y="493" type="line"/>
      <point x="51" y="493"/>
      <point x="74" y="497"/>
      <point x="74" y="465" type="curve" smooth="yes"/>
      <point x="74" y="104" type="line" smooth="yes"/>
      <point x="74" y="73"/>
      <point x="57" y="70"/>
      <point x="16" y="70" type="curve"/>
      <point x="16" y="0" type="line"/>
      <point x="24" y="0"/>
      <point x="124" y="1"/>
      <point x="132" y="1" type="curve" smooth="yes"/>
      <point x="152" y="1"/>
      <point x="249" y="0"/>
      <point x="258" y="0" type="curve"/>
      <point x="258" y="70" type="line"/>
      <point x="220" y="70"/>
      <point x="205" y="71"/>
      <point x="205" y="99" type="curve" smooth="yes"/>
      <point x="205" y="151" type="line"/>
      <point x="242" y="176" type="line"/>
      <point x="325" y="90" type="line"/>
      <point x="332" y="84"/>
      <point x="337" y="79"/>
      <point x="337" y="75" type="curve" smooth="yes"/>
      <point x="337" y="73"/>
      <point x="333" y="71"/>
      <point x="325" y="70" type="curve"/>
      <point x="316" y="70"/>
      <point x="304" y="70"/>
      <point x="299" y="70" type="curve"/>
      <point x="299" y="0" type="line"/>
      <point x="318" y="0"/>
      <point x="396" y="1"/>
      <point x="419" y="1" type="curve" smooth="yes"/>
      <point x="423" y="1"/>
      <point x="526" y="0"/>
      <point x="539" y="0" type="curve"/>
      <point x="539" y="70" type="line"/>
      <point x="515" y="70" type="line" smooth="yes"/>
      <point x="491" y="70"/>
      <point x="474" y="77"/>
      <point x="454" y="101" type="curve"/>
      <point x="333" y="226" type="line"/>
      <point x="423" y="296" type="line" smooth="yes"/>
      <point x="450" y="317"/>
      <point x="462" y="326"/>
      <point x="492" y="326" type="curve"/>
      <point x="519" y="326" type="line"/>
      <point x="519" y="390" type="line"/>
      <point x="494" y="390"/>
      <point x="432" y="389"/>
      <point x="424" y="389" type="curve" smooth="yes"/>
      <point x="392" y="389"/>
      <point x="343" y="389"/>
      <point x="307" y="390" type="curve"/>
      <point x="307" y="332" type="line"/>
      <point x="317" y="332"/>
      <point x="318" y="332"/>
      <point x="330" y="330" type="curve"/>
      <point x="335" y="330"/>
      <point x="348" y="330"/>
      <point x="348" y="326" type="curve" smooth="yes"/>
      <point x="348" y="319"/>
      <point x="341" y="316"/>
      <point x="336" y="311" type="curve"/>
      <point x="205" y="207" type="line"/>
      <point x="205" y="564" type="line"/>
    </contour>
  </outline>
</glyph>
<glyph name="l" format="1">
  <advance width="279"/>
  <unicode hex="006C"/>
  <outline>
    <contour>
      <point x="166" y="563"/>
      <point x="44" y="562"/>
      <point x="22" y="562" type="curve"/>
      <point x="22" y="493" type="line"/>
      <point x="54" y="493"/>
      <point x="74" y="492"/>
      <point x="74" y="463" type="curve" smooth="yes"/>
      <point x="74" y="123" type="line" smooth="yes"/>
      <point x="74" y="80"/>
      <point x="70" y="69"/>
      <point x="20" y="69" type="curve"/>
      <point x="20" y="0" type="line"/>
      <point x="38" y="0"/>
      <point x="111" y="1"/>
      <point x="134" y="1" type="curve" smooth="yes"/>
      <point x="158" y="1"/>
      <point x="247" y="0"/>
      <point x="257" y="0" type="curve"/>
      <point x="257" y="69" type="line"/>
      <point x="217" y="69"/>
      <point x="205" y="75"/>
      <point x="205" y="114" type="curve" smooth="yes"/>
      <point x="205" y="564" type="line"/>
    </contour>
  </outline>
</glyph>
<glyph name="m" format="1">
  <advance width="862"/>
  <unicode hex="006D"/>
  <outline>
    <contour>
      <point x="589" y="399"/>
      <point x="533" y="370"/>
      <point x="490" y="320" type="curve"/>
      <point x="467" y="372"/>
      <point x="424" y="399"/>
      <point x="364" y="399" type="curve" smooth="yes"/>
      <point x="298" y="399"/>
      <point x="239" y="370"/>
      <point x="204" y="323" type="curve"/>
      <point x="204" y="392" type="line"/>
      <point x="88" y="389"/>
      <point x="124" y="390"/>
      <point x="24" y="390" type="curve"/>
      <point x="24" y="321" type="line"/>
      <point x="60" y="321"/>
      <point x="78" y="319"/>
      <point x="78" y="297" type="curve" smooth="yes"/>
      <point x="78" y="103" type="line" smooth="yes"/>
      <point x="78" y="70"/>
      <point x="65" y="69"/>
      <point x="21" y="69" type="curve"/>
      <point x="21" y="0" type="line"/>
      <point x="31" y="0"/>
      <point x="124" y="1"/>
      <point x="136" y="1" type="curve" smooth="yes"/>
      <point x="166" y="1"/>
      <point x="253" y="0"/>
      <point x="266" y="0" type="curve"/>
      <point x="266" y="69" type="line"/>
      <point x="255" y="69" type="line"/>
      <point x="223" y="69"/>
      <point x="208" y="71"/>
      <point x="208" y="105" type="curve" smooth="yes"/>
      <point x="208" y="204" type="line"/>
      <point x="208" y="230"/>
      <point x="211" y="263"/>
      <point x="219" y="276" type="curve"/>
      <point x="242" y="306"/>
      <point x="266" y="317"/>
      <point x="302" y="317" type="curve"/>
      <point x="356" y="317"/>
      <point x="367" y="277"/>
      <point x="367" y="218" type="curve" smooth="yes"/>
      <point x="367" y="106" type="line" smooth="yes"/>
      <point x="367" y="82"/>
      <point x="356" y="70"/>
      <point x="318" y="69" type="curve"/>
      <point x="318" y="0" type="line"/>
      <point x="326" y="0"/>
      <point x="417" y="1"/>
      <point x="428" y="1" type="curve" smooth="yes"/>
      <point x="455" y="1"/>
      <point x="539" y="0"/>
      <point x="549" y="0" type="curve"/>
      <point x="549" y="69" type="line"/>
      <point x="516" y="69"/>
      <point x="498" y="68"/>
      <point x="498" y="97" type="curve" smooth="yes"/>
      <point x="498" y="211" type="line" smooth="yes"/>
      <point x="498" y="237"/>
      <point x="500" y="257"/>
      <point x="507" y="274" type="curve"/>
      <point x="525" y="299"/>
      <point x="551" y="317"/>
      <point x="590" y="317" type="curve" smooth="yes"/>
      <point x="640" y="317"/>
      <point x="656" y="286"/>
      <point x="656" y="227" type="curve" smooth="yes"/>
      <point x="656" y="109" type="line" smooth="yes"/>
      <point x="656" y="74"/>
      <point x="642" y="69"/>
      <point x="604" y="69" type="curve"/>
      <point x="604" y="0" type="line"/>
      <point x="624" y="0"/>
      <point x="702" y="1"/>
      <point x="724" y="1" type="curve" smooth="yes"/>
      <point x="748" y="1"/>
      <point x="821" y="0"/>
      <point x="839" y="0" type="curve"/>
      <point x="839" y="69" type="line"/>
      <point x="820" y="69" type="line"/>
      <point x="799" y="70"/>
      <point x="787" y="73"/>
      <point x="787" y="95" type="curve" smooth="yes"/>
      <point x="787" y="213" type="line" smooth="yes"/>
      <point x="787" y="326"/>
      <point x="760" y="399"/>
      <point x="651" y="399" type="curve" smooth="yes"/>
    </contour>
  </outline>
</glyph>
<glyph name="n" format="1">
  <advance width="565"/>
  <unicode hex="006E"/>
  <outline>
    <contour>
      <point x="351" y="391" type="curve"/>
      <point x="288" y="388"/>
      <point x="237" y="364"/>
      <point x="200" y="321" type="curve"/>
      <point x="200" y="384" type="line"/>
      <point x="141" y="381"/>
      <point x="51" y="382"/>
      <point x="20" y="382" type="curve"/>
      <point x="20" y="315" type="line"/>
      <point x="51" y="315"/>
      <point x="75" y="319"/>
      <point x="75" y="293" type="curve" smooth="yes"/>
      <point x="75" y="102" type="line" smooth="yes"/>
      <point x="75" y="67"/>
      <point x="61" y="68"/>
      <point x="17" y="68" type="curve"/>
      <point x="18" y="0" type="line"/>
      <point x="36" y="0"/>
      <point x="111" y="1"/>
      <point x="134" y="1" type="curve" smooth="yes"/>
      <point x="162" y="1"/>
      <point x="252" y="0"/>
      <point x="264" y="0" type="curve"/>
      <point x="264" y="68" type="line"/>
      <point x="226" y="68"/>
      <point x="204" y="67"/>
      <point x="204" y="100" type="curve" smooth="yes"/>
      <point x="204" y="204" type="line" smooth="yes"/>
      <point x="204" y="229"/>
      <point x="204" y="250"/>
      <point x="210" y="269" type="curve"/>
      <point x="230" y="296"/>
      <point x="259" y="310"/>
      <point x="298" y="310" type="curve" smooth="yes"/>
      <point x="354" y="310"/>
      <point x="367" y="274"/>
      <point x="367" y="216" type="curve" smooth="yes"/>
      <point x="367" y="100" type="line" smooth="yes"/>
      <point x="367" y="64"/>
      <point x="354" y="68"/>
      <point x="317" y="68" type="curve"/>
      <point x="317" y="0" type="line"/>
      <point x="336" y="0"/>
      <point x="415" y="1"/>
      <point x="437" y="1" type="curve" smooth="yes"/>
      <point x="461" y="1"/>
      <point x="538" y="0"/>
      <point x="548" y="0" type="curve"/>
      <point x="548" y="68" type="line"/>
      <point x="517" y="68"/>
      <point x="496" y="65"/>
      <point x="496" y="93" type="curve" smooth="yes"/>
      <point x="496" y="234" type="line" smooth="yes"/>
      <point x="496" y="340"/>
      <point x="452" y="391"/>
    </contour>
  </outline>
</glyph>
<glyph name="o" format="1">
  <advance width="540"/>
  <unicode hex="006F"/>
  <outline>
    <contour>
      <point x="137" y="402"/>
      <point x="34" y="326"/>
      <point x="34" y="195" type="curve" smooth="yes"/>
      <point x="34" y="61"/>
      <point x="137" y="-10"/>
      <point x="269" y="-10" type="curve" smooth="yes"/>
      <point x="400" y="-10"/>
      <point x="506" y="62"/>
      <point x="506" y="195" type="curve" smooth="yes"/>
      <point x="506" y="328"/>
      <point x="401" y="402"/>
      <point x="269" y="402" type="curve" smooth="yes"/>
    </contour>
    <contour>
      <point x="339" y="332"/>
      <point x="371" y="274"/>
      <point x="371" y="197" type="curve" smooth="yes"/>
      <point x="371" y="119"/>
      <point x="340" y="59"/>
      <point x="269" y="59" type="curve" smooth="yes"/>
      <point x="204" y="59"/>
      <point x="168" y="109"/>
      <point x="168" y="195" type="curve" smooth="yes"/>
      <point x="168" y="281"/>
      <point x="205" y="332"/>
      <point x="270" y="332" type="curve" smooth="yes"/>
    </contour>
  </outline>
</glyph>
<glyph name="p" format="1">
  <advance width="576"/>
  <unicode hex="0070"/>
  <outline>
    <contour>
      <point x="282" y="400"/>
      <point x="226" y="377"/>
      <point x="200" y="335" type="curve"/>
      <point x="199" y="392" type="line"/>
      <point x="134" y="389"/>
      <point x="84" y="390"/>
      <point x="20" y="390" type="curve"/>
      <point x="20" y="321" type="line"/>
      <point x="55" y="321"/>
      <point x="73" y="323"/>
      <point x="73" y="293" type="curve" smooth="yes"/>
      <point x="73" y="-66" type="line" smooth="yes"/>
      <point x="73" y="-109"/>
      <point x="66" y="-108"/>
      <point x="17" y="-109" type="curve"/>
      <point x="17" y="-177" type="line"/>
      <point x="24" y="-177"/>
      <point x="128" y="-177"/>
      <point x="137" y="-177" type="curve" smooth="yes"/>
      <point x="147" y="-177"/>
      <point x="257" y="-177"/>
      <point x="266" y="-177" type="curve"/>
      <point x="266" y="-109" type="line"/>
      <point x="256" y="-109" type="line" smooth="yes"/>
      <point x="219" y="-109"/>
      <point x="204" y="-112"/>
      <point x="204" y="-79" type="curve" smooth="yes"/>
      <point x="204" y="43" type="line"/>
      <point x="237" y="8"/>
      <point x="284" y="-10"/>
      <point x="339" y="-10" type="curve" smooth="yes"/>
      <point x="463" y="-10"/>
      <point x="540" y="70"/>
      <point x="540" y="197" type="curve" smooth="yes"/>
      <point x="540" y="317"/>
      <point x="461" y="400"/>
      <point x="342" y="400" type="curve" smooth="yes"/>
    </contour>
    <contour>
      <point x="368" y="323"/>
      <point x="406" y="277"/>
      <point x="406" y="196" type="curve" smooth="yes"/>
      <point x="406" y="117"/>
      <point x="373" y="63"/>
      <point x="303" y="63" type="curve" smooth="yes"/>
      <point x="237" y="63"/>
      <point x="200" y="113"/>
      <point x="200" y="196" type="curve" smooth="yes"/>
      <point x="200" y="275"/>
      <point x="238" y="323"/>
      <point x="303" y="323" type="curve" smooth="yes"/>
    </contour>
  </outline>
</glyph>
<glyph name="q" format="1">
  <advance width="565"/>
  <unicode hex="0071"/>
  <outline>
    <contour>
      <point x="230" y="392" type="curve" smooth="yes"/>
      <point x="114" y="392"/>
      <point x="37" y="310"/>
      <point x="37" y="193" type="curve" smooth="yes"/>
      <point x="37" y="72"/>
      <point x="112" y="-10"/>
      <point x="233" y="-10" type="curve" smooth="yes"/>
      <point x="296" y="-10"/>
      <point x="338" y="13"/>
      <point x="365" y="42" type="curve"/>
      <point x="365" y="-75" type="line"/>
      <point x="365" y="-105"/>
      <point x="358" y="-107"/>
      <point x="322" y="-107" type="curve" smooth="yes"/>
      <point x="304" y="-107" type="line"/>
      <point x="304" y="-174" type="line"/>
      <point x="311" y="-174"/>
      <point x="412" y="-174"/>
      <point x="423" y="-174" type="curve" smooth="yes"/>
      <point x="434" y="-174"/>
      <point x="539" y="-174"/>
      <point x="548" y="-174" type="curve"/>
      <point x="548" y="-107" type="line"/>
      <point x="506" y="-105"/>
      <point x="493" y="-107"/>
      <point x="493" y="-67" type="curve" smooth="yes"/>
      <point x="493" y="278" type="line" smooth="yes"/>
      <point x="493" y="319"/>
      <point x="506" y="315"/>
      <point x="546" y="315" type="curve"/>
      <point x="546" y="382" type="line"/>
      <point x="513" y="382"/>
      <point x="422" y="381"/>
      <point x="370" y="384" type="curve"/>
      <point x="369" y="328" type="line"/>
      <point x="339" y="371"/>
      <point x="289" y="392"/>
    </contour>
    <contour>
      <point x="268" y="317" type="curve" smooth="yes"/>
      <point x="333" y="317"/>
      <point x="369" y="269"/>
      <point x="369" y="189" type="curve" smooth="yes"/>
      <point x="369" y="117"/>
      <point x="336" y="61"/>
      <point x="269" y="61" type="curve" smooth="yes"/>
      <point x="202" y="61"/>
      <point x="167" y="116"/>
      <point x="167" y="191" type="curve" smooth="yes"/>
      <point x="167" y="272"/>
      <point x="203" y="317"/>
    </contour>
  </outline>
</glyph>
<glyph name="r" format="1">
  <advance width="387"/>
  <unicode hex="0072"/>
  <outline>
    <contour>
      <point x="339" y="391" type="curve" smooth="yes"/>
      <point x="270" y="391"/>
      <point x="221" y="361"/>
      <point x="200" y="303" type="curve"/>
      <point x="200" y="384" type="line"/>
      <point x="154" y="381"/>
      <point x="61" y="382"/>
      <point x="20" y="382" type="curve"/>
      <point x="20" y="315" type="line"/>
      <point x="53" y="315"/>
      <point x="75" y="319"/>
      <point x="75" y="291" type="curve" smooth="yes"/>
      <point x="75" y="105" type="line" smooth="yes"/>
      <point x="75" y="64"/>
      <point x="51" y="68"/>
      <point x="19" y="68" type="curve"/>
      <point x="19" y="0" type="line"/>
      <point x="27" y="0"/>
      <point x="114" y="1"/>
      <point x="125" y="1" type="curve" smooth="yes"/>
      <point x="139" y="1"/>
      <point x="255" y="0"/>
      <point x="268" y="0" type="curve"/>
      <point x="268" y="68" type="line"/>
      <point x="229" y="68"/>
      <point x="204" y="63"/>
      <point x="204" y="96" type="curve" smooth="yes"/>
      <point x="204" y="108"/>
      <point x="204" y="191"/>
      <point x="208" y="204" type="curve"/>
      <point x="213" y="253"/>
      <point x="240" y="293"/>
      <point x="287" y="293" type="curve" smooth="yes"/>
      <point x="311" y="293"/>
      <point x="324" y="284"/>
      <point x="330" y="260" type="curve"/>
      <point x="379" y="261" type="line"/>
      <point x="379" y="388" type="line"/>
      <point x="365" y="390"/>
      <point x="352" y="391"/>
    </contour>
  </outline>
</glyph>
<glyph name="s" format="1">
  <advance width="443"/>
  <unicode hex="0073"/>
  <outline>
    <contour>
      <point x="106" y="399"/>
      <point x="42" y="360"/>
      <point x="42" y="282" type="curve" smooth="yes"/>
      <point x="42" y="193"/>
      <point x="133" y="170"/>
      <point x="212" y="144" type="curve" smooth="yes"/>
      <point x="241" y="135"/>
      <point x="291" y="119"/>
      <point x="291" y="90" type="curve" smooth="yes"/>
      <point x="291" y="63"/>
      <point x="262" y="48"/>
      <point x="222" y="48" type="curve" smooth="yes"/>
      <point x="170" y="48"/>
      <point x="124" y="73"/>
      <point x="120" y="125" type="curve"/>
      <point x="43" y="125" type="line"/>
      <point x="43" y="3" type="line"/>
      <point x="120" y="0" type="line"/>
      <point x="122" y="35" type="line"/>
      <point x="148" y="5"/>
      <point x="186" y="-10"/>
      <point x="244" y="-10" type="curve" smooth="yes"/>
      <point x="327" y="-10"/>
      <point x="405" y="28"/>
      <point x="405" y="112" type="curve" smooth="yes"/>
      <point x="405" y="193"/>
      <point x="338" y="219"/>
      <point x="248" y="244" type="curve" smooth="yes"/>
      <point x="205" y="256"/>
      <point x="154" y="269"/>
      <point x="154" y="300" type="curve" smooth="yes"/>
      <point x="154" y="328"/>
      <point x="182" y="342"/>
      <point x="218" y="342" type="curve" smooth="yes"/>
      <point x="274" y="340"/>
      <point x="310" y="313"/>
      <point x="318" y="271" type="curve"/>
      <point x="387" y="271" type="line"/>
      <point x="387" y="387" type="line"/>
      <point x="322" y="393" type="line"/>
      <point x="315" y="360" type="line"/>
      <point x="290" y="386"/>
      <point x="244" y="399"/>
      <point x="193" y="399" type="curve" smooth="yes"/>
    </contour>
  </outline>
</glyph>
<glyph name="t" format="1">
  <advance width="340"/>
  <unicode hex="0074"/>
  <outline>
    <contour>
      <point x="92" y="488" type="line"/>
      <point x="78" y="391" type="line"/>
      <point x="3" y="386" type="line"/>
      <point x="3" y="321" type="line"/>
      <point x="68" y="321" type="line"/>
      <point x="68" y="123" type="line" smooth="yes"/>
      <point x="68" y="40"/>
      <point x="106" y="-10"/>
      <point x="196" y="-10" type="curve" smooth="yes"/>
      <point x="274" y="-10"/>
      <point x="310" y="21"/>
      <point x="312" y="118" type="curve"/>
      <point x="265" y="112" type="line"/>
      <point x="265" y="86"/>
      <point x="255" y="72"/>
      <point x="237" y="72" type="curve" smooth="yes"/>
      <point x="201" y="72"/>
      <point x="200" y="103"/>
      <point x="200" y="147" type="curve" smooth="yes"/>
      <point x="200" y="321" type="line"/>
      <point x="304" y="321" type="line"/>
      <point x="304" y="390" type="line"/>
      <point x="199" y="390" type="line"/>
      <point x="199" y="508" type="line"/>
    </contour>
  </outline>
</glyph>
<glyph name="u" format="1">
  <advance width="562"/>
  <unicode hex="0075"/>
  <outline>
    <contour>
      <point x="491" y="384" type="line"/>
      <point x="444" y="382"/>
      <point x="353" y="381"/>
      <point x="305" y="382" type="curve"/>
      <point x="305" y="314" type="line"/>
      <point x="351" y="314"/>
      <point x="363" y="318"/>
      <point x="363" y="276" type="curve" smooth="yes"/>
      <point x="363" y="167" type="line" smooth="yes"/>
      <point x="363" y="145"/>
      <point x="363" y="125"/>
      <point x="357" y="108" type="curve"/>
      <point x="342" y="84"/>
      <point x="313" y="67"/>
      <point x="265" y="67" type="curve" smooth="yes"/>
      <point x="211" y="67"/>
      <point x="200" y="107"/>
      <point x="200" y="164" type="curve" smooth="yes"/>
      <point x="200" y="384" type="line"/>
      <point x="119" y="381"/>
      <point x="91" y="382"/>
      <point x="18" y="382" type="curve"/>
      <point x="18" y="314" type="line"/>
      <point x="57" y="314"/>
      <point x="71" y="319"/>
      <point x="71" y="284" type="curve" smooth="yes"/>
      <point x="71" y="181" type="line" smooth="yes"/>
      <point x="71" y="65"/>
      <point x="96" y="-8"/>
      <point x="201" y="-8" type="curve" smooth="yes"/>
      <point x="270" y="-8"/>
      <point x="329" y="13"/>
      <point x="367" y="58" type="curve"/>
      <point x="367" y="-1" type="line"/>
      <point x="453" y="1"/>
      <point x="459" y="0"/>
      <point x="544" y="0" type="curve"/>
      <point x="544" y="67" type="line"/>
      <point x="509" y="67"/>
      <point x="491" y="67"/>
      <point x="491" y="94" type="curve" smooth="yes"/>
    </contour>
  </outline>
</glyph>
<glyph name="v" format="1">
  <advance width="524"/>
  <unicode hex="0076"/>
  <outline>
    <contour>
      <point x="494" y="390"/>
      <point x="419" y="389"/>
      <point x="405" y="389" type="curve" smooth="yes"/>
      <point x="397" y="389"/>
      <point x="329" y="390"/>
      <point x="318" y="390" type="curve"/>
      <point x="318" y="320" type="line"/>
      <point x="344" y="320"/>
      <point x="372" y="320"/>
      <point x="372" y="305" type="curve"/>
      <point x="370" y="295"/>
      <point x="366" y="283"/>
      <point x="359" y="268" type="curve"/>
      <point x="279" y="73" type="line"/>
      <point x="193" y="276" type="line" smooth="yes"/>
      <point x="187" y="288"/>
      <point x="185" y="297"/>
      <point x="185" y="305" type="curve"/>
      <point x="185" y="320"/>
      <point x="201" y="320"/>
      <point x="243" y="320" type="curve"/>
      <point x="243" y="390" type="line"/>
      <point x="191" y="390"/>
      <point x="152" y="389"/>
      <point x="115" y="389" type="curve" smooth="yes"/>
      <point x="101" y="389"/>
      <point x="31" y="390"/>
      <point x="10" y="390" type="curve"/>
      <point x="11" y="314" type="line"/>
      <point x="42" y="317"/>
      <point x="51" y="317"/>
      <point x="66" y="282" type="curve" smooth="yes"/>
      <point x="202" y="-6" type="line"/>
      <point x="323" y="-6" type="line"/>
      <point x="460" y="291" type="line"/>
      <point x="467" y="309"/>
      <point x="479" y="320"/>
      <point x="513" y="320" type="curve"/>
      <point x="513" y="390" type="line"/>
    </contour>
  </outline>
</glyph>
<glyph name="w" format="1">
  <advance width="761"/>
  <unicode hex="0077"/>
  <outline>
    <contour>
      <point x="749" y="382" type="line"/>
      <point x="735" y="382"/>
      <point x="679" y="381"/>
      <point x="666" y="381" type="curve" smooth="yes"/>
      <point x="651" y="381"/>
      <point x="594" y="382"/>
      <point x="580" y="382" type="curve"/>
      <point x="580" y="314" type="line"/>
      <point x="601" y="314"/>
      <point x="618" y="315"/>
      <point x="623" y="303" type="curve"/>
      <point x="621" y="297"/>
      <point x="619" y="291"/>
      <point x="617" y="285" type="curve"/>
      <point x="551" y="77" type="line"/>
      <point x="463" y="368" type="line"/>
      <point x="338" y="368" type="line"/>
      <point x="242" y="79" type="line"/>
      <point x="184" y="258" type="line"/>
      <point x="175" y="288"/>
      <point x="171" y="314"/>
      <point x="197" y="314" type="curve" smooth="yes"/>
      <point x="199" y="314"/>
      <point x="202" y="314"/>
      <point x="207" y="314" type="curve"/>
      <point x="212" y="314"/>
      <point x="216" y="314"/>
      <point x="219" y="314" type="curve"/>
      <point x="219" y="382" type="line"/>
      <point x="179" y="382"/>
      <point x="145" y="381"/>
      <point x="109" y="381" type="curve" smooth="yes"/>
      <point x="103" y="381"/>
      <point x="16" y="382"/>
      <point x="12" y="382" type="curve"/>
      <point x="12" y="314" type="line"/>
      <point x="51" y="311"/>
      <point x="50" y="310"/>
      <point x="66" y="272" type="curve"/>
      <point x="168" y="-6" type="line"/>
      <point x="289" y="-6" type="line"/>
      <point x="384" y="280" type="line"/>
      <point x="476" y="-6" type="line"/>
      <point x="596" y="-6" type="line"/>
      <point x="703" y="288" type="line"/>
      <point x="712" y="310"/>
      <point x="715" y="312"/>
      <point x="749" y="314" type="curve"/>
    </contour>
  </outline>
</glyph>
<glyph name="x" format="1">
  <advance width="511"/>
  <unicode hex="0078"/>
  <outline>
    <contour>
      <point x="481" y="382" type="line"/>
      <point x="464" y="382"/>
      <point x="401" y="381"/>
      <point x="392" y="381" type="curve" smooth="yes"/>
      <point x="384" y="381"/>
      <point x="288" y="382"/>
      <point x="282" y="382" type="curve"/>
      <point x="282" y="315" type="line"/>
      <point x="298" y="315"/>
      <point x="317" y="315"/>
      <point x="317" y="307" type="curve" smooth="yes"/>
      <point x="317" y="304"/>
      <point x="315" y="300"/>
      <point x="312" y="296" type="curve"/>
      <point x="264" y="240" type="line"/>
      <point x="216" y="296" type="line"/>
      <point x="212" y="301"/>
      <point x="210" y="304"/>
      <point x="210" y="307" type="curve" smooth="yes"/>
      <point x="210" y="315"/>
      <point x="226" y="315"/>
      <point x="240" y="315" type="curve"/>
      <point x="240" y="382" type="line"/>
      <point x="231" y="382"/>
      <point x="167" y="381"/>
      <point x="143" y="381" type="curve" smooth="yes"/>
      <point x="81" y="381"/>
      <point x="77" y="382"/>
      <point x="21" y="382" type="curve"/>
      <point x="21" y="315" type="line"/>
      <point x="46" y="315"/>
      <point x="57" y="313"/>
      <point x="75" y="292" type="curve" smooth="yes"/>
      <point x="165" y="191" type="line"/>
      <point x="77" y="90" type="line"/>
      <point x="64" y="75"/>
      <point x="59" y="68"/>
      <point x="41" y="68" type="curve" smooth="yes"/>
      <point x="21" y="68" type="line"/>
      <point x="21" y="0" type="line"/>
      <point x="48" y="0"/>
      <point x="76" y="0"/>
      <point x="104" y="1" type="curve"/>
      <point x="142" y="0"/>
      <point x="180" y="0"/>
      <point x="218" y="0" type="curve"/>
      <point x="218" y="68" type="line"/>
      <point x="206" y="68"/>
      <point x="192" y="68"/>
      <point x="192" y="75" type="curve" smooth="yes"/>
      <point x="192" y="78"/>
      <point x="195" y="88"/>
      <point x="203" y="98" type="curve" smooth="yes"/>
      <point x="239" y="144" type="line"/>
      <point x="274" y="108" type="line" smooth="yes"/>
      <point x="287" y="94"/>
      <point x="293" y="85"/>
      <point x="293" y="79" type="curve" smooth="yes"/>
      <point x="293" y="72"/>
      <point x="284" y="68"/>
      <point x="264" y="68" type="curve"/>
      <point x="264" y="0" type="line"/>
      <point x="269" y="0"/>
      <point x="357" y="0"/>
      <point x="365" y="0" type="curve" smooth="yes"/>
      <point x="466" y="0"/>
      <point x="487" y="0"/>
      <point x="493" y="0" type="curve"/>
      <point x="493" y="68" type="line"/>
      <point x="480" y="68"/>
      <point x="471" y="69"/>
      <point x="462" y="72" type="curve" smooth="yes"/>
      <point x="453" y="76"/>
      <point x="445" y="83"/>
      <point x="433" y="96" type="curve"/>
      <point x="331" y="195" type="line"/>
      <point x="401" y="274" type="line"/>
      <point x="429" y="308"/>
      <point x="428" y="315"/>
      <point x="481" y="315" type="curve"/>
    </contour>
  </outline>
</glyph>
<glyph name="y" format="1">
  <advance width="480"/>
  <unicode hex="0079"/>
  <outline>
    <contour>
      <point x="486" y="382" type="line"/>
      <point x="445" y="382"/>
      <point x="414" y="381"/>
      <point x="382" y="381" type="curve" smooth="yes"/>
      <point x="353" y="381"/>
      <point x="327" y="382"/>
      <point x="289" y="382" type="curve"/>
      <point x="289" y="314" type="line"/>
      <point x="315" y="314"/>
      <point x="336" y="314"/>
      <point x="340" y="297" type="curve"/>
      <point x="339" y="289"/>
      <point x="336" y="280"/>
      <point x="331" y="269" type="curve"/>
      <point x="259" y="92" type="line"/>
      <point x="182" y="267" type="line"/>
      <point x="177" y="277"/>
      <point x="174" y="287"/>
      <point x="172" y="295" type="curve"/>
      <point x="177" y="317"/>
      <point x="199" y="311"/>
      <point x="226" y="314" type="curve"/>
      <point x="226" y="382" type="line"/>
      <point x="174" y="382"/>
      <point x="136" y="381"/>
      <point x="99" y="381" type="curve" smooth="yes"/>
      <point x="85" y="381"/>
      <point x="14" y="382"/>
      <point x="-7" y="382" type="curve"/>
      <point x="-7" y="308" type="line"/>
      <point x="20" y="309"/>
      <point x="40" y="313"/>
      <point x="53" y="290" type="curve" smooth="yes"/>
      <point x="199" y="-22" type="line"/>
      <point x="184" y="-54"/>
      <point x="175" y="-74"/>
      <point x="164" y="-85" type="curve" smooth="yes"/>
      <point x="144" y="-106"/>
      <point x="115" y="-103"/>
      <point x="87" y="-103" type="curve"/>
      <point x="87" y="-174" type="line"/>
      <point x="93" y="-174"/>
      <point x="123" y="-174"/>
      <point x="128" y="-174" type="curve" smooth="yes"/>
      <point x="205" y="-174"/>
      <point x="233" y="-136"/>
      <point x="270" y="-57" type="curve"/>
      <point x="432" y="290" type="line"/>
      <point x="441" y="308"/>
      <point x="452" y="314"/>
      <point x="487" y="314" type="curve"/>
    </contour>
  </outline>
</glyph>
<glyph name="z" format="1">
  <advance width="459"/>
  <unicode hex="007A"/>
  <outline>
    <contour>
      <point x="38" y="381" type="line"/>
      <point x="38" y="253" type="line"/>
      <point x="90" y="253" type="line"/>
      <point x="90" y="284"/>
      <point x="92" y="301"/>
      <point x="100" y="310" type="curve" smooth="yes"/>
      <point x="109" y="320"/>
      <point x="124" y="321"/>
      <point x="152" y="321" type="curve" smooth="yes"/>
      <point x="272" y="321" type="line"/>
      <point x="32" y="76" type="line"/>
      <point x="32" y="0" type="line"/>
      <point x="425" y="0" type="line"/>
      <point x="425" y="135" type="line"/>
      <point x="372" y="135" type="line"/>
      <point x="373" y="104" type="line"/>
      <point x="373" y="61"/>
      <point x="348" y="62"/>
      <point x="305" y="62" type="curve" smooth="yes"/>
      <point x="181" y="62" type="line"/>
      <point x="421" y="309" type="line"/>
      <point x="421" y="381" type="line"/>
    </contour>
  </outline>
</glyph>
<glyph name="braceleft" format="1">
  <advance width="381"/>
  <unicode hex="007B"/>
  <outline>
    <contour>
      <point x="259" y="621"/>
      <point x="147" y="621"/>
      <point x="147" y="465" type="curve" smooth="yes"/>
      <point x="147" y="394" type="line" smooth="yes"/>
      <point x="147" y="310"/>
      <point x="129" y="274"/>
      <point x="47" y="270" type="curve"/>
      <point x="47" y="206" type="line"/>
      <point x="119" y="202"/>
      <point x="147" y="171"/>
      <point x="147" y="96" type="curve" smooth="yes"/>
      <point x="147" y="17" type="line" smooth="yes"/>
      <point x="147" y="-193"/>
      <point x="321" y="-146"/>
      <point x="334" y="-146" type="curve"/>
      <point x="334" y="-78" type="line"/>
      <point x="240" y="-77"/>
      <point x="245" y="-36"/>
      <point x="245" y="78" type="curve" smooth="yes"/>
      <point x="245" y="168"/>
      <point x="226" y="220"/>
      <point x="146" y="239" type="curve"/>
      <point x="255" y="261"/>
      <point x="241" y="353"/>
      <point x="245" y="454" type="curve" smooth="yes"/>
      <point x="247" y="530"/>
      <point x="261" y="553"/>
      <point x="334" y="554" type="curve"/>
      <point x="334" y="621" type="line"/>
    </contour>
  </outline>
</glyph>
<glyph name="bar" format="1">
  <advance width="469"/>
  <unicode hex="007C"/>
  <outline>
    <contour>
      <point x="192" y="615" type="line"/>
      <point x="192" y="-170" type="line"/>
      <point x="278" y="-170" type="line"/>
      <point x="278" y="615" type="line"/>
    </contour>
  </outline>
</glyph>
<glyph name="asciitilde" format="1">
  <advance width="651"/>
  <unicode hex="007E"/>
  <outline>
    <contour>
      <point x="213" y="356" type="curve" smooth="yes"/>
      <point x="166" y="356"/>
      <point x="119" y="337"/>
      <point x="63" y="296" type="curve"/>
      <point x="63" y="206" type="line"/>
      <point x="113" y="245"/>
      <point x="159" y="272"/>
      <point x="211" y="272" type="curve" smooth="yes"/>
      <point x="296" y="272"/>
      <point x="357" y="209"/>
      <point x="440" y="209" type="curve" smooth="yes"/>
      <point x="485" y="209"/>
      <point x="542" y="232"/>
      <point x="588" y="266" type="curve"/>
      <point x="588" y="353" type="line"/>
      <point x="542" y="319"/>
      <point x="488" y="293"/>
      <point x="443" y="293" type="curve" smooth="yes"/>
      <point x="360" y="293"/>
      <point x="302" y="356"/>
    </contour>
  </outline>
</glyph>
<glyph name="cent" format="1">
  <advance width="525"/>
  <unicode hex="00A2"/>
  <outline>
    <contour>
      <point x="248" y="471" type="line"/>
      <point x="248" y="402" type="line"/>
      <point x="133" y="400"/>
      <point x="36" y="317"/>
      <point x="36" y="195" type="curve" smooth="yes"/>
      <point x="36" y="74"/>
      <point x="123" y="-2"/>
      <point x="248" y="-11" type="curve"/>
      <point x="248" y="-82" type="line"/>
      <point x="300" y="-82" type="line"/>
      <point x="300" y="-11" type="line"/>
      <point x="349" y="-10"/>
      <point x="391" y="3"/>
      <point x="424" y="27" type="curve" smooth="yes"/>
      <point x="456" y="50"/>
      <point x="479" y="83"/>
      <point x="490" y="123" type="curve"/>
      <point x="381" y="146" type="line"/>
      <point x="368" y="97"/>
      <point x="338" y="69"/>
      <point x="291" y="69" type="curve" smooth="yes"/>
      <point x="225" y="69"/>
      <point x="188" y="125"/>
      <point x="188" y="195" type="curve" smooth="yes"/>
      <point x="188" y="268"/>
      <point x="223" y="322"/>
      <point x="290" y="322" type="curve" smooth="yes"/>
      <point x="344" y="322"/>
      <point x="378" y="289"/>
      <point x="384" y="238" type="curve"/>
      <point x="474" y="238" type="line"/>
      <point x="474" y="394" type="line"/>
      <point x="386" y="394" type="line"/>
      <point x="381" y="365" type="line"/>
      <point x="354" y="387"/>
      <point x="336" y="392"/>
      <point x="300" y="399" type="curve"/>
      <point x="300" y="471" type="line"/>
    </contour>
  </outline>
</glyph>
<glyph name="sterling" format="1">
  <advance width="532"/>
  <unicode hex="00A3"/>
  <outline>
    <contour>
      <point x="298" y="590" type="curve" smooth="yes"/>
      <point x="186" y="590"/>
      <point x="88" y="536"/>
      <point x="88" y="434" type="curve" smooth="yes"/>
      <point x="88" y="402"/>
      <point x="98" y="368"/>
      <point x="121" y="331" type="curve"/>
      <point x="38" y="331" type="line"/>
      <point x="38" y="272" type="line"/>
      <point x="152" y="272" type="line"/>
      <point x="173" y="242"/>
      <point x="189" y="201"/>
      <point x="202" y="166" type="curve"/>
      <point x="181" y="184"/>
      <point x="155" y="192"/>
      <point x="128" y="192" type="curve" smooth="yes"/>
      <point x="70" y="192"/>
      <point x="24" y="153"/>
      <point x="24" y="92" type="curve" smooth="yes"/>
      <point x="24" y="31"/>
      <point x="75" y="-8"/>
      <point x="139" y="-8" type="curve" smooth="yes"/>
      <point x="181" y="-8"/>
      <point x="220" y="14"/>
      <point x="252" y="54" type="curve"/>
      <point x="290" y="12"/>
      <point x="328" y="-8"/>
      <point x="375" y="-8" type="curve" smooth="yes"/>
      <point x="460" y="-8"/>
      <point x="509" y="52"/>
      <point x="516" y="141" type="curve"/>
      <point x="432" y="160" type="line"/>
      <point x="424" y="112"/>
      <point x="407" y="93"/>
      <point x="373" y="93" type="curve" smooth="yes"/>
      <point x="346" y="93"/>
      <point x="324" y="107"/>
      <point x="295" y="131" type="curve"/>
      <point x="298" y="146"/>
      <point x="299" y="163"/>
      <point x="299" y="179" type="curve" smooth="yes"/>
      <point x="299" y="211"/>
      <point x="294" y="242"/>
      <point x="284" y="272" type="curve"/>
      <point x="403" y="272" type="line"/>
      <point x="403" y="331" type="line"/>
      <point x="259" y="331" type="line"/>
      <point x="237" y="365"/>
      <point x="223" y="405"/>
      <point x="223" y="437" type="curve" smooth="yes"/>
      <point x="223" y="481"/>
      <point x="253" y="506"/>
      <point x="301" y="506" type="curve" smooth="yes"/>
      <point x="347" y="506"/>
      <point x="379" y="477"/>
      <point x="384" y="432" type="curve"/>
      <point x="493" y="444" type="line"/>
      <point x="492" y="538"/>
      <point x="427" y="590"/>
    </contour>
    <contour>
      <point x="136" y="136" type="curve" smooth="yes"/>
      <point x="156" y="136"/>
      <point x="180" y="126"/>
      <point x="201" y="106" type="curve"/>
      <point x="192" y="75"/>
      <point x="163" y="53"/>
      <point x="133" y="53" type="curve" smooth="yes"/>
      <point x="113" y="53"/>
      <point x="96" y="65"/>
      <point x="96" y="94" type="curve" smooth="yes"/>
      <point x="96" y="123"/>
      <point x="113" y="136"/>
    </contour>
  </outline>
</glyph>
<glyph name="currency" format="1">
  <advance width="560"/>
  <unicode hex="00A4"/>
  <outline>
    <contour>
      <point x="386" y="492" type="line"/>
      <point x="353" y="514"/>
      <point x="317" y="524"/>
      <point x="279" y="524" type="curve" smooth="yes"/>
      <point x="242" y="524"/>
      <point x="206" y="513"/>
      <point x="175" y="492" type="curve"/>
      <point x="102" y="565" type="line"/>
      <point x="48" y="512" type="line"/>
      <point x="120" y="441" type="line"/>
      <point x="98" y="408"/>
      <point x="88" y="372"/>
      <point x="88" y="335" type="curve" smooth="yes"/>
      <point x="88" y="296"/>
      <point x="98" y="263"/>
      <point x="119" y="231" type="curve"/>
      <point x="48" y="159" type="line"/>
      <point x="102" y="105" type="line"/>
      <point x="174" y="176" type="line"/>
      <point x="205" y="155"/>
      <point x="241" y="146"/>
      <point x="279" y="146" type="curve" smooth="yes"/>
      <point x="318" y="146"/>
      <point x="354" y="156"/>
      <point x="386" y="177" type="curve"/>
      <point x="459" y="105" type="line"/>
      <point x="513" y="159" type="line"/>
      <point x="439" y="232" type="line"/>
      <point x="460" y="263"/>
      <point x="470" y="300"/>
      <point x="470" y="335" type="curve" smooth="yes"/>
      <point x="470" y="372"/>
      <point x="459" y="409"/>
      <point x="439" y="438" type="curve"/>
      <point x="513" y="512" type="line"/>
      <point x="459" y="565" type="line"/>
    </contour>
    <contour>
      <point x="343" y="450"/>
      <point x="396" y="398"/>
      <point x="396" y="335" type="curve" smooth="yes"/>
      <point x="396" y="271"/>
      <point x="343" y="220"/>
      <point x="279" y="220" type="curve" smooth="yes"/>
      <point x="215" y="220"/>
      <point x="163" y="271"/>
      <point x="163" y="335" type="curve" smooth="yes"/>
      <point x="163" y="398"/>
      <point x="215" y="450"/>
      <point x="279" y="450" type="curve" smooth="yes"/>
    </contour>
  </outline>
</glyph>
<glyph name="yen" format="1">
  <advance width="537"/>
  <unicode hex="00A5"/>
  <outline>
    <contour>
      <point x="547" y="551" type="line"/>
      <point x="542" y="551"/>
      <point x="480" y="550"/>
      <point x="453" y="549" type="curve" smooth="yes"/>
      <point x="424" y="550"/>
      <point x="353" y="551"/>
      <point x="345" y="551" type="curve"/>
      <point x="345" y="476" type="line"/>
      <point x="354" y="476" type="line" smooth="yes"/>
      <point x="374" y="476"/>
      <point x="393" y="475"/>
      <point x="393" y="462" type="curve" smooth="yes"/>
      <point x="393" y="458"/>
      <point x="391" y="452"/>
      <point x="387" y="445" type="curve"/>
      <point x="294" y="287" type="line"/>
      <point x="215" y="429" type="line" smooth="yes"/>
      <point x="207" y="444"/>
      <point x="203" y="454"/>
      <point x="203" y="461" type="curve" smooth="yes"/>
      <point x="203" y="474"/>
      <point x="218" y="476"/>
      <point x="251" y="476" type="curve"/>
      <point x="251" y="551" type="line"/>
      <point x="222" y="551"/>
      <point x="194" y="550"/>
      <point x="156" y="550" type="curve" smooth="yes"/>
      <point x="100" y="548"/>
      <point x="66" y="551"/>
      <point x="9" y="551" type="curve"/>
      <point x="9" y="476" type="line"/>
      <point x="56" y="476"/>
      <point x="55" y="471"/>
      <point x="81" y="430" type="curve" smooth="yes"/>
      <point x="128" y="355" type="line"/>
      <point x="34" y="355" type="line"/>
      <point x="34" y="311" type="line"/>
      <point x="156" y="311" type="line"/>
      <point x="189" y="259" type="line"/>
      <point x="34" y="259" type="line"/>
      <point x="34" y="215" type="line"/>
      <point x="211" y="215" type="line"/>
      <point x="211" y="205" type="line"/>
      <point x="212" y="104" type="line" smooth="yes"/>
      <point x="212" y="78"/>
      <point x="201" y="75"/>
      <point x="168" y="75" type="curve" smooth="yes"/>
      <point x="150" y="75" type="line"/>
      <point x="150" y="0" type="line"/>
      <point x="160" y="0"/>
      <point x="258" y="1"/>
      <point x="271" y="1" type="curve" smooth="yes"/>
      <point x="301" y="1"/>
      <point x="394" y="0"/>
      <point x="406" y="0" type="curve"/>
      <point x="406" y="75" type="line"/>
      <point x="388" y="75" type="line" smooth="yes"/>
      <point x="354" y="75"/>
      <point x="343" y="75"/>
      <point x="343" y="106" type="curve" smooth="yes"/>
      <point x="343" y="191" type="line"/>
      <point x="349" y="215" type="line"/>
      <point x="524" y="215" type="line"/>
      <point x="524" y="259" type="line"/>
      <point x="366" y="259" type="line"/>
      <point x="400" y="311" type="line"/>
      <point x="524" y="311" type="line"/>
      <point x="524" y="355" type="line"/>
      <point x="430" y="355" type="line"/>
      <point x="483" y="436" type="line"/>
      <point x="504" y="469"/>
      <point x="509" y="476"/>
      <point x="547" y="476" type="curve"/>
    </contour>
  </outline>
</glyph>
<glyph name="brokenbar" format="1">
  <advance width="478"/>
  <unicode hex="00A6"/>
  <outline>
    <contour>
      <point x="196" y="506" type="line"/>
      <point x="196" y="189" type="line"/>
      <point x="284" y="189" type="line"/>
      <point x="284" y="506" type="line"/>
    </contour>
    <contour>
      <point x="196" y="264" type="line"/>
      <point x="196" y="-52" type="line"/>
      <point x="284" y="-52" type="line"/>
      <point x="284" y="264" type="line"/>
    </contour>
  </outline>
</glyph>
<glyph name="section" format="1">
  <advance width="495"/>
  <unicode hex="00A7"/>
  <outline>
    <contour>
      <point x="144" y="573"/>
      <point x="64" y="534"/>
      <point x="64" y="444" type="curve" smooth="yes"/>
      <point x="64" y="403"/>
      <point x="80" y="370"/>
      <point x="111" y="347" type="curve"/>
      <point x="62" y="313"/>
      <point x="39" y="277"/>
      <point x="39" y="230" type="curve" smooth="yes"/>
      <point x="39" y="135"/>
      <point x="126" y="98"/>
      <point x="231" y="59" type="curve" smooth="yes"/>
      <point x="282" y="41"/>
      <point x="335" y="17"/>
      <point x="335" y="-26" type="curve" smooth="yes"/>
      <point x="335" y="-68"/>
      <point x="303" y="-91"/>
      <point x="246" y="-91" type="curve" smooth="yes"/>
      <point x="175" y="-91"/>
      <point x="147" y="-62"/>
      <point x="143" y="-3" type="curve"/>
      <point x="67" y="-3" type="line"/>
      <point x="70" y="-94" type="line"/>
      <point x="113" y="-133"/>
      <point x="186" y="-144"/>
      <point x="248" y="-144" type="curve" smooth="yes"/>
      <point x="353" y="-144"/>
      <point x="437" y="-103"/>
      <point x="437" y="-9" type="curve" smooth="yes"/>
      <point x="437" y="32"/>
      <point x="419" y="61"/>
      <point x="385" y="89" type="curve"/>
      <point x="432" y="115"/>
      <point x="457" y="152"/>
      <point x="457" y="201" type="curve" smooth="yes"/>
      <point x="457" y="296"/>
      <point x="386" y="333"/>
      <point x="274" y="372" type="curve" smooth="yes"/>
      <point x="214" y="394"/>
      <point x="161" y="409"/>
      <point x="161" y="456" type="curve" smooth="yes"/>
      <point x="161" y="501"/>
      <point x="199" y="521"/>
      <point x="247" y="521" type="curve" smooth="yes"/>
      <point x="309" y="521"/>
      <point x="340" y="493"/>
      <point x="347" y="431" type="curve"/>
      <point x="427" y="431" type="line"/>
      <point x="423" y="527"/>
      <point x="341" y="573"/>
      <point x="245" y="573" type="curve" smooth="yes"/>
    </contour>
    <contour>
      <point x="220" y="289"/>
      <point x="254" y="281"/>
      <point x="303" y="257" type="curve" smooth="yes"/>
      <point x="340" y="239"/>
      <point x="363" y="217"/>
      <point x="363" y="184" type="curve" smooth="yes"/>
      <point x="363" y="159"/>
      <point x="353" y="139"/>
      <point x="328" y="119" type="curve"/>
      <point x="304" y="132"/>
      <point x="262" y="148"/>
      <point x="239" y="158" type="curve" smooth="yes"/>
      <point x="188" y="179"/>
      <point x="135" y="202"/>
      <point x="135" y="250" type="curve" smooth="yes"/>
      <point x="135" y="270"/>
      <point x="143" y="290"/>
      <point x="168" y="312" type="curve"/>
    </contour>
  </outline>
</glyph>
<glyph name="dieresis" format="1">
  <advance width="359"/>
  <unicode hex="00A8"/>
  <outline>
    <contour>
      <point x="276" y="572" type="curve" smooth="yes"/>
      <point x="245" y="572"/>
      <point x="221" y="549"/>
      <point x="221" y="518" type="curve" smooth="yes"/>
      <point x="221" y="488"/>
      <point x="245" y="464"/>
      <point x="276" y="464" type="curve" smooth="yes"/>
      <point x="308" y="464"/>
      <point x="330" y="487"/>
      <point x="330" y="518" type="curve" smooth="yes"/>
      <point x="330" y="549"/>
      <point x="307" y="572"/>
    </contour>
    <contour>
      <point x="84" y="572" type="curve" smooth="yes"/>
      <point x="53" y="572"/>
      <point x="29" y="550"/>
      <point x="29" y="518" type="curve" smooth="yes"/>
      <point x="29" y="487"/>
      <point x="51" y="464"/>
      <point x="84" y="464" type="curve" smooth="yes"/>
      <point x="116" y="464"/>
      <point x="139" y="486"/>
      <point x="139" y="518" type="curve" smooth="yes"/>
      <point x="139" y="549"/>
      <point x="115" y="572"/>
    </contour>
  </outline>
</glyph>
<glyph name="copyright" format="1">
  <advance width="707"/>
  <unicode hex="00A9"/>
  <outline>
    <contour>
      <point x="354" y="601" type="curve" smooth="yes"/>
      <point x="201" y="601"/>
      <point x="43" y="479"/>
      <point x="43" y="293" type="curve" smooth="yes"/>
      <point x="43" y="111"/>
      <point x="195" y="-13"/>
      <point x="354" y="-13" type="curve" smooth="yes"/>
      <point x="539" y="-13"/>
      <point x="665" y="136"/>
      <point x="665" y="293" type="curve" smooth="yes"/>
      <point x="665" y="475"/>
      <point x="510" y="601"/>
    </contour>
    <contour>
      <point x="456" y="416" type="line"/>
      <point x="438" y="445"/>
      <point x="400" y="466"/>
      <point x="354" y="466" type="curve" smooth="yes"/>
      <point x="258" y="466"/>
      <point x="179" y="393"/>
      <point x="179" y="292" type="curve" smooth="yes"/>
      <point x="179" y="192"/>
      <point x="249" y="112"/>
      <point x="347" y="112" type="curve" smooth="yes"/>
      <point x="421" y="112"/>
      <point x="475" y="146"/>
      <point x="504" y="216" type="curve"/>
      <point x="460" y="230" type="line"/>
      <point x="436" y="180"/>
      <point x="398" y="157"/>
      <point x="357" y="157" type="curve" smooth="yes"/>
      <point x="292" y="157"/>
      <point x="257" y="216"/>
      <point x="257" y="296" type="curve" smooth="yes"/>
      <point x="257" y="369"/>
      <point x="292" y="428"/>
      <point x="358" y="428" type="curve" smooth="yes"/>
      <point x="402" y="428"/>
      <point x="439" y="400"/>
      <point x="454" y="348" type="curve"/>
      <point x="504" y="350" type="line"/>
      <point x="504" y="468" type="line"/>
      <point x="457" y="469" type="line"/>
    </contour>
    <contour>
      <point x="354" y="556" type="curve" smooth="yes"/>
      <point x="483" y="556"/>
      <point x="616" y="452"/>
      <point x="616" y="293" type="curve" smooth="yes"/>
      <point x="616" y="164"/>
      <point x="511" y="32"/>
      <point x="353" y="32" type="curve" smooth="yes"/>
      <point x="224" y="32"/>
      <point x="91" y="134"/>
      <point x="91" y="293" type="curve" smooth="yes"/>
      <point x="91" y="422"/>
      <point x="196" y="556"/>
    </contour>
  </outline>
</glyph>
<glyph name="ordfeminine" format="1">
  <advance width="453"/>
  <unicode hex="00AA"/>
  <outline>
    <contour>
      <point x="170" y="562"/>
      <point x="131" y="555"/>
      <point x="98" y="543" type="curve"/>
      <point x="96" y="485" type="line"/>
      <point x="144" y="480" type="line"/>
      <point x="151" y="508"/>
      <point x="172" y="522"/>
      <point x="207" y="522" type="curve" smooth="yes"/>
      <point x="250" y="522"/>
      <point x="270" y="503"/>
      <point x="270" y="474" type="curve" smooth="yes"/>
      <point x="270" y="441" type="line"/>
      <point x="248" y="446"/>
      <point x="222" y="449"/>
      <point x="197" y="449" type="curve" smooth="yes"/>
      <point x="130" y="449"/>
      <point x="71" y="423"/>
      <point x="71" y="364" type="curve" smooth="yes"/>
      <point x="71" y="314"/>
      <point x="112" y="283"/>
      <point x="173" y="283" type="curve" smooth="yes"/>
      <point x="228" y="283"/>
      <point x="257" y="299"/>
      <point x="274" y="326" type="curve"/>
      <point x="283" y="288" type="line"/>
      <point x="311" y="289"/>
      <point x="311" y="288"/>
      <point x="339" y="289" type="curve"/>
      <point x="343" y="289"/>
      <point x="395" y="289"/>
      <point x="397" y="289" type="curve"/>
      <point x="397" y="336" type="line"/>
      <point x="369" y="336"/>
      <point x="360" y="343"/>
      <point x="360" y="357" type="curve"/>
      <point x="359" y="464" type="line"/>
      <point x="359" y="542"/>
      <point x="307" y="562"/>
      <point x="216" y="562" type="curve" smooth="yes"/>
    </contour>
    <contour>
      <point x="239" y="418"/>
      <point x="253" y="417"/>
      <point x="270" y="412" type="curve"/>
      <point x="270" y="383" type="line" smooth="yes"/>
      <point x="270" y="346"/>
      <point x="245" y="324"/>
      <point x="207" y="324" type="curve" smooth="yes"/>
      <point x="179" y="324"/>
      <point x="158" y="342"/>
      <point x="158" y="371" type="curve" smooth="yes"/>
      <point x="158" y="402"/>
      <point x="181" y="418"/>
      <point x="222" y="418" type="curve" smooth="yes"/>
    </contour>
  </outline>
</glyph>
<glyph name="guillemetleft" format="1">
  <advance width="529"/>
  <unicode hex="00AB"/>
  <outline>
    <contour>
      <point x="145" y="365" type="line"/>
      <point x="42" y="195" type="line"/>
      <point x="145" y="26" type="line"/>
      <point x="267" y="26" type="line"/>
      <point x="163" y="195" type="line"/>
      <point x="267" y="365" type="line"/>
    </contour>
    <contour>
      <point x="374" y="365" type="line"/>
      <point x="274" y="195" type="line"/>
      <point x="374" y="26" type="line"/>
      <point x="497" y="26" type="line"/>
      <point x="392" y="195" type="line"/>
      <point x="497" y="365" type="line"/>
    </contour>
  </outline>
</glyph>
<glyph name="logicalnot" format="1">
  <advance width="647"/>
  <unicode hex="00AC"/>
  <outline>
    <contour>
      <point x="79" y="400" type="line"/>
      <point x="79" y="317" type="line"/>
      <point x="485" y="317" type="line"/>
      <point x="485" y="142" type="line"/>
      <point x="568" y="142" type="line"/>
      <point x="568" y="400" type="line"/>
    </contour>
  </outline>
</glyph>
<glyph name="softhyphen" format="1">
  <advance width="376"/>
  <unicode hex="00AD"/>
  <outline>
    <contour>
      <point x="41" y="273" type="line"/>
      <point x="41" y="130" type="line"/>
      <point x="335" y="130" type="line"/>
      <point x="335" y="273" type="line"/>
    </contour>
  </outline>
</glyph>
<glyph name="registered" format="1">
  <advance width="707"/>
  <unicode hex="00AE"/>
  <outline>
    <contour>
      <point x="354" y="601" type="curve" smooth="yes"/>
      <point x="171" y="601"/>
      <point x="43" y="449"/>
      <point x="43" y="293" type="curve" smooth="yes"/>
      <point x="43" y="111"/>
      <point x="197" y="-13"/>
      <point x="353" y="-13" type="curve" smooth="yes"/>
      <point x="538" y="-13"/>
      <point x="665" y="136"/>
      <point x="665" y="293" type="curve" smooth="yes"/>
      <point x="665" y="478"/>
      <point x="511" y="601"/>
    </contour>
    <contour>
      <point x="354" y="556" type="curve" smooth="yes"/>
      <point x="509" y="556"/>
      <point x="616" y="426"/>
      <point x="616" y="293" type="curve" smooth="yes"/>
      <point x="616" y="138"/>
      <point x="487" y="32"/>
      <point x="353" y="32" type="curve" smooth="yes"/>
      <point x="198" y="32"/>
      <point x="91" y="160"/>
      <point x="91" y="293" type="curve" smooth="yes"/>
      <point x="91" y="449"/>
      <point x="222" y="556"/>
    </contour>
    <contour>
      <point x="202" y="466" type="line"/>
      <point x="202" y="438" type="line"/>
      <point x="228" y="436"/>
      <point x="232" y="431"/>
      <point x="232" y="407" type="curve" smooth="yes"/>
      <point x="232" y="195" type="line" smooth="yes"/>
      <point x="232" y="173"/>
      <point x="226" y="166"/>
      <point x="202" y="165" type="curve"/>
      <point x="202" y="128" type="line"/>
      <point x="204" y="128"/>
      <point x="251" y="128"/>
      <point x="255" y="128" type="curve" smooth="yes"/>
      <point x="260" y="128"/>
      <point x="316" y="128"/>
      <point x="320" y="128" type="curve"/>
      <point x="320" y="165" type="line"/>
      <point x="299" y="166"/>
      <point x="290" y="169"/>
      <point x="290" y="187" type="curve" smooth="yes"/>
      <point x="290" y="281" type="line"/>
      <point x="324" y="281" type="line" smooth="yes"/>
      <point x="364" y="281"/>
      <point x="385" y="272"/>
      <point x="395" y="233" type="curve"/>
      <point x="405" y="179"/>
      <point x="421" y="131"/>
      <point x="474" y="131" type="curve" smooth="yes"/>
      <point x="517" y="131" type="line"/>
      <point x="517" y="168" type="line"/>
      <point x="502" y="168" type="line" smooth="yes"/>
      <point x="478" y="168"/>
      <point x="467" y="188"/>
      <point x="463" y="215" type="curve" smooth="yes"/>
      <point x="455" y="260"/>
      <point x="445" y="276"/>
      <point x="402" y="292" type="curve"/>
      <point x="459" y="303"/>
      <point x="491" y="335"/>
      <point x="491" y="375" type="curve" smooth="yes"/>
      <point x="491" y="453"/>
      <point x="412" y="466"/>
      <point x="332" y="466" type="curve" smooth="yes"/>
    </contour>
    <contour>
      <point x="347" y="426" type="line"/>
      <point x="400" y="426"/>
      <point x="425" y="411"/>
      <point x="425" y="369" type="curve" smooth="yes"/>
      <point x="425" y="330"/>
      <point x="394" y="316"/>
      <point x="333" y="316" type="curve" smooth="yes"/>
      <point x="290" y="316" type="line"/>
      <point x="290" y="426" type="line"/>
    </contour>
  </outline>
</glyph>
<glyph name="macron" format="1">
  <advance width="287"/>
  <unicode hex="00AF"/>
  <outline>
    <contour>
      <point x="-46" y="576" type="line"/>
      <point x="-46" y="511" type="line"/>
      <point x="334" y="511" type="line"/>
      <point x="334" y="576" type="line"/>
    </contour>
  </outline>
</glyph>
<glyph name="degree" format="1">
  <advance width="314"/>
  <unicode hex="00B0"/>
  <outline>
    <contour>
      <point x="157" y="598" type="curve" smooth="yes"/>
      <point x="81" y="598"/>
      <point x="20" y="538"/>
      <point x="20" y="462" type="curve" smooth="yes"/>
      <point x="20" y="388"/>
      <point x="82" y="327"/>
      <point x="157" y="327" type="curve" smooth="yes"/>
      <point x="232" y="327"/>
      <point x="294" y="387"/>
      <point x="294" y="462" type="curve" smooth="yes"/>
      <point x="294" y="538"/>
      <point x="233" y="598"/>
    </contour>
    <contour>
      <point x="157" y="541" type="curve" smooth="yes"/>
      <point x="201" y="541"/>
      <point x="236" y="505"/>
      <point x="236" y="462" type="curve" smooth="yes"/>
      <point x="236" y="419"/>
      <point x="200" y="384"/>
      <point x="157" y="384" type="curve" smooth="yes"/>
      <point x="113" y="384"/>
      <point x="77" y="419"/>
      <point x="77" y="462" type="curve" smooth="yes"/>
      <point x="77" y="507"/>
      <point x="112" y="541"/>
    </contour>
  </outline>
</glyph>
<glyph name="plusminus" format="1">
  <advance width="647"/>
  <unicode hex="00B1"/>
  <outline>
    <contour>
      <point x="282" y="546" type="line"/>
      <point x="282" y="392" type="line"/>
      <point x="79" y="392" type="line"/>
      <point x="79" y="310" type="line"/>
      <point x="282" y="310" type="line"/>
      <point x="282" y="156" type="line"/>
      <point x="365" y="156" type="line"/>
      <point x="365" y="310" type="line"/>
      <point x="568" y="310" type="line"/>
      <point x="568" y="392" type="line"/>
      <point x="365" y="392" type="line"/>
      <point x="365" y="546" type="line"/>
    </contour>
    <contour>
      <point x="79" y="89" type="line"/>
      <point x="79" y="6" type="line"/>
      <point x="568" y="6" type="line"/>
      <point x="568" y="89" type="line"/>
    </contour>
  </outline>
</glyph>
<glyph name="twosuperior" format="1">
  <advance width="389"/>
  <unicode hex="00B2"/>
  <outline>
    <contour>
      <point x="107" y="591"/>
      <point x="48" y="559"/>
      <point x="48" y="481" type="curve"/>
      <point x="161" y="481" type="line"/>
      <point x="161" y="480" type="line"/>
      <point x="158" y="480"/>
      <point x="165" y="511"/>
      <point x="196" y="511" type="curve" smooth="yes"/>
      <point x="214" y="511"/>
      <point x="225" y="506"/>
      <point x="225" y="494" type="curve" smooth="yes"/>
      <point x="225" y="480"/>
      <point x="196" y="463"/>
      <point x="176" y="452" type="curve" smooth="yes"/>
      <point x="112" y="413"/>
      <point x="36" y="364"/>
      <point x="36" y="284" type="curve" smooth="yes"/>
      <point x="36" y="261" type="line"/>
      <point x="350" y="261" type="line"/>
      <point x="350" y="359" type="line"/>
      <point x="264" y="359" type="line"/>
      <point x="264" y="338"/>
      <point x="266" y="333"/>
      <point x="245" y="333" type="curve" smooth="yes"/>
      <point x="174" y="333" type="line"/>
      <point x="176" y="359"/>
      <point x="231" y="372"/>
      <point x="268" y="390" type="curve" smooth="yes"/>
      <point x="315" y="410"/>
      <point x="360" y="436"/>
      <point x="360" y="489" type="curve" smooth="yes"/>
      <point x="360" y="559"/>
      <point x="285" y="591"/>
      <point x="204" y="591" type="curve" smooth="yes"/>
    </contour>
  </outline>
</glyph>
<glyph name="threesuperior" format="1">
  <advance width="541"/>
  <unicode hex="00B3"/>
  <outline>
    <contour>
      <point x="141" y="592"/>
      <point x="99" y="579"/>
      <point x="64" y="557" type="curve"/>
      <point x="64" y="468" type="line"/>
      <point x="147" y="467" type="line"/>
      <point x="147" y="502"/>
      <point x="157" y="521"/>
      <point x="186" y="521" type="curve" smooth="yes"/>
      <point x="206" y="521"/>
      <point x="218" y="507"/>
      <point x="218" y="487" type="curve" smooth="yes"/>
      <point x="218" y="462"/>
      <point x="196" y="451"/>
      <point x="153" y="447" type="curve"/>
      <point x="153" y="393" type="line"/>
      <point x="191" y="392"/>
      <point x="231" y="386"/>
      <point x="231" y="353" type="curve" smooth="yes"/>
      <point x="231" y="325"/>
      <point x="212" y="312"/>
      <point x="189" y="312" type="curve" smooth="yes"/>
      <point x="157" y="312"/>
      <point x="140" y="332"/>
      <point x="140" y="374" type="curve"/>
      <point x="57" y="372" type="line"/>
      <point x="60" y="281"/>
      <point x="105" y="237"/>
      <point x="183" y="237" type="curve" smooth="yes"/>
      <point x="264" y="237"/>
      <point x="326" y="271"/>
      <point x="326" y="347" type="curve" smooth="yes"/>
      <point x="326" y="385"/>
      <point x="305" y="416"/>
      <point x="260" y="425" type="curve"/>
      <point x="296" y="432"/>
      <point x="317" y="459"/>
      <point x="317" y="492" type="curve" smooth="yes"/>
      <point x="317" y="560"/>
      <point x="261" y="592"/>
      <point x="188" y="592" type="curve" smooth="yes"/>
    </contour>
  </outline>
</glyph>
<glyph name="acute" format="1">
  <advance width="366"/>
  <unicode hex="00B4"/>
  <outline>
    <contour>
      <point x="231" y="604"/>
      <point x="210" y="593"/>
      <point x="197" y="574" type="curve" smooth="yes"/>
      <point x="104" y="450" type="line"/>
      <point x="163" y="450" type="line"/>
      <point x="319" y="574" type="line"/>
      <point x="326" y="585"/>
      <point x="285" y="604"/>
      <point x="253" y="604" type="curve" smooth="yes"/>
    </contour>
  </outline>
</glyph>
<glyph name="paragraph" format="1">
  <advance width="596"/>
  <unicode hex="00B6"/>
  <outline>
    <contour>
      <point x="289" y="614" type="line" smooth="yes"/>
      <point x="218" y="614"/>
      <point x="158" y="605"/>
      <point x="115" y="579" type="curve" smooth="yes"/>
      <point x="72" y="555"/>
      <point x="47" y="514"/>
      <point x="47" y="452" type="curve" smooth="yes"/>
      <point x="47" y="402"/>
      <point x="62" y="361"/>
      <point x="96" y="332" type="curve" smooth="yes"/>
      <point x="131" y="302"/>
      <point x="182" y="285"/>
      <point x="253" y="285" type="curve"/>
      <point x="253" y="-95" type="line"/>
      <point x="332" y="-95" type="line"/>
      <point x="332" y="540" type="line"/>
      <point x="414" y="540" type="line"/>
      <point x="414" y="-95" type="line"/>
      <point x="492" y="-95" type="line"/>
      <point x="492" y="540" type="line"/>
      <point x="553" y="540" type="line"/>
      <point x="553" y="614" type="line"/>
    </contour>
  </outline>
</glyph>
<glyph name="periodcentered" format="1">
  <advance width="272"/>
  <unicode hex="00B7"/>
  <outline>
    <contour>
      <point x="134" y="366" type="curve" smooth="yes"/>
      <point x="88" y="366"/>
      <point x="61" y="344"/>
      <point x="61" y="315" type="curve" smooth="yes"/>
      <point x="61" y="282"/>
      <point x="88" y="264"/>
      <point x="134" y="264" type="curve" smooth="yes"/>
      <point x="181" y="264"/>
      <point x="206" y="285"/>
      <point x="206" y="315" type="curve" smooth="yes"/>
      <point x="206" y="349"/>
      <point x="173" y="366"/>
    </contour>
  </outline>
</glyph>
<glyph name="cedilla" format="1">
  <advance width="359"/>
  <unicode hex="00B8"/>
  <outline>
    <contour>
      <point x="157" y="-1" type="line"/>
      <point x="153" y="-76" type="line"/>
      <point x="158" y="-75"/>
      <point x="162" y="-75"/>
      <point x="166" y="-75" type="curve" smooth="yes"/>
      <point x="190" y="-75"/>
      <point x="206" y="-84"/>
      <point x="206" y="-104" type="curve" smooth="yes"/>
      <point x="206" y="-126"/>
      <point x="191" y="-137"/>
      <point x="162" y="-137" type="curve" smooth="yes"/>
      <point x="144" y="-137"/>
      <point x="121" y="-132"/>
      <point x="99" y="-123" type="curve"/>
      <point x="88" y="-162" type="line"/>
      <point x="126" y="-178"/>
      <point x="158" y="-183"/>
      <point x="184" y="-183" type="curve" smooth="yes"/>
      <point x="242" y="-182"/>
      <point x="290" y="-160"/>
      <point x="290" y="-107" type="curve" smooth="yes"/>
      <point x="290" y="-60"/>
      <point x="256" y="-32"/>
      <point x="207" y="-32" type="curve"/>
      <point x="203" y="-32"/>
      <point x="200" y="-32"/>
      <point x="197" y="-32" type="curve"/>
      <point x="198" y="-1" type="line"/>
    </contour>
  </outline>
</glyph>
<glyph name="onesuperior" format="1">
  <advance width="381"/>
  <unicode hex="00B9"/>
  <outline>
    <contour>
      <point x="206" y="616" type="line"/>
      <point x="186" y="571"/>
      <point x="154" y="560"/>
      <point x="93" y="559" type="curve"/>
      <point x="93" y="481" type="line"/>
      <point x="104" y="479"/>
      <point x="124" y="483"/>
      <point x="146" y="490" type="curve"/>
      <point x="146" y="370" type="line"/>
      <point x="93" y="370" type="line"/>
      <point x="93" y="294" type="line"/>
      <point x="313" y="294" type="line"/>
      <point x="313" y="370" type="line"/>
      <point x="262" y="370" type="line"/>
      <point x="262" y="616" type="line"/>
    </contour>
  </outline>
</glyph>
<glyph name="ordmasculine" format="1">
  <advance width="368"/>
  <unicode hex="00BA"/>
  <outline>
    <contour>
      <point x="91" y="571"/>
      <point x="20" y="522"/>
      <point x="20" y="436" type="curve" smooth="yes"/>
      <point x="20" y="346"/>
      <point x="92" y="298"/>
      <point x="185" y="298" type="curve" smooth="yes"/>
      <point x="277" y="298"/>
      <point x="348" y="347"/>
      <point x="348" y="436" type="curve" smooth="yes"/>
      <point x="348" y="524"/>
      <point x="275" y="571"/>
      <point x="183" y="571" type="curve" smooth="yes"/>
    </contour>
    <contour>
      <point x="228" y="521"/>
      <point x="253" y="490"/>
      <point x="253" y="437" type="curve" smooth="yes"/>
      <point x="253" y="380"/>
      <point x="228" y="351"/>
      <point x="184" y="351" type="curve" smooth="yes"/>
      <point x="139" y="351"/>
      <point x="115" y="381"/>
      <point x="115" y="435" type="curve" smooth="yes"/>
      <point x="115" y="491"/>
      <point x="141" y="521"/>
      <point x="185" y="521" type="curve" smooth="yes"/>
    </contour>
  </outline>
</glyph>
<glyph name="guillemetright" format="1">
  <advance width="529"/>
  <unicode hex="00BB"/>
  <outline>
    <contour>
      <point x="231" y="365" type="line"/>
      <point x="335" y="196" type="line"/>
      <point x="223" y="26" type="line"/>
      <point x="353" y="26" type="line"/>
      <point x="456" y="196" type="line"/>
      <point x="353" y="365" type="line"/>
    </contour>
    <contour>
      <point x="63" y="365" type="line"/>
      <point x="168" y="196" type="line"/>
      <point x="63" y="26" type="line"/>
      <point x="186" y="26" type="line"/>
      <point x="289" y="196" type="line"/>
      <point x="186" y="365" type="line"/>
    </contour>
  </outline>
</glyph>
<glyph name="onequarter" format="1">
  <advance width="979"/>
  <unicode hex="00BC"/>
  <outline>
    <contour>
      <point x="500" y="568" type="line"/>
      <point x="329" y="-41" type="line"/>
      <point x="407" y="-41" type="line"/>
      <point x="577" y="568" type="line"/>
    </contour>
    <component base="onesuperior"/>
    <component base="foursuperior" xOffset="536"/>
  </outline>
</glyph>
<glyph name="onehalf" format="1">
  <advance width="968"/>
  <unicode hex="00BD"/>
  <outline>
    <contour>
      <point x="500" y="568" type="line"/>
      <point x="329" y="-41" type="line"/>
      <point x="407" y="-41" type="line"/>
      <point x="577" y="568" type="line"/>
    </contour>
    <component base="onesuperior"/>
    <component base="twosuperior" xOffset="521" yOffset="-267"/>
  </outline>
</glyph>
<glyph name="threequarters" format="1">
  <advance width="941"/>
  <unicode hex="00BE"/>
  <outline>
    <contour>
      <point x="491" y="568" type="line"/>
      <point x="320" y="-41" type="line"/>
      <point x="398" y="-41" type="line"/>
      <point x="568" y="568" type="line"/>
    </contour>
    <component base="foursuperior" xOffset="536"/>
    <component base="threesuperior"/>
  </outline>
</glyph>
<glyph name="AE" format="1">
  <advance width="846"/>
  <unicode hex="00C6"/>
  <outline>
    <contour>
      <point x="301" y="551" type="line"/>
      <point x="252" y="470" type="line"/>
      <point x="37" y="111" type="line" smooth="yes"/>
      <point x="23" y="88"/>
      <point x="10" y="75"/>
      <point x="-26" y="75" type="curve"/>
      <point x="-26" y="0" type="line"/>
      <point x="29" y="0"/>
      <point x="42" y="1"/>
      <point x="90" y="1" type="curve" smooth="yes"/>
      <point x="127" y="1"/>
      <point x="156" y="0"/>
      <point x="192" y="0" type="curve"/>
      <point x="192" y="75" type="line"/>
      <point x="168" y="75" type="line" smooth="yes"/>
      <point x="148" y="75"/>
      <point x="130" y="74"/>
      <point x="130" y="87" type="curve" smooth="yes"/>
      <point x="130" y="91"/>
      <point x="132" y="97"/>
      <point x="136" y="104" type="curve" smooth="yes"/>
      <point x="199" y="214" type="line"/>
      <point x="381" y="214" type="line"/>
      <point x="381" y="105" type="line" smooth="yes"/>
      <point x="381" y="73"/>
      <point x="364" y="75"/>
      <point x="333" y="75" type="curve" smooth="yes"/>
      <point x="314" y="75" type="line"/>
      <point x="314" y="0" type="line"/>
      <point x="805" y="0" type="line"/>
      <point x="805" y="163" type="line"/>
      <point x="723" y="163" type="line"/>
      <point x="723" y="139" type="line" smooth="yes"/>
      <point x="723" y="117"/>
      <point x="719" y="83"/>
      <point x="698" y="83" type="curve" smooth="yes"/>
      <point x="520" y="83" type="line"/>
      <point x="520" y="245" type="line"/>
      <point x="625" y="245" type="line" smooth="yes"/>
      <point x="637" y="245"/>
      <point x="644" y="240"/>
      <point x="645" y="211" type="curve"/>
      <point x="679" y="211" type="line"/>
      <point x="679" y="350" type="line"/>
      <point x="645" y="350" type="line"/>
      <point x="644" y="323"/>
      <point x="639" y="315"/>
      <point x="625" y="315" type="curve" smooth="yes"/>
      <point x="520" y="315" type="line"/>
      <point x="520" y="468" type="line"/>
      <point x="694" y="468" type="line" smooth="yes"/>
      <point x="722" y="468"/>
      <point x="721" y="445"/>
      <point x="721" y="416" type="curve" smooth="yes"/>
      <point x="721" y="397" type="line"/>
      <point x="803" y="397" type="line"/>
      <point x="803" y="551" type="line"/>
    </contour>
    <contour>
      <point x="380" y="283" type="line"/>
      <point x="235" y="283" type="line"/>
      <point x="348" y="476" type="line"/>
      <point x="380" y="476" type="line"/>
    </contour>
  </outline>
</glyph>
<glyph name="AE" format="1">
  <advance width="863"/>
  <unicode hex="00C6"/>
  <outline>
    <contour>
      <point x="307" y="562" type="line"/>
      <point x="257" y="479" type="line"/>
      <point x="38" y="113" type="line" smooth="yes"/>
      <point x="23" y="90"/>
      <point x="10" y="77"/>
      <point x="-27" y="77" type="curve"/>
      <point x="-27" y="0" type="line"/>
      <point x="30" y="0"/>
      <point x="43" y="1"/>
      <point x="92" y="1" type="curve" smooth="yes"/>
      <point x="130" y="1"/>
      <point x="159" y="0"/>
      <point x="196" y="0" type="curve"/>
      <point x="196" y="77" type="line"/>
      <point x="171" y="77" type="line" smooth="yes"/>
      <point x="151" y="77"/>
      <point x="133" y="75"/>
      <point x="133" y="89" type="curve" smooth="yes"/>
      <point x="133" y="93"/>
      <point x="135" y="99"/>
      <point x="139" y="106" type="curve" smooth="yes"/>
      <point x="203" y="218" type="line"/>
      <point x="389" y="218" type="line"/>
      <point x="389" y="107" type="line" smooth="yes"/>
      <point x="389" y="74"/>
      <point x="371" y="77"/>
      <point x="340" y="77" type="curve" smooth="yes"/>
      <point x="320" y="77" type="line"/>
      <point x="320" y="0" type="line"/>
      <point x="821" y="0" type="line"/>
      <point x="821" y="166" type="line"/>
      <point x="737" y="166" type="line"/>
      <point x="737" y="142" type="line" smooth="yes"/>
      <point x="737" y="119"/>
      <point x="733" y="85"/>
      <point x="712" y="85" type="curve" smooth="yes"/>
      <point x="530" y="85" type="line"/>
      <point x="530" y="250" type="line"/>
      <point x="638" y="250" type="line" smooth="yes"/>
      <point x="650" y="250"/>
      <point x="657" y="245"/>
      <point x="658" y="215" type="curve"/>
      <point x="693" y="215" type="line"/>
      <point x="693" y="357" type="line"/>
      <point x="658" y="357" type="line"/>
      <point x="657" y="329"/>
      <point x="652" y="321"/>
      <point x="638" y="321" type="curve" smooth="yes"/>
      <point x="530" y="321" type="line"/>
      <point x="530" y="477" type="line"/>
      <point x="708" y="477" type="line" smooth="yes"/>
      <point x="736" y="477"/>
      <point x="735" y="454"/>
      <point x="735" y="424" type="curve" smooth="yes"/>
      <point x="735" y="405" type="line"/>
      <point x="819" y="405" type="line"/>
      <point x="819" y="562" type="line"/>
    </contour>
    <contour>
      <point x="388" y="289" type="line"/>
      <point x="240" y="289" type="line"/>
      <point x="355" y="486" type="line"/>
      <point x="388" y="486" type="line"/>
    </contour>
  </outline>
</glyph>
<glyph name="Eth" format="1">
  <advance width="680"/>
  <unicode hex="00D0"/>
  <outline>
    <contour>
      <point x="29" y="340" type="line"/>
      <point x="29" y="226" type="line"/>
      <point x="312" y="226" type="line"/>
      <point x="312" y="340" type="line"/>
    </contour>
    <component base="D"/>
  </outline>
</glyph>
<glyph name="Eth" format="1">
  <advance width="667"/>
  <unicode hex="00D0"/>
  <outline>
    <contour>
      <point x="28" y="333" type="line"/>
      <point x="28" y="222" type="line"/>
      <point x="306" y="222" type="line"/>
      <point x="306" y="333" type="line"/>
    </contour>
    <contour>
      <point x="27" y="551" type="line"/>
      <point x="27" y="476" type="line"/>
      <point x="48" y="476" type="line" smooth="yes"/>
      <point x="77" y="476"/>
      <point x="85" y="463"/>
      <point x="85" y="436" type="curve"/>
      <point x="86" y="121" type="line"/>
      <point x="86" y="92"/>
      <point x="80" y="75"/>
      <point x="48" y="75" type="curve" smooth="yes"/>
      <point x="27" y="75" type="line"/>
      <point x="27" y="0" type="line"/>
      <point x="272" y="0" type="line" smooth="yes"/>
      <point x="482" y="0"/>
      <point x="618" y="68"/>
      <point x="618" y="278" type="curve" smooth="yes"/>
      <point x="618" y="460"/>
      <point x="502" y="551"/>
      <point x="263" y="551" type="curve" smooth="yes"/>
    </contour>
    <contour>
      <point x="284" y="469" type="line" smooth="yes"/>
      <point x="409" y="469"/>
      <point x="469" y="411"/>
      <point x="469" y="280" type="curve" smooth="yes"/>
      <point x="469" y="147"/>
      <point x="413" y="82"/>
      <point x="284" y="82" type="curve" smooth="yes"/>
      <point x="224" y="82" type="line"/>
      <point x="224" y="469" type="line"/>
    </contour>
  </outline>
</glyph>
<glyph name="multiply" format="1">
  <advance width="647"/>
  <unicode hex="00D7"/>
  <outline>
    <contour>
      <point x="325" y="327" type="line"/>
      <point x="150" y="498" type="line"/>
      <point x="93" y="440" type="line"/>
      <point x="266" y="268" type="line"/>
      <point x="92" y="97" type="line"/>
      <point x="150" y="38" type="line"/>
      <point x="325" y="210" type="line"/>
      <point x="498" y="38" type="line"/>
      <point x="557" y="97" type="line"/>
      <point x="384" y="268" type="line"/>
      <point x="557" y="440" type="line"/>
      <point x="498" y="498" type="line"/>
    </contour>
  </outline>
</glyph>
<glyph name="Oslash" format="1">
  <advance width="676"/>
  <unicode hex="00D8"/>
  <outline>
    <contour>
      <point x="69" y="-11" type="line"/>
      <point x="128" y="-33" type="line"/>
      <point x="598" y="566" type="line"/>
      <point x="541" y="588" type="line"/>
    </contour>
    <component base="O"/>
  </outline>
</glyph>
<glyph name="Oslash" format="1">
  <advance width="663"/>
  <unicode hex="00D8"/>
  <outline>
    <contour>
      <point x="68" y="-11" type="line"/>
      <point x="125" y="-32" type="line"/>
      <point x="586" y="555" type="line"/>
      <point x="530" y="576" type="line"/>
    </contour>
    <contour>
      <point x="332" y="561" type="curve" smooth="yes"/>
      <point x="153" y="561"/>
      <point x="42" y="446"/>
      <point x="42" y="276" type="curve" smooth="yes"/>
      <point x="42" y="105"/>
      <point x="155" y="-11"/>
      <point x="333" y="-11" type="curve" smooth="yes"/>
      <point x="509" y="-11"/>
      <point x="621" y="107"/>
      <point x="621" y="276" type="curve" smooth="yes"/>
      <point x="621" y="446"/>
      <point x="509" y="561"/>
    </contour>
    <contour>
      <point x="331" y="480" type="curve" smooth="yes"/>
      <point x="424" y="480"/>
      <point x="468" y="408"/>
      <point x="468" y="276" type="curve" smooth="yes"/>
      <point x="468" y="163"/>
      <point x="434" y="71"/>
      <point x="331" y="71" type="curve" smooth="yes"/>
      <point x="229" y="71"/>
      <point x="195" y="162"/>
      <point x="195" y="277" type="curve" smooth="yes"/>
      <point x="195" y="390"/>
      <point x="227" y="480"/>
    </contour>
  </outline>
</glyph>
<glyph name="Thorn" format="1">
  <advance width="582"/>
  <unicode hex="00DE"/>
  <outline>
    <contour>
      <point x="263" y="561"/>
      <point x="222" y="560"/>
      <point x="183" y="560" type="curve" smooth="yes"/>
      <point x="171" y="560"/>
      <point x="36" y="562"/>
      <point x="32" y="562" type="curve"/>
      <point x="32" y="514" type="line"/>
      <point x="57" y="514" type="line" smooth="yes"/>
      <point x="89" y="514"/>
      <point x="98" y="489"/>
      <point x="98" y="455" type="curve"/>
      <point x="98" y="111" type="line"/>
      <point x="98" y="70"/>
      <point x="93" y="48"/>
      <point x="48" y="48" type="curve" smooth="yes"/>
      <point x="32" y="48" type="line"/>
      <point x="32" y="0" type="line"/>
      <point x="43" y="0"/>
      <point x="162" y="1"/>
      <point x="176" y="1" type="curve" smooth="yes"/>
      <point x="206" y="1"/>
      <point x="293" y="0"/>
      <point x="304" y="0" type="curve"/>
      <point x="304" y="48" type="line"/>
      <point x="290" y="48" type="line" smooth="yes"/>
      <point x="249" y="48"/>
      <point x="239" y="56"/>
      <point x="239" y="98" type="curve" smooth="yes"/>
      <point x="239" y="119" type="line"/>
      <point x="316" y="119" type="line" smooth="yes"/>
      <point x="471" y="119"/>
      <point x="558" y="161"/>
      <point x="558" y="287" type="curve" smooth="yes"/>
      <point x="558" y="402"/>
      <point x="468" y="454"/>
      <point x="332" y="454" type="curve" smooth="yes"/>
      <point x="239" y="454" type="line"/>
      <point x="239" y="474" type="line" smooth="yes"/>
      <point x="239" y="509"/>
      <point x="256" y="514"/>
      <point x="289" y="514" type="curve" smooth="yes"/>
      <point x="304" y="514" type="line"/>
      <point x="304" y="562" type="line"/>
    </contour>
    <contour>
      <point x="383" y="375"/>
      <point x="416" y="347"/>
      <point x="416" y="288" type="curve" smooth="yes"/>
      <point x="416" y="230"/>
      <point x="384" y="197"/>
      <point x="306" y="197" type="curve" smooth="yes"/>
      <point x="239" y="197" type="line"/>
      <point x="239" y="375" type="line"/>
      <point x="300" y="375" type="line" smooth="yes"/>
    </contour>
  </outline>
</glyph>
<glyph name="Thorn" format="1">
  <advance width="571"/>
  <unicode hex="00DE"/>
  <outline>
    <contour>
      <point x="298" y="551" type="line"/>
      <point x="258" y="550"/>
      <point x="218" y="549"/>
      <point x="179" y="549" type="curve" smooth="yes"/>
      <point x="168" y="549"/>
      <point x="35" y="551"/>
      <point x="31" y="551" type="curve"/>
      <point x="31" y="504" type="line"/>
      <point x="56" y="504" type="line" smooth="yes"/>
      <point x="87" y="504"/>
      <point x="96" y="479"/>
      <point x="96" y="446" type="curve"/>
      <point x="96" y="109" type="line"/>
      <point x="96" y="69"/>
      <point x="91" y="47"/>
      <point x="47" y="47" type="curve" smooth="yes"/>
      <point x="31" y="47" type="line"/>
      <point x="31" y="0" type="line"/>
      <point x="42" y="0"/>
      <point x="159" y="1"/>
      <point x="173" y="1" type="curve" smooth="yes"/>
      <point x="202" y="1"/>
      <point x="287" y="0"/>
      <point x="298" y="0" type="curve"/>
      <point x="298" y="47" type="line"/>
      <point x="284" y="47" type="line" smooth="yes"/>
      <point x="244" y="47"/>
      <point x="234" y="55"/>
      <point x="234" y="96" type="curve" smooth="yes"/>
      <point x="234" y="117" type="line"/>
      <point x="310" y="117" type="line" smooth="yes"/>
      <point x="462" y="117"/>
      <point x="547" y="158"/>
      <point x="547" y="281" type="curve" smooth="yes"/>
      <point x="547" y="394"/>
      <point x="459" y="445"/>
      <point x="325" y="445" type="curve" smooth="yes"/>
      <point x="234" y="445" type="line"/>
      <point x="234" y="465" type="line" smooth="yes"/>
      <point x="234" y="499"/>
      <point x="251" y="504"/>
      <point x="283" y="504" type="curve" smooth="yes"/>
      <point x="298" y="504" type="line"/>
    </contour>
    <contour>
      <point x="294" y="368" type="line" smooth="yes"/>
      <point x="375" y="368"/>
      <point x="408" y="340"/>
      <point x="408" y="282" type="curve" smooth="yes"/>
      <point x="408" y="225"/>
      <point x="376" y="193"/>
      <point x="300" y="193" type="curve" smooth="yes"/>
      <point x="234" y="193" type="line"/>
      <point x="234" y="368" type="line"/>
    </contour>
  </outline>
</glyph>
<glyph name="germandbls" format="1">
  <advance width="563"/>
  <unicode hex="00DF"/>
  <outline>
    <contour>
      <point x="290" y="562" type="curve" smooth="yes"/>
      <point x="143" y="562"/>
      <point x="73" y="508"/>
      <point x="73" y="369" type="curve" smooth="yes"/>
      <point x="73" y="111" type="line" smooth="yes"/>
      <point x="73" y="62"/>
      <point x="66" y="69"/>
      <point x="18" y="69" type="curve"/>
      <point x="18" y="0" type="line"/>
      <point x="36" y="0"/>
      <point x="112" y="1"/>
      <point x="135" y="1" type="curve" smooth="yes"/>
      <point x="146" y="1"/>
      <point x="241" y="0"/>
      <point x="252" y="0" type="curve"/>
      <point x="252" y="69" type="line"/>
      <point x="212" y="69"/>
      <point x="202" y="72"/>
      <point x="202" y="107" type="curve" smooth="yes"/>
      <point x="202" y="387" type="line" smooth="yes"/>
      <point x="202" y="464"/>
      <point x="228" y="499"/>
      <point x="286" y="499" type="curve" smooth="yes"/>
      <point x="333" y="499"/>
      <point x="365" y="471"/>
      <point x="365" y="421" type="curve" smooth="yes"/>
      <point x="365" y="367"/>
      <point x="342" y="339"/>
      <point x="287" y="337" type="curve"/>
      <point x="287" y="280" type="line"/>
      <point x="371" y="274"/>
      <point x="400" y="245"/>
      <point x="400" y="161" type="curve" smooth="yes"/>
      <point x="400" y="75"/>
      <point x="354" y="53"/>
      <point x="306" y="56" type="curve"/>
      <point x="306" y="-2" type="line"/>
      <point x="325" y="-7"/>
      <point x="343" y="-10"/>
      <point x="359" y="-10" type="curve" smooth="yes"/>
      <point x="470" y="-10"/>
      <point x="533" y="55"/>
      <point x="533" y="161" type="curve" smooth="yes"/>
      <point x="533" y="247"/>
      <point x="487" y="298"/>
      <point x="405" y="312" type="curve"/>
      <point x="405" y="312" type="line"/>
      <point x="433" y="312"/>
      <point x="493" y="354"/>
      <point x="493" y="425" type="curve" smooth="yes"/>
      <point x="493" y="525"/>
      <point x="401" y="562"/>
    </contour>
  </outline>
</glyph>
<glyph name="ae" format="1">
  <advance width="801"/>
  <unicode hex="00E6"/>
  <outline>
    <contour>
      <point x="492" y="402"/>
      <point x="438" y="380"/>
      <point x="404" y="348" type="curve"/>
      <point x="372" y="385"/>
      <point x="318" y="402"/>
      <point x="245" y="402" type="curve" smooth="yes"/>
      <point x="171" y="402"/>
      <point x="109" y="393"/>
      <point x="59" y="373" type="curve"/>
      <point x="52" y="288" type="line"/>
      <point x="139" y="283" type="line"/>
      <point x="144" y="326"/>
      <point x="172" y="347"/>
      <point x="232" y="347" type="curve" smooth="yes"/>
      <point x="294" y="347"/>
      <point x="320" y="325"/>
      <point x="323" y="265" type="curve"/>
      <point x="323" y="222" type="line"/>
      <point x="288" y="230"/>
      <point x="249" y="234"/>
      <point x="213" y="234" type="curve" smooth="yes"/>
      <point x="116" y="234"/>
      <point x="30" y="195"/>
      <point x="30" y="110" type="curve" smooth="yes"/>
      <point x="30" y="31"/>
      <point x="98" y="-11"/>
      <point x="183" y="-11" type="curve" smooth="yes"/>
      <point x="259" y="-11"/>
      <point x="318" y="10"/>
      <point x="366" y="65" type="curve"/>
      <point x="408" y="13"/>
      <point x="471" y="-13"/>
      <point x="557" y="-13" type="curve" smooth="yes"/>
      <point x="666" y="-13"/>
      <point x="738" y="30"/>
      <point x="761" y="108" type="curve"/>
      <point x="659" y="116" type="line"/>
      <point x="644" y="71"/>
      <point x="613" y="49"/>
      <point x="566" y="49" type="curve" smooth="yes"/>
      <point x="495" y="49"/>
      <point x="457" y="97"/>
      <point x="456" y="177" type="curve"/>
      <point x="769" y="182" type="line"/>
      <point x="769" y="323"/>
      <point x="693" y="402"/>
      <point x="550" y="402" type="curve" smooth="yes"/>
    </contour>
    <contour>
      <point x="271" y="187"/>
      <point x="299" y="183"/>
      <point x="323" y="177" type="curve"/>
      <point x="323" y="144" type="line" smooth="yes"/>
      <point x="323" y="75"/>
      <point x="290" y="45"/>
      <point x="228" y="45" type="curve" smooth="yes"/>
      <point x="187" y="46"/>
      <point x="156" y="74"/>
      <point x="156" y="115" type="curve" smooth="yes"/>
      <point x="156" y="161"/>
      <point x="191" y="187"/>
      <point x="247" y="187" type="curve" smooth="yes"/>
    </contour>
    <contour>
      <point x="609" y="342"/>
      <point x="639" y="303"/>
      <point x="644" y="237" type="curve"/>
      <point x="644" y="235"/>
      <point x="644" y="224"/>
      <point x="644" y="221" type="curve"/>
      <point x="456" y="221" type="line"/>
      <point x="461" y="298"/>
      <point x="494" y="342"/>
      <point x="553" y="342" type="curve" smooth="yes"/>
    </contour>
  </outline>
</glyph>
